<mxfile modified="2024-05-02T16:55:07.370Z" host="Electron" agent="Mozilla/5.0 (Windows NT 10.0; Win64; x64) AppleWebKit/537.36 (KHTML, like Gecko) draw.io/24.2.5 Chrome/120.0.6099.109 Electron/28.1.0 Safari/537.36" etag="orLFNHPVoFfbhKQ4udwN" version="24.2.5" type="device">
  <diagram id="l8hXMBHkgcEJcSW0mbfh" name="Page-1">
    <mxGraphModel dx="3794" dy="2380" grid="1" gridSize="10" guides="1" tooltips="1" connect="1" arrows="1" fold="1" page="1" pageScale="1" pageWidth="1169" pageHeight="827" math="0" shadow="0">
      <root>
        <mxCell id="0" />
        <mxCell id="1" parent="0" />
        <mxCell id="8--HhbSZYtI3ddgJnD71-20" style="rounded=0;orthogonalLoop=1;jettySize=auto;html=1;endArrow=none;endFill=0;sourcePerimeterSpacing=5;targetPerimeterSpacing=5;exitX=0.5;exitY=1;exitDx=0;exitDy=0;entryX=0.75;entryY=0;entryDx=0;entryDy=0;" parent="1" source="_JjsHGZuqhBBGKbj4It--3" target="_JjsHGZuqhBBGKbj4It--1" edge="1">
          <mxGeometry relative="1" as="geometry">
            <mxPoint x="190" y="-300" as="sourcePoint" />
            <mxPoint x="98.00140350877194" y="-224" as="targetPoint" />
          </mxGeometry>
        </mxCell>
        <mxCell id="_JjsHGZuqhBBGKbj4It--1" value="Voter" style="shape=image;verticalLabelPosition=bottom;verticalAlign=top;imageAspect=0;aspect=fixed;image=data:image/svg+xml,PHN2ZyB4bWxucz0iaHR0cDovL3d3dy53My5vcmcvMjAwMC9zdmciIHZlcnNpb249IjEiIHZpZXdCb3g9IjAgMCA0OCA0OCIgZW5hYmxlLWJhY2tncm91bmQ9Im5ldyAwIDAgNDggNDgiPiYjeGE7ICAgIDxwb2x5Z29uIGZpbGw9IiNGRjk4MDAiIHBvaW50cz0iMjQsMzcgMTksMzEgMTksMjUgMjksMjUgMjksMzEiLz4mI3hhOyAgICA8ZyBmaWxsPSIjRkZBNzI2Ij4mI3hhOyAgICAgICAgPGNpcmNsZSBjeD0iMzMiIGN5PSIxOSIgcj0iMiIvPiYjeGE7ICAgICAgICA8Y2lyY2xlIGN4PSIxNSIgY3k9IjE5IiByPSIyIi8+JiN4YTsgICAgPC9nPiYjeGE7ICAgIDxwYXRoIGZpbGw9IiNGRkI3NEQiIGQ9Ik0zMywxM2MwLTcuNi0xOC01LTE4LDBjMCwxLjEsMCw1LjksMCw3YzAsNSw0LDksOSw5czktNCw5LTlDMzMsMTguOSwzMywxNC4xLDMzLDEzeiIvPiYjeGE7ICAgIDxwYXRoIGZpbGw9IiM0MjQyNDIiIGQ9Ik0yNCw0Yy02LjEsMC0xMCw0LjktMTAsMTFjMCwwLjgsMCwyLjMsMCwyLjNsMiwxLjd2LTVsMTItNGw0LDR2NWwyLTEuN2MwLDAsMC0xLjUsMC0yLjNjMC00LTEtOC02LTlsLTEtMiBIMjR6Ii8+JiN4YTsgICAgPGcgZmlsbD0iIzc4NDcxOSI+JiN4YTsgICAgICAgIDxjaXJjbGUgY3g9IjI4IiBjeT0iMTkiIHI9IjEiLz4mI3hhOyAgICAgICAgPGNpcmNsZSBjeD0iMjAiIGN5PSIxOSIgcj0iMSIvPiYjeGE7ICAgIDwvZz4mI3hhOyAgICA8cG9seWdvbiBmaWxsPSIjZmZmIiBwb2ludHM9IjI0LDQzIDE5LDMxIDI0LDMyIDI5LDMxIi8+JiN4YTsgICAgPHBvbHlnb24gZmlsbD0iI0QzMkYyRiIgcG9pbnRzPSIyMywzNSAyMi4zLDM5LjUgMjQsNDMuNSAyNS43LDM5LjUgMjUsMzUgMjYsMzQgMjQsMzIgMjIsMzQiLz4mI3hhOyAgICA8cGF0aCBmaWxsPSIjNTQ2RTdBIiBkPSJNMjksMzFMMjksMzFsLTUsMTJsLTUtMTJjMCwwLTExLDItMTEsMTNoMzJDNDAsMzMsMjksMzEsMjksMzF6Ii8+JiN4YTs8L3N2Zz4=;labelBackgroundColor=#ffffff;" parent="1" vertex="1">
          <mxGeometry x="50" y="-210" width="48" height="48" as="geometry" />
        </mxCell>
        <mxCell id="_JjsHGZuqhBBGKbj4It--3" value="Login" style="ellipse;whiteSpace=wrap;html=1;" parent="1" vertex="1">
          <mxGeometry x="130" y="-430" width="120" height="80" as="geometry" />
        </mxCell>
        <mxCell id="_JjsHGZuqhBBGKbj4It--4" style="rounded=0;orthogonalLoop=1;jettySize=auto;html=1;endArrow=none;endFill=0;sourcePerimeterSpacing=5;targetPerimeterSpacing=5;exitX=0;exitY=1;exitDx=0;exitDy=0;entryX=1;entryY=0.25;entryDx=0;entryDy=0;" parent="1" source="_JjsHGZuqhBBGKbj4It--5" target="_JjsHGZuqhBBGKbj4It--1" edge="1">
          <mxGeometry relative="1" as="geometry">
            <mxPoint x="244" y="-197" as="sourcePoint" />
            <mxPoint x="140" y="-107" as="targetPoint" />
          </mxGeometry>
        </mxCell>
        <mxCell id="_JjsHGZuqhBBGKbj4It--5" value="Registration" style="ellipse;whiteSpace=wrap;html=1;" parent="1" vertex="1">
          <mxGeometry x="286" y="-380" width="120" height="80" as="geometry" />
        </mxCell>
        <mxCell id="_JjsHGZuqhBBGKbj4It--6" style="rounded=0;orthogonalLoop=1;jettySize=auto;html=1;endArrow=none;endFill=0;sourcePerimeterSpacing=5;targetPerimeterSpacing=5;exitX=0;exitY=0.5;exitDx=0;exitDy=0;entryX=1;entryY=0.5;entryDx=0;entryDy=0;" parent="1" source="_JjsHGZuqhBBGKbj4It--7" target="_JjsHGZuqhBBGKbj4It--1" edge="1">
          <mxGeometry relative="1" as="geometry">
            <mxPoint x="308" y="-97" as="sourcePoint" />
            <mxPoint x="204" y="-7" as="targetPoint" />
          </mxGeometry>
        </mxCell>
        <mxCell id="_JjsHGZuqhBBGKbj4It--7" value="Voting" style="ellipse;whiteSpace=wrap;html=1;" parent="1" vertex="1">
          <mxGeometry x="381" y="-250" width="120" height="80" as="geometry" />
        </mxCell>
        <mxCell id="_JjsHGZuqhBBGKbj4It--8" style="rounded=0;orthogonalLoop=1;jettySize=auto;html=1;endArrow=none;endFill=0;sourcePerimeterSpacing=5;targetPerimeterSpacing=5;exitX=0;exitY=0.5;exitDx=0;exitDy=0;entryX=1;entryY=1;entryDx=0;entryDy=0;" parent="1" source="_JjsHGZuqhBBGKbj4It--9" target="_JjsHGZuqhBBGKbj4It--1" edge="1">
          <mxGeometry relative="1" as="geometry">
            <mxPoint x="249" y="4" as="sourcePoint" />
            <mxPoint x="145" y="94" as="targetPoint" />
          </mxGeometry>
        </mxCell>
        <mxCell id="_JjsHGZuqhBBGKbj4It--9" value="Update Profile" style="ellipse;whiteSpace=wrap;html=1;" parent="1" vertex="1">
          <mxGeometry x="322" y="-149" width="120" height="80" as="geometry" />
        </mxCell>
        <mxCell id="_JjsHGZuqhBBGKbj4It--10" style="rounded=0;orthogonalLoop=1;jettySize=auto;html=1;endArrow=none;endFill=0;sourcePerimeterSpacing=5;targetPerimeterSpacing=5;exitX=0;exitY=0;exitDx=0;exitDy=0;entryX=0.75;entryY=1;entryDx=0;entryDy=0;" parent="1" source="_JjsHGZuqhBBGKbj4It--11" target="_JjsHGZuqhBBGKbj4It--1" edge="1">
          <mxGeometry relative="1" as="geometry">
            <mxPoint x="130" y="103" as="sourcePoint" />
            <mxPoint x="26" y="193" as="targetPoint" />
          </mxGeometry>
        </mxCell>
        <mxCell id="_JjsHGZuqhBBGKbj4It--11" value="view Election Date" style="ellipse;whiteSpace=wrap;html=1;" parent="1" vertex="1">
          <mxGeometry x="203" y="-50" width="120" height="80" as="geometry" />
        </mxCell>
        <mxCell id="_JjsHGZuqhBBGKbj4It--12" style="rounded=0;orthogonalLoop=1;jettySize=auto;html=1;endArrow=none;endFill=0;sourcePerimeterSpacing=5;targetPerimeterSpacing=5;entryX=0.75;entryY=1;entryDx=0;entryDy=0;exitX=0.5;exitY=0;exitDx=0;exitDy=0;" parent="1" source="_JjsHGZuqhBBGKbj4It--13" target="_JjsHGZuqhBBGKbj4It--1" edge="1">
          <mxGeometry relative="1" as="geometry">
            <mxPoint x="-81" y="149" as="sourcePoint" />
            <mxPoint x="-40" y="-116" as="targetPoint" />
          </mxGeometry>
        </mxCell>
        <mxCell id="_JjsHGZuqhBBGKbj4It--13" value="Download Voter id" style="ellipse;whiteSpace=wrap;html=1;" parent="1" vertex="1">
          <mxGeometry x="50" width="120" height="80" as="geometry" />
        </mxCell>
        <mxCell id="_JjsHGZuqhBBGKbj4It--15" value="view all parties&lt;span style=&quot;color: rgba(0, 0, 0, 0); font-family: monospace; font-size: 0px; text-align: start; text-wrap: nowrap;&quot;&gt;%3CmxGraphModel%3E%3Croot%3E%3CmxCell%20id%3D%220%22%2F%3E%3CmxCell%20id%3D%221%22%20parent%3D%220%22%2F%3E%3CmxCell%20id%3D%222%22%20style%3D%22rounded%3D0%3BorthogonalLoop%3D1%3BjettySize%3Dauto%3Bhtml%3D1%3BendArrow%3Dnone%3BendFill%3D0%3BsourcePerimeterSpacing%3D5%3BtargetPerimeterSpacing%3D5%3BexitX%3D0%3BexitY%3D0.5%3BexitDx%3D0%3BexitDy%3D0%3BentryX%3D0.75%3BentryY%3D0%3BentryDx%3D0%3BentryDy%3D0%3B%22%20edge%3D%221%22%20source%3D%223%22%20parent%3D%221%22%3E%3CmxGeometry%20relative%3D%221%22%20as%3D%22geometry%22%3E%3CmxPoint%20x%3D%22190%22%20y%3D%22-300%22%20as%3D%22sourcePoint%22%2F%3E%3CmxPoint%20x%3D%2286%22%20y%3D%22-210%22%20as%3D%22targetPoint%22%2F%3E%3C%2FmxGeometry%3E%3C%2FmxCell%3E%3CmxCell%20id%3D%223%22%20value%3D%22Login%22%20style%3D%22ellipse%3BwhiteSpace%3Dwrap%3Bhtml%3D1%3B%22%20vertex%3D%221%22%20parent%3D%221%22%3E%3CmxGeometry%20x%3D%22263%22%20y%3D%22-453%22%20width%3D%22120%22%20height%3D%2280%22%20as%3D%22geometry%22%2F%3E%3C%2FmxCell%3E%3C%2Froot%3E%3C%2FmxGraphModel%3E&lt;/span&gt;" style="ellipse;whiteSpace=wrap;html=1;" parent="1" vertex="1">
          <mxGeometry x="-240" y="-380" width="177" height="80" as="geometry" />
        </mxCell>
        <mxCell id="_JjsHGZuqhBBGKbj4It--20" style="rounded=0;orthogonalLoop=1;jettySize=auto;html=1;endArrow=none;endFill=0;sourcePerimeterSpacing=5;targetPerimeterSpacing=5;entryX=1;entryY=1;entryDx=0;entryDy=0;exitX=0;exitY=0.5;exitDx=0;exitDy=0;" parent="1" source="_JjsHGZuqhBBGKbj4It--1" target="_JjsHGZuqhBBGKbj4It--15" edge="1">
          <mxGeometry relative="1" as="geometry">
            <mxPoint x="-63" y="-69" as="sourcePoint" />
            <mxPoint x="-53" y="-227" as="targetPoint" />
          </mxGeometry>
        </mxCell>
        <mxCell id="_JjsHGZuqhBBGKbj4It--21" value="Register complaints" style="ellipse;whiteSpace=wrap;html=1;" parent="1" vertex="1">
          <mxGeometry x="-353" y="-140.5" width="150" height="80" as="geometry" />
        </mxCell>
        <mxCell id="_JjsHGZuqhBBGKbj4It--23" style="rounded=0;orthogonalLoop=1;jettySize=auto;html=1;endArrow=none;endFill=0;sourcePerimeterSpacing=5;targetPerimeterSpacing=5;entryX=0;entryY=0.75;entryDx=0;entryDy=0;exitX=1;exitY=0.5;exitDx=0;exitDy=0;" parent="1" source="_JjsHGZuqhBBGKbj4It--21" target="_JjsHGZuqhBBGKbj4It--1" edge="1">
          <mxGeometry relative="1" as="geometry">
            <mxPoint x="-110" y="-150" as="sourcePoint" />
            <mxPoint x="-37" y="-122" as="targetPoint" />
          </mxGeometry>
        </mxCell>
        <mxCell id="_JjsHGZuqhBBGKbj4It--24" value="View Election Results" style="ellipse;whiteSpace=wrap;html=1;" parent="1" vertex="1">
          <mxGeometry x="-262.62" y="-27.5" width="137" height="80" as="geometry" />
        </mxCell>
        <mxCell id="_JjsHGZuqhBBGKbj4It--25" style="rounded=0;orthogonalLoop=1;jettySize=auto;html=1;endArrow=none;endFill=0;sourcePerimeterSpacing=5;targetPerimeterSpacing=5;entryX=0;entryY=1;entryDx=0;entryDy=0;exitX=1;exitY=0.5;exitDx=0;exitDy=0;" parent="1" source="_JjsHGZuqhBBGKbj4It--24" target="_JjsHGZuqhBBGKbj4It--1" edge="1">
          <mxGeometry relative="1" as="geometry">
            <mxPoint x="-123" y="-48" as="sourcePoint" />
            <mxPoint x="50" y="-162" as="targetPoint" />
          </mxGeometry>
        </mxCell>
        <mxCell id="_JjsHGZuqhBBGKbj4It--26" style="rounded=0;orthogonalLoop=1;jettySize=auto;html=1;endArrow=none;endFill=0;sourcePerimeterSpacing=5;targetPerimeterSpacing=5;exitX=0.5;exitY=1;exitDx=0;exitDy=0;entryX=0.75;entryY=0;entryDx=0;entryDy=0;" parent="1" source="_JjsHGZuqhBBGKbj4It--28" target="_JjsHGZuqhBBGKbj4It--27" edge="1">
          <mxGeometry relative="1" as="geometry">
            <mxPoint x="1270" y="-330.5" as="sourcePoint" />
            <mxPoint x="1178.001403508772" y="-254.5" as="targetPoint" />
          </mxGeometry>
        </mxCell>
        <mxCell id="_JjsHGZuqhBBGKbj4It--27" value="Caandidate" style="shape=image;verticalLabelPosition=bottom;verticalAlign=top;imageAspect=0;aspect=fixed;image=data:image/svg+xml,PHN2ZyB4bWxucz0iaHR0cDovL3d3dy53My5vcmcvMjAwMC9zdmciIHZlcnNpb249IjEiIHZpZXdCb3g9IjAgMCA0OCA0OCIgZW5hYmxlLWJhY2tncm91bmQ9Im5ldyAwIDAgNDggNDgiPiYjeGE7ICAgIDxwb2x5Z29uIGZpbGw9IiNGRjk4MDAiIHBvaW50cz0iMjQsMzcgMTksMzEgMTksMjUgMjksMjUgMjksMzEiLz4mI3hhOyAgICA8ZyBmaWxsPSIjRkZBNzI2Ij4mI3hhOyAgICAgICAgPGNpcmNsZSBjeD0iMzMiIGN5PSIxOSIgcj0iMiIvPiYjeGE7ICAgICAgICA8Y2lyY2xlIGN4PSIxNSIgY3k9IjE5IiByPSIyIi8+JiN4YTsgICAgPC9nPiYjeGE7ICAgIDxwYXRoIGZpbGw9IiNGRkI3NEQiIGQ9Ik0zMywxM2MwLTcuNi0xOC01LTE4LDBjMCwxLjEsMCw1LjksMCw3YzAsNSw0LDksOSw5czktNCw5LTlDMzMsMTguOSwzMywxNC4xLDMzLDEzeiIvPiYjeGE7ICAgIDxwYXRoIGZpbGw9IiM0MjQyNDIiIGQ9Ik0yNCw0Yy02LjEsMC0xMCw0LjktMTAsMTFjMCwwLjgsMCwyLjMsMCwyLjNsMiwxLjd2LTVsMTItNGw0LDR2NWwyLTEuN2MwLDAsMC0xLjUsMC0yLjNjMC00LTEtOC02LTlsLTEtMiBIMjR6Ii8+JiN4YTsgICAgPGcgZmlsbD0iIzc4NDcxOSI+JiN4YTsgICAgICAgIDxjaXJjbGUgY3g9IjI4IiBjeT0iMTkiIHI9IjEiLz4mI3hhOyAgICAgICAgPGNpcmNsZSBjeD0iMjAiIGN5PSIxOSIgcj0iMSIvPiYjeGE7ICAgIDwvZz4mI3hhOyAgICA8cG9seWdvbiBmaWxsPSIjZmZmIiBwb2ludHM9IjI0LDQzIDE5LDMxIDI0LDMyIDI5LDMxIi8+JiN4YTsgICAgPHBvbHlnb24gZmlsbD0iI0QzMkYyRiIgcG9pbnRzPSIyMywzNSAyMi4zLDM5LjUgMjQsNDMuNSAyNS43LDM5LjUgMjUsMzUgMjYsMzQgMjQsMzIgMjIsMzQiLz4mI3hhOyAgICA8cGF0aCBmaWxsPSIjNTQ2RTdBIiBkPSJNMjksMzFMMjksMzFsLTUsMTJsLTUtMTJjMCwwLTExLDItMTEsMTNoMzJDNDAsMzMsMjksMzEsMjksMzF6Ii8+JiN4YTs8L3N2Zz4=;labelBackgroundColor=#ffffff;" parent="1" vertex="1">
          <mxGeometry x="1130" y="-240.5" width="48" height="48" as="geometry" />
        </mxCell>
        <mxCell id="_JjsHGZuqhBBGKbj4It--28" value="Login" style="ellipse;whiteSpace=wrap;html=1;" parent="1" vertex="1">
          <mxGeometry x="1130" y="-460.5" width="120" height="80" as="geometry" />
        </mxCell>
        <mxCell id="_JjsHGZuqhBBGKbj4It--29" style="rounded=0;orthogonalLoop=1;jettySize=auto;html=1;endArrow=none;endFill=0;sourcePerimeterSpacing=5;targetPerimeterSpacing=5;exitX=0;exitY=1;exitDx=0;exitDy=0;entryX=1;entryY=0.25;entryDx=0;entryDy=0;" parent="1" source="_JjsHGZuqhBBGKbj4It--30" target="_JjsHGZuqhBBGKbj4It--27" edge="1">
          <mxGeometry relative="1" as="geometry">
            <mxPoint x="1324" y="-227.5" as="sourcePoint" />
            <mxPoint x="1220" y="-137.5" as="targetPoint" />
          </mxGeometry>
        </mxCell>
        <mxCell id="_JjsHGZuqhBBGKbj4It--30" value="Registration" style="ellipse;whiteSpace=wrap;html=1;" parent="1" vertex="1">
          <mxGeometry x="1366" y="-410.5" width="120" height="80" as="geometry" />
        </mxCell>
        <mxCell id="_JjsHGZuqhBBGKbj4It--31" style="rounded=0;orthogonalLoop=1;jettySize=auto;html=1;endArrow=none;endFill=0;sourcePerimeterSpacing=5;targetPerimeterSpacing=5;exitX=0;exitY=0.5;exitDx=0;exitDy=0;entryX=1;entryY=0.5;entryDx=0;entryDy=0;" parent="1" source="_JjsHGZuqhBBGKbj4It--32" target="_JjsHGZuqhBBGKbj4It--27" edge="1">
          <mxGeometry relative="1" as="geometry">
            <mxPoint x="1388" y="-127.5" as="sourcePoint" />
            <mxPoint x="1284" y="-37.5" as="targetPoint" />
          </mxGeometry>
        </mxCell>
        <mxCell id="_JjsHGZuqhBBGKbj4It--32" value="View Other Candiate" style="ellipse;whiteSpace=wrap;html=1;" parent="1" vertex="1">
          <mxGeometry x="1461" y="-280.5" width="120" height="80" as="geometry" />
        </mxCell>
        <mxCell id="_JjsHGZuqhBBGKbj4It--33" style="rounded=0;orthogonalLoop=1;jettySize=auto;html=1;endArrow=none;endFill=0;sourcePerimeterSpacing=5;targetPerimeterSpacing=5;exitX=0;exitY=0.5;exitDx=0;exitDy=0;entryX=1;entryY=1;entryDx=0;entryDy=0;" parent="1" source="_JjsHGZuqhBBGKbj4It--34" target="_JjsHGZuqhBBGKbj4It--27" edge="1">
          <mxGeometry relative="1" as="geometry">
            <mxPoint x="1329" y="-26.5" as="sourcePoint" />
            <mxPoint x="1225" y="63.5" as="targetPoint" />
          </mxGeometry>
        </mxCell>
        <mxCell id="_JjsHGZuqhBBGKbj4It--34" value="Update Profile" style="ellipse;whiteSpace=wrap;html=1;" parent="1" vertex="1">
          <mxGeometry x="1402" y="-179.5" width="120" height="80" as="geometry" />
        </mxCell>
        <mxCell id="_JjsHGZuqhBBGKbj4It--35" style="rounded=0;orthogonalLoop=1;jettySize=auto;html=1;endArrow=none;endFill=0;sourcePerimeterSpacing=5;targetPerimeterSpacing=5;exitX=0;exitY=0;exitDx=0;exitDy=0;entryX=0.75;entryY=1;entryDx=0;entryDy=0;" parent="1" source="_JjsHGZuqhBBGKbj4It--36" target="_JjsHGZuqhBBGKbj4It--27" edge="1">
          <mxGeometry relative="1" as="geometry">
            <mxPoint x="1210" y="72.5" as="sourcePoint" />
            <mxPoint x="1106" y="162.5" as="targetPoint" />
          </mxGeometry>
        </mxCell>
        <mxCell id="_JjsHGZuqhBBGKbj4It--36" value="view Election Date" style="ellipse;whiteSpace=wrap;html=1;" parent="1" vertex="1">
          <mxGeometry x="1283" y="-80.5" width="120" height="80" as="geometry" />
        </mxCell>
        <mxCell id="_JjsHGZuqhBBGKbj4It--37" style="rounded=0;orthogonalLoop=1;jettySize=auto;html=1;endArrow=none;endFill=0;sourcePerimeterSpacing=5;targetPerimeterSpacing=5;entryX=0.25;entryY=1;entryDx=0;entryDy=0;exitX=0.5;exitY=0;exitDx=0;exitDy=0;" parent="1" source="wYGtLHFu_H6YtD4rmj5H-24" target="_JjsHGZuqhBBGKbj4It--27" edge="1">
          <mxGeometry relative="1" as="geometry">
            <mxPoint x="1132" y="-34.5" as="sourcePoint" />
            <mxPoint x="1040" y="-146.5" as="targetPoint" />
          </mxGeometry>
        </mxCell>
        <mxCell id="_JjsHGZuqhBBGKbj4It--38" value="view all parties&lt;span style=&quot;color: rgba(0, 0, 0, 0); font-family: monospace; font-size: 0px; text-align: start; text-wrap: nowrap;&quot;&gt;%3CmxGraphModel%3E%3Croot%3E%3CmxCell%20id%3D%220%22%2F%3E%3CmxCell%20id%3D%221%22%20parent%3D%220%22%2F%3E%3CmxCell%20id%3D%222%22%20style%3D%22rounded%3D0%3BorthogonalLoop%3D1%3BjettySize%3Dauto%3Bhtml%3D1%3BendArrow%3Dnone%3BendFill%3D0%3BsourcePerimeterSpacing%3D5%3BtargetPerimeterSpacing%3D5%3BexitX%3D0%3BexitY%3D0.5%3BexitDx%3D0%3BexitDy%3D0%3BentryX%3D0.75%3BentryY%3D0%3BentryDx%3D0%3BentryDy%3D0%3B%22%20edge%3D%221%22%20source%3D%223%22%20parent%3D%221%22%3E%3CmxGeometry%20relative%3D%221%22%20as%3D%22geometry%22%3E%3CmxPoint%20x%3D%22190%22%20y%3D%22-300%22%20as%3D%22sourcePoint%22%2F%3E%3CmxPoint%20x%3D%2286%22%20y%3D%22-210%22%20as%3D%22targetPoint%22%2F%3E%3C%2FmxGeometry%3E%3C%2FmxCell%3E%3CmxCell%20id%3D%223%22%20value%3D%22Login%22%20style%3D%22ellipse%3BwhiteSpace%3Dwrap%3Bhtml%3D1%3B%22%20vertex%3D%221%22%20parent%3D%221%22%3E%3CmxGeometry%20x%3D%22263%22%20y%3D%22-453%22%20width%3D%22120%22%20height%3D%2280%22%20as%3D%22geometry%22%2F%3E%3C%2FmxCell%3E%3C%2Froot%3E%3C%2FmxGraphModel%3E&lt;/span&gt;" style="ellipse;whiteSpace=wrap;html=1;" parent="1" vertex="1">
          <mxGeometry x="805.5" y="-379.5" width="177" height="80" as="geometry" />
        </mxCell>
        <mxCell id="_JjsHGZuqhBBGKbj4It--39" style="rounded=0;orthogonalLoop=1;jettySize=auto;html=1;endArrow=none;endFill=0;sourcePerimeterSpacing=5;targetPerimeterSpacing=5;entryX=1;entryY=1;entryDx=0;entryDy=0;exitX=0;exitY=0.5;exitDx=0;exitDy=0;" parent="1" source="_JjsHGZuqhBBGKbj4It--27" target="_JjsHGZuqhBBGKbj4It--38" edge="1">
          <mxGeometry relative="1" as="geometry">
            <mxPoint x="1017" y="-99.5" as="sourcePoint" />
            <mxPoint x="1027" y="-257.5" as="targetPoint" />
          </mxGeometry>
        </mxCell>
        <mxCell id="_JjsHGZuqhBBGKbj4It--40" value="Register complaints" style="ellipse;whiteSpace=wrap;html=1;" parent="1" vertex="1">
          <mxGeometry x="780" y="-250.5" width="177" height="80" as="geometry" />
        </mxCell>
        <mxCell id="_JjsHGZuqhBBGKbj4It--41" style="rounded=0;orthogonalLoop=1;jettySize=auto;html=1;endArrow=none;endFill=0;sourcePerimeterSpacing=5;targetPerimeterSpacing=5;entryX=0;entryY=0.75;entryDx=0;entryDy=0;exitX=1;exitY=0.5;exitDx=0;exitDy=0;" parent="1" source="_JjsHGZuqhBBGKbj4It--40" target="_JjsHGZuqhBBGKbj4It--27" edge="1">
          <mxGeometry relative="1" as="geometry">
            <mxPoint x="970" y="-180.5" as="sourcePoint" />
            <mxPoint x="1043" y="-152.5" as="targetPoint" />
          </mxGeometry>
        </mxCell>
        <mxCell id="_JjsHGZuqhBBGKbj4It--42" value="View total votes (self)" style="ellipse;whiteSpace=wrap;html=1;" parent="1" vertex="1">
          <mxGeometry x="780" y="-99.5" width="177" height="80" as="geometry" />
        </mxCell>
        <mxCell id="_JjsHGZuqhBBGKbj4It--43" style="rounded=0;orthogonalLoop=1;jettySize=auto;html=1;endArrow=none;endFill=0;sourcePerimeterSpacing=5;targetPerimeterSpacing=5;entryX=0;entryY=1;entryDx=0;entryDy=0;exitX=1;exitY=0.5;exitDx=0;exitDy=0;" parent="1" source="_JjsHGZuqhBBGKbj4It--42" target="_JjsHGZuqhBBGKbj4It--27" edge="1">
          <mxGeometry relative="1" as="geometry">
            <mxPoint x="957" y="-78.5" as="sourcePoint" />
            <mxPoint x="1130" y="-192.5" as="targetPoint" />
          </mxGeometry>
        </mxCell>
        <mxCell id="_JjsHGZuqhBBGKbj4It--44" value="View profile" style="ellipse;whiteSpace=wrap;html=1;" parent="1" vertex="1">
          <mxGeometry x="1130" y="-9.5" width="120" height="80" as="geometry" />
        </mxCell>
        <mxCell id="_JjsHGZuqhBBGKbj4It--47" value="View profile" style="ellipse;whiteSpace=wrap;html=1;" parent="1" vertex="1">
          <mxGeometry x="-107.5" y="46" width="120" height="80" as="geometry" />
        </mxCell>
        <mxCell id="_JjsHGZuqhBBGKbj4It--48" style="rounded=0;orthogonalLoop=1;jettySize=auto;html=1;endArrow=none;endFill=0;sourcePerimeterSpacing=5;targetPerimeterSpacing=5;entryX=0.25;entryY=1;entryDx=0;entryDy=0;exitX=1;exitY=0;exitDx=0;exitDy=0;" parent="1" source="_JjsHGZuqhBBGKbj4It--47" target="_JjsHGZuqhBBGKbj4It--1" edge="1">
          <mxGeometry relative="1" as="geometry">
            <mxPoint x="30" y="52" as="sourcePoint" />
            <mxPoint x="6" y="-110" as="targetPoint" />
          </mxGeometry>
        </mxCell>
        <mxCell id="_JjsHGZuqhBBGKbj4It--49" value="" style="shape=image;verticalLabelPosition=bottom;verticalAlign=top;imageAspect=0;aspect=fixed;image=data:image/svg+xml,PHN2ZyB4bWxucz0iaHR0cDovL3d3dy53My5vcmcvMjAwMC9zdmciIHZlcnNpb249IjEiIHZpZXdCb3g9IjAgMCA0OCA0OCIgZW5hYmxlLWJhY2tncm91bmQ9Im5ldyAwIDAgNDggNDgiPiYjeGE7ICAgIDxwYXRoIGZpbGw9IiNDRkQ4REMiIGQ9Ik01LDM4VjE0aDM4djI0YzAsMi4yLTEuOCw0LTQsNEg5QzYuOCw0Miw1LDQwLjIsNSwzOHoiLz4mI3hhOyAgICA8cGF0aCBmaWxsPSIjRjQ0MzM2IiBkPSJNNDMsMTB2Nkg1di02YzAtMi4yLDEuOC00LDQtNGgzMEM0MS4yLDYsNDMsNy44LDQzLDEweiIvPiYjeGE7ICAgIDxnIGZpbGw9IiNCNzFDMUMiPiYjeGE7ICAgICAgICA8Y2lyY2xlIGN4PSIzMyIgY3k9IjEwIiByPSIzIi8+JiN4YTsgICAgICAgIDxjaXJjbGUgY3g9IjE1IiBjeT0iMTAiIHI9IjMiLz4mI3hhOyAgICA8L2c+JiN4YTsgICAgPGcgZmlsbD0iI0IwQkVDNSI+JiN4YTsgICAgICAgIDxwYXRoIGQ9Ik0zMywzYy0xLjEsMC0yLDAuOS0yLDJ2NWMwLDEuMSwwLjksMiwyLDJzMi0wLjksMi0yVjVDMzUsMy45LDM0LjEsMywzMywzeiIvPiYjeGE7ICAgICAgICA8cGF0aCBkPSJNMTUsM2MtMS4xLDAtMiwwLjktMiwydjVjMCwxLjEsMC45LDIsMiwyczItMC45LDItMlY1QzE3LDMuOSwxNi4xLDMsMTUsM3oiLz4mI3hhOyAgICA8L2c+JiN4YTsgICAgPGcgZmlsbD0iI0IwQkVDNSI+JiN4YTsgICAgICAgIDxyZWN0IHg9IjEzIiB5PSIyMSIgd2lkdGg9IjYiIGhlaWdodD0iNiIvPiYjeGE7ICAgICAgICA8cmVjdCB4PSIyMSIgeT0iMjEiIHdpZHRoPSI2IiBoZWlnaHQ9IjYiLz4mI3hhOyAgICAgICAgPHJlY3QgeD0iMjkiIHk9IjIxIiB3aWR0aD0iNiIgaGVpZ2h0PSI2Ii8+JiN4YTsgICAgICAgIDxyZWN0IHg9IjEzIiB5PSIyOSIgd2lkdGg9IjYiIGhlaWdodD0iNiIvPiYjeGE7ICAgICAgICA8cmVjdCB4PSIyMSIgeT0iMjkiIHdpZHRoPSI2IiBoZWlnaHQ9IjYiLz4mI3hhOyAgICA8L2c+JiN4YTsgICAgPHJlY3QgeD0iMjkiIHk9IjI5IiBmaWxsPSIjRjQ0MzM2IiB3aWR0aD0iNiIgaGVpZ2h0PSI2Ii8+JiN4YTs8L3N2Zz4=;labelBackgroundColor=#ffffff;" parent="1" vertex="1">
          <mxGeometry x="239" y="-72" width="48" height="48" as="geometry" />
        </mxCell>
        <mxCell id="_JjsHGZuqhBBGKbj4It--51" value="" style="shape=image;verticalLabelPosition=bottom;verticalAlign=top;imageAspect=0;aspect=fixed;image=data:image/svg+xml,PHN2ZyB4bWxucz0iaHR0cDovL3d3dy53My5vcmcvMjAwMC9zdmciIHZlcnNpb249IjEiIHZpZXdCb3g9IjAgMCA0OCA0OCIgZW5hYmxlLWJhY2tncm91bmQ9Im5ldyAwIDAgNDggNDgiPiYjeGE7ICAgIDxwYXRoIGZpbGw9IiM3ODkwOUMiIGQ9Ik00MCw0MUg4Yy0yLjIsMC00LTEuOC00LTRsMC0yMC45YzAtMS4zLDAuNi0yLjUsMS43LTMuM0wyNCwwbDE4LjMsMTIuOGMxLjEsMC43LDEuNywyLDEuNywzLjNWMzcgQzQ0LDM5LjIsNDIuMiw0MSw0MCw0MXoiLz4mI3hhOyAgICA8cmVjdCB4PSIxMiIgeT0iMTEiIGZpbGw9IiNmZmYiIHdpZHRoPSIyNCIgaGVpZ2h0PSIyMiIvPiYjeGE7ICAgIDxwb2x5Z29uIGZpbGw9IiM5QzI3QjAiIHBvaW50cz0iMjQsMTMuNiAxOCwyMS40IDMwLDIxLjQiLz4mI3hhOyAgICA8cGF0aCBmaWxsPSIjQ0ZEOERDIiBkPSJNNDAsNDFIOGMtMi4yLDAtNC0xLjgtNC00bDAtMjBsMjAsMTNsMjAtMTN2MjBDNDQsMzkuMiw0Mi4yLDQxLDQwLDQxeiIvPiYjeGE7ICAgIDxwb2x5Z29uIGZpbGw9IiM5QzI3QjAiIHBvaW50cz0iMjQsMjggMjYsMjYuNyAyNiwyMCAyMiwyMCAyMiwyNi43Ii8+JiN4YTs8L3N2Zz4=;labelBackgroundColor=#ffffff;" parent="1" vertex="1">
          <mxGeometry x="-299.5" y="-157.5" width="47" height="47" as="geometry" />
        </mxCell>
        <mxCell id="_JjsHGZuqhBBGKbj4It--53" value="" style="shape=image;verticalLabelPosition=bottom;verticalAlign=top;imageAspect=0;aspect=fixed;image=data:image/svg+xml,PHN2ZyB4bWxucz0iaHR0cDovL3d3dy53My5vcmcvMjAwMC9zdmciIHZlcnNpb249IjEiIHZpZXdCb3g9IjAgMCA0OCA0OCIgZW5hYmxlLWJhY2tncm91bmQ9Im5ldyAwIDAgNDggNDgiPiYjeGE7ICAgIDxwYXRoIGZpbGw9IiM0MjQyNDIiIGQ9Ik0yNCw0Yy01LjUsMC0xMCw0LjUtMTAsMTB2NGg0di00YzAtMy4zLDIuNy02LDYtNnM2LDIuNyw2LDZ2NGg0di00QzM0LDguNSwyOS41LDQsMjQsNHoiLz4mI3hhOyAgICA8cGF0aCBmaWxsPSIjRkI4QzAwIiBkPSJNMzYsNDRIMTJjLTIuMiwwLTQtMS44LTQtNFYyMmMwLTIuMiwxLjgtNCw0LTRoMjRjMi4yLDAsNCwxLjgsNCw0djE4QzQwLDQyLjIsMzguMiw0NCwzNiw0NHoiLz4mI3hhOyAgICA8Y2lyY2xlIGZpbGw9IiNDNzZFMDAiIGN4PSIyNCIgY3k9IjMxIiByPSIzIi8+JiN4YTs8L3N2Zz4=;labelBackgroundColor=#ffffff;" parent="1" vertex="1">
          <mxGeometry x="1420" y="-200.5" width="48" height="48" as="geometry" />
        </mxCell>
        <mxCell id="_JjsHGZuqhBBGKbj4It--54" value="" style="shape=image;verticalLabelPosition=bottom;verticalAlign=top;imageAspect=0;aspect=fixed;image=data:image/svg+xml,PHN2ZyB4bWxucz0iaHR0cDovL3d3dy53My5vcmcvMjAwMC9zdmciIHZlcnNpb249IjEiIHZpZXdCb3g9IjAgMCA0OCA0OCIgZW5hYmxlLWJhY2tncm91bmQ9Im5ldyAwIDAgNDggNDgiPiYjeGE7ICAgIDxwYXRoIGZpbGw9IiM0MjQyNDIiIGQ9Ik0yNCw0Yy01LjUsMC0xMCw0LjUtMTAsMTB2NGg0di00YzAtMy4zLDIuNy02LDYtNnM2LDIuNyw2LDZ2NGg0di00QzM0LDguNSwyOS41LDQsMjQsNHoiLz4mI3hhOyAgICA8cGF0aCBmaWxsPSIjRkI4QzAwIiBkPSJNMzYsNDRIMTJjLTIuMiwwLTQtMS44LTQtNFYyMmMwLTIuMiwxLjgtNCw0LTRoMjRjMi4yLDAsNCwxLjgsNCw0djE4QzQwLDQyLjIsMzguMiw0NCwzNiw0NHoiLz4mI3hhOyAgICA8Y2lyY2xlIGZpbGw9IiNDNzZFMDAiIGN4PSIyNCIgY3k9IjMxIiByPSIzIi8+JiN4YTs8L3N2Zz4=;labelBackgroundColor=#ffffff;" parent="1" vertex="1">
          <mxGeometry x="358" y="-170" width="48" height="48" as="geometry" />
        </mxCell>
        <mxCell id="_JjsHGZuqhBBGKbj4It--55" value="" style="shape=image;verticalLabelPosition=bottom;verticalAlign=top;imageAspect=0;aspect=fixed;image=data:image/svg+xml,PHN2ZyB4bWxucz0iaHR0cDovL3d3dy53My5vcmcvMjAwMC9zdmciIHZlcnNpb249IjEiIHZpZXdCb3g9IjAgMCA0OCA0OCIgZW5hYmxlLWJhY2tncm91bmQ9Im5ldyAwIDAgNDggNDgiPiYjeGE7ICAgIDxwYXRoIGZpbGw9IiNDRkQ4REMiIGQ9Ik01LDM4VjE0aDM4djI0YzAsMi4yLTEuOCw0LTQsNEg5QzYuOCw0Miw1LDQwLjIsNSwzOHoiLz4mI3hhOyAgICA8cGF0aCBmaWxsPSIjRjQ0MzM2IiBkPSJNNDMsMTB2Nkg1di02YzAtMi4yLDEuOC00LDQtNGgzMEM0MS4yLDYsNDMsNy44LDQzLDEweiIvPiYjeGE7ICAgIDxnIGZpbGw9IiNCNzFDMUMiPiYjeGE7ICAgICAgICA8Y2lyY2xlIGN4PSIzMyIgY3k9IjEwIiByPSIzIi8+JiN4YTsgICAgICAgIDxjaXJjbGUgY3g9IjE1IiBjeT0iMTAiIHI9IjMiLz4mI3hhOyAgICA8L2c+JiN4YTsgICAgPGcgZmlsbD0iI0IwQkVDNSI+JiN4YTsgICAgICAgIDxwYXRoIGQ9Ik0zMywzYy0xLjEsMC0yLDAuOS0yLDJ2NWMwLDEuMSwwLjksMiwyLDJzMi0wLjksMi0yVjVDMzUsMy45LDM0LjEsMywzMywzeiIvPiYjeGE7ICAgICAgICA8cGF0aCBkPSJNMTUsM2MtMS4xLDAtMiwwLjktMiwydjVjMCwxLjEsMC45LDIsMiwyczItMC45LDItMlY1QzE3LDMuOSwxNi4xLDMsMTUsM3oiLz4mI3hhOyAgICA8L2c+JiN4YTsgICAgPGcgZmlsbD0iI0IwQkVDNSI+JiN4YTsgICAgICAgIDxyZWN0IHg9IjEzIiB5PSIyMSIgd2lkdGg9IjYiIGhlaWdodD0iNiIvPiYjeGE7ICAgICAgICA8cmVjdCB4PSIyMSIgeT0iMjEiIHdpZHRoPSI2IiBoZWlnaHQ9IjYiLz4mI3hhOyAgICAgICAgPHJlY3QgeD0iMjkiIHk9IjIxIiB3aWR0aD0iNiIgaGVpZ2h0PSI2Ii8+JiN4YTsgICAgICAgIDxyZWN0IHg9IjEzIiB5PSIyOSIgd2lkdGg9IjYiIGhlaWdodD0iNiIvPiYjeGE7ICAgICAgICA8cmVjdCB4PSIyMSIgeT0iMjkiIHdpZHRoPSI2IiBoZWlnaHQ9IjYiLz4mI3hhOyAgICA8L2c+JiN4YTsgICAgPHJlY3QgeD0iMjkiIHk9IjI5IiBmaWxsPSIjRjQ0MzM2IiB3aWR0aD0iNiIgaGVpZ2h0PSI2Ii8+JiN4YTs8L3N2Zz4=;labelBackgroundColor=#ffffff;" parent="1" vertex="1">
          <mxGeometry x="1319" y="-99.5" width="48" height="48" as="geometry" />
        </mxCell>
        <mxCell id="_JjsHGZuqhBBGKbj4It--56" value="" style="shape=image;verticalLabelPosition=bottom;verticalAlign=top;imageAspect=0;aspect=fixed;image=data:image/svg+xml,PHN2ZyB4bWxucz0iaHR0cDovL3d3dy53My5vcmcvMjAwMC9zdmciIHZlcnNpb249IjEiIHZpZXdCb3g9IjAgMCA0OCA0OCIgZW5hYmxlLWJhY2tncm91bmQ9Im5ldyAwIDAgNDggNDgiPiYjeGE7ICAgIDxwYXRoIGZpbGw9IiM3ODkwOUMiIGQ9Ik00MCw0MUg4Yy0yLjIsMC00LTEuOC00LTRsMC0yMC45YzAtMS4zLDAuNi0yLjUsMS43LTMuM0wyNCwwbDE4LjMsMTIuOGMxLjEsMC43LDEuNywyLDEuNywzLjNWMzcgQzQ0LDM5LjIsNDIuMiw0MSw0MCw0MXoiLz4mI3hhOyAgICA8cmVjdCB4PSIxMiIgeT0iMTEiIGZpbGw9IiNmZmYiIHdpZHRoPSIyNCIgaGVpZ2h0PSIyMiIvPiYjeGE7ICAgIDxwb2x5Z29uIGZpbGw9IiM5QzI3QjAiIHBvaW50cz0iMjQsMTMuNiAxOCwyMS40IDMwLDIxLjQiLz4mI3hhOyAgICA8cGF0aCBmaWxsPSIjQ0ZEOERDIiBkPSJNNDAsNDFIOGMtMi4yLDAtNC0xLjgtNC00bDAtMjBsMjAsMTNsMjAtMTN2MjBDNDQsMzkuMiw0Mi4yLDQxLDQwLDQxeiIvPiYjeGE7ICAgIDxwb2x5Z29uIGZpbGw9IiM5QzI3QjAiIHBvaW50cz0iMjQsMjggMjYsMjYuNyAyNiwyMCAyMiwyMCAyMiwyNi43Ii8+JiN4YTs8L3N2Zz4=;labelBackgroundColor=#ffffff;" parent="1" vertex="1">
          <mxGeometry x="850" y="-263.5" width="48" height="48" as="geometry" />
        </mxCell>
        <mxCell id="_JjsHGZuqhBBGKbj4It--81" value="&lt;span style=&quot;color: rgba(0, 0, 0, 0); font-family: monospace; font-size: 0px; text-align: start;&quot;&gt;%3CmxGraphModel%3E%3Croot%3E%3CmxCell%20id%3D%220%22%2F%3E%3CmxCell%20id%3D%221%22%20parent%3D%220%22%2F%3E%3CmxCell%20id%3D%222%22%20value%3D%22Parties%22%20style%3D%22shape%3Dimage%3BverticalLabelPosition%3Dbottom%3BverticalAlign%3Dtop%3BimageAspect%3D0%3Baspect%3Dfixed%3Bimage%3Ddata%3Aimage%2Fsvg%2Bxml%2CPHN2ZyB4bWxucz0iaHR0cDovL3d3dy53My5vcmcvMjAwMC9zdmciIHZlcnNpb249IjEiIHZpZXdCb3g9IjAgMCA0OCA0OCIgZW5hYmxlLWJhY2tncm91bmQ9Im5ldyAwIDAgNDggNDgiPiYjeGE7ICAgIDxwb2x5Z29uIGZpbGw9IiNGRjk4MDAiIHBvaW50cz0iMjQsMzcgMTksMzEgMTksMjUgMjksMjUgMjksMzEiLz4mI3hhOyAgICA8ZyBmaWxsPSIjRkZBNzI2Ij4mI3hhOyAgICAgICAgPGNpcmNsZSBjeD0iMzMiIGN5PSIxOSIgcj0iMiIvPiYjeGE7ICAgICAgICA8Y2lyY2xlIGN4PSIxNSIgY3k9IjE5IiByPSIyIi8%2BJiN4YTsgICAgPC9nPiYjeGE7ICAgIDxwYXRoIGZpbGw9IiNGRkI3NEQiIGQ9Ik0zMywxM2MwLTcuNi0xOC01LTE4LDBjMCwxLjEsMCw1LjksMCw3YzAsNSw0LDksOSw5czktNCw5LTlDMzMsMTguOSwzMywxNC4xLDMzLDEzeiIvPiYjeGE7ICAgIDxwYXRoIGZpbGw9IiM0MjQyNDIiIGQ9Ik0yNCw0Yy02LjEsMC0xMCw0LjktMTAsMTFjMCwwLjgsMCwyLjMsMCwyLjNsMiwxLjd2LTVsMTItNGw0LDR2NWwyLTEuN2MwLDAsMC0xLjUsMC0yLjNjMC00LTEtOC02LTlsLTEtMiBIMjR6Ii8%2BJiN4YTsgICAgPGcgZmlsbD0iIzc4NDcxOSI%2BJiN4YTsgICAgICAgIDxjaXJjbGUgY3g9IjI4IiBjeT0iMTkiIHI9IjEiLz4mI3hhOyAgICAgICAgPGNpcmNsZSBjeD0iMjAiIGN5PSIxOSIgcj0iMSIvPiYjeGE7ICAgIDwvZz4mI3hhOyAgICA8cG9seWdvbiBmaWxsPSIjZmZmIiBwb2ludHM9IjI0LDQzIDE5LDMxIDI0LDMyIDI5LDMxIi8%2BJiN4YTsgICAgPHBvbHlnb24gZmlsbD0iI0QzMkYyRiIgcG9pbnRzPSIyMywzNSAyMi4zLDM5LjUgMjQsNDMuNSAyNS43LDM5LjUgMjUsMzUgMjYsMzQgMjQsMzIgMjIsMzQiLz4mI3hhOyAgICA8cGF0aCBmaWxsPSIjNTQ2RTdBIiBkPSJNMjksMzFMMjksMzFsLTUsMTJsLTUtMTJjMCwwLTExLDItMTEsMTNoMzJDNDAsMzMsMjksMzEsMjksMzF6Ii8%2BJiN4YTs8L3N2Zz4%3D%3BlabelBackgroundColor%3D%23ffffff%3B%22%20vertex%3D%221%22%20parent%3D%221%22%3E%3CmxGeometry%20x%3D%22-470%22%20y%3D%22-350%22%20width%3D%2248%22%20height%3D%2248%22%20as%3D%22geometry%22%2F%3E%3C%2FmxCell%3E%3CmxCell%20id%3D%223%22%20value%3D%22Manage%20Candidate%22%20style%3D%22ellipse%3BwhiteSpace%3Dwrap%3Bhtml%3D1%3B%22%20vertex%3D%221%22%20parent%3D%221%22%3E%3CmxGeometry%20x%3D%22-350%22%20y%3D%22-170%22%20width%3D%22120%22%20height%3D%2280%22%20as%3D%22geometry%22%2F%3E%3C%2FmxCell%3E%3CmxCell%20id%3D%224%22%20value%3D%22Edit%20Profile%22%20style%3D%22ellipse%3BwhiteSpace%3Dwrap%3Bhtml%3D1%3B%22%20vertex%3D%221%22%20parent%3D%221%22%3E%3CmxGeometry%20x%3D%22-242%22%20y%3D%22-260%22%20width%3D%22120%22%20height%3D%2280%22%20as%3D%22geometry%22%2F%3E%3C%2FmxCell%3E%3CmxCell%20id%3D%225%22%20value%3D%22Login%22%20style%3D%22ellipse%3BwhiteSpace%3Dwrap%3Bhtml%3D1%3B%22%20vertex%3D%221%22%20parent%3D%221%22%3E%3CmxGeometry%20x%3D%22-246%22%20y%3D%22-382%22%20width%3D%22120%22%20height%3D%2280%22%20as%3D%22geometry%22%2F%3E%3C%2FmxCell%3E%3CmxCell%20id%3D%226%22%20value%3D%22Registration%22%20style%3D%22ellipse%3BwhiteSpace%3Dwrap%3Bhtml%3D1%3B%22%20vertex%3D%221%22%20parent%3D%221%22%3E%3CmxGeometry%20x%3D%22-294%22%20y%3D%22-480%22%20width%3D%22120%22%20height%3D%2280%22%20as%3D%22geometry%22%2F%3E%3C%2FmxCell%3E%3CmxCell%20id%3D%227%22%20value%3D%22%22%20style%3D%22endArrow%3Dnone%3Bhtml%3D1%3Brounded%3D0%3BexitX%3D1%3BexitY%3D0.5%3BexitDx%3D0%3BexitDy%3D0%3BentryX%3D0.097%3BentryY%3D0.855%3BentryDx%3D0%3BentryDy%3D0%3BentryPerimeter%3D0%3B%22%20edge%3D%221%22%20source%3D%222%22%20target%3D%226%22%20parent%3D%221%22%3E%3CmxGeometry%20width%3D%2250%22%20height%3D%2250%22%20relative%3D%221%22%20as%3D%22geometry%22%3E%3CmxPoint%20x%3D%22-80%22%20y%3D%22-160%22%20as%3D%22sourcePoint%22%2F%3E%3CmxPoint%20x%3D%22-30%22%20y%3D%22-210%22%20as%3D%22targetPoint%22%2F%3E%3C%2FmxGeometry%3E%3C%2FmxCell%3E%3CmxCell%20id%3D%228%22%20value%3D%22%22%20style%3D%22endArrow%3Dnone%3Bhtml%3D1%3Brounded%3D0%3BexitX%3D1%3BexitY%3D0.5%3BexitDx%3D0%3BexitDy%3D0%3BentryX%3D0%3BentryY%3D0.5%3BentryDx%3D0%3BentryDy%3D0%3B%22%20edge%3D%221%22%20source%3D%222%22%20target%3D%225%22%20parent%3D%221%22%3E%3CmxGeometry%20width%3D%2250%22%20height%3D%2250%22%20relative%3D%221%22%20as%3D%22geometry%22%3E%3CmxPoint%20x%3D%22-412%22%20y%3D%22-316%22%20as%3D%22sourcePoint%22%2F%3E%3CmxPoint%20x%3D%22-272%22%20y%3D%22-402%22%20as%3D%22targetPoint%22%2F%3E%3C%2FmxGeometry%3E%3C%2FmxCell%3E%3CmxCell%20id%3D%229%22%20value%3D%22%22%20style%3D%22endArrow%3Dnone%3Bhtml%3D1%3Brounded%3D0%3BexitX%3D1%3BexitY%3D0.75%3BexitDx%3D0%3BexitDy%3D0%3BentryX%3D0.1%3BentryY%3D0.125%3BentryDx%3D0%3BentryDy%3D0%3BentryPerimeter%3D0%3B%22%20edge%3D%221%22%20source%3D%222%22%20target%3D%224%22%20parent%3D%221%22%3E%3CmxGeometry%20width%3D%2250%22%20height%3D%2250%22%20relative%3D%221%22%20as%3D%22geometry%22%3E%3CmxPoint%20x%3D%22-402%22%20y%3D%22-306%22%20as%3D%22sourcePoint%22%2F%3E%3CmxPoint%20x%3D%22-262%22%20y%3D%22-392%22%20as%3D%22targetPoint%22%2F%3E%3C%2FmxGeometry%3E%3C%2FmxCell%3E%3CmxCell%20id%3D%2210%22%20value%3D%22%22%20style%3D%22endArrow%3Dnone%3Bhtml%3D1%3Brounded%3D0%3BexitX%3D1%3BexitY%3D0.75%3BexitDx%3D0%3BexitDy%3D0%3BentryX%3D0%3BentryY%3D0%3BentryDx%3D0%3BentryDy%3D0%3B%22%20edge%3D%221%22%20source%3D%222%22%20target%3D%223%22%20parent%3D%221%22%3E%3CmxGeometry%20width%3D%2250%22%20height%3D%2250%22%20relative%3D%221%22%20as%3D%22geometry%22%3E%3CmxPoint%20x%3D%22-392%22%20y%3D%22-296%22%20as%3D%22sourcePoint%22%2F%3E%3CmxPoint%20x%3D%22-252%22%20y%3D%22-382%22%20as%3D%22targetPoint%22%2F%3E%3C%2FmxGeometry%3E%3C%2FmxCell%3E%3CmxCell%20id%3D%2211%22%20value%3D%22Election%20result%22%20style%3D%22ellipse%3BwhiteSpace%3Dwrap%3Bhtml%3D1%3B%22%20vertex%3D%221%22%20parent%3D%221%22%3E%3CmxGeometry%20x%3D%22334%22%20y%3D%22-100%22%20width%3D%22120%22%20height%3D%2280%22%20as%3D%22geometry%22%2F%3E%3C%2FmxCell%3E%3CmxCell%20id%3D%2212%22%20value%3D%22View%20Election%20Date%22%20style%3D%22ellipse%3BwhiteSpace%3Dwrap%3Bhtml%3D1%3B%22%20vertex%3D%221%22%20parent%3D%221%22%3E%3CmxGeometry%20x%3D%22454%22%20y%3D%22-190%22%20width%3D%22120%22%20height%3D%2280%22%20as%3D%22geometry%22%2F%3E%3C%2FmxCell%3E%3CmxCell%20id%3D%2213%22%20value%3D%22Search%20Electoral%20Role%22%20style%3D%22ellipse%3BwhiteSpace%3Dwrap%3Bhtml%3D1%3B%22%20vertex%3D%221%22%20parent%3D%221%22%3E%3CmxGeometry%20x%3D%22454%22%20y%3D%22-320%22%20width%3D%22120%22%20height%3D%2280%22%20as%3D%22geometry%22%2F%3E%3C%2FmxCell%3E%3CmxCell%20id%3D%2214%22%20value%3D%22Know%20All%20Candidates%22%20style%3D%22ellipse%3BwhiteSpace%3Dwrap%3Bhtml%3D1%3B%22%20vertex%3D%221%22%20parent%3D%221%22%3E%3CmxGeometry%20x%3D%22380%22%20y%3D%22-433%22%20width%3D%22120%22%20height%3D%2280%22%20as%3D%22geometry%22%2F%3E%3C%2FmxCell%3E%3CmxCell%20id%3D%2215%22%20value%3D%22%22%20style%3D%22endArrow%3Dnone%3Bhtml%3D1%3Brounded%3D0%3BexitX%3D1%3BexitY%3D0.5%3BexitDx%3D0%3BexitDy%3D0%3BentryX%3D0.097%3BentryY%3D0.855%3BentryDx%3D0%3BentryDy%3D0%3BentryPerimeter%3D0%3B%22%20edge%3D%221%22%20target%3D%2214%22%20parent%3D%221%22%3E%3CmxGeometry%20width%3D%2250%22%20height%3D%2250%22%20relative%3D%221%22%20as%3D%22geometry%22%3E%3CmxPoint%20x%3D%22274%22%20y%3D%22-256%22%20as%3D%22sourcePoint%22%2F%3E%3CmxPoint%20x%3D%22666%22%20y%3D%22-140%22%20as%3D%22targetPoint%22%2F%3E%3C%2FmxGeometry%3E%3C%2FmxCell%3E%3CmxCell%20id%3D%2216%22%20value%3D%22%22%20style%3D%22endArrow%3Dnone%3Bhtml%3D1%3Brounded%3D0%3BexitX%3D1%3BexitY%3D0.5%3BexitDx%3D0%3BexitDy%3D0%3BentryX%3D0%3BentryY%3D0.5%3BentryDx%3D0%3BentryDy%3D0%3B%22%20edge%3D%221%22%20target%3D%2213%22%20parent%3D%221%22%3E%3CmxGeometry%20width%3D%2250%22%20height%3D%2250%22%20relative%3D%221%22%20as%3D%22geometry%22%3E%3CmxPoint%20x%3D%22274%22%20y%3D%22-256%22%20as%3D%22sourcePoint%22%2F%3E%3CmxPoint%20x%3D%22424%22%20y%3D%22-332%22%20as%3D%22targetPoint%22%2F%3E%3C%2FmxGeometry%3E%3C%2FmxCell%3E%3CmxCell%20id%3D%2217%22%20value%3D%22%22%20style%3D%22endArrow%3Dnone%3Bhtml%3D1%3Brounded%3D0%3BexitX%3D1%3BexitY%3D0.75%3BexitDx%3D0%3BexitDy%3D0%3BentryX%3D0.1%3BentryY%3D0.125%3BentryDx%3D0%3BentryDy%3D0%3BentryPerimeter%3D0%3B%22%20edge%3D%221%22%20target%3D%2212%22%20parent%3D%221%22%3E%3CmxGeometry%20width%3D%2250%22%20height%3D%2250%22%20relative%3D%221%22%20as%3D%22geometry%22%3E%3CmxPoint%20x%3D%22274%22%20y%3D%22-244%22%20as%3D%22sourcePoint%22%2F%3E%3CmxPoint%20x%3D%22434%22%20y%3D%22-322%22%20as%3D%22targetPoint%22%2F%3E%3C%2FmxGeometry%3E%3C%2FmxCell%3E%3CmxCell%20id%3D%2218%22%20value%3D%22%22%20style%3D%22endArrow%3Dnone%3Bhtml%3D1%3Brounded%3D0%3BexitX%3D1%3BexitY%3D0.75%3BexitDx%3D0%3BexitDy%3D0%3BentryX%3D0%3BentryY%3D0%3BentryDx%3D0%3BentryDy%3D0%3B%22%20edge%3D%221%22%20target%3D%2211%22%20parent%3D%221%22%3E%3CmxGeometry%20width%3D%2250%22%20height%3D%2250%22%20relative%3D%221%22%20as%3D%22geometry%22%3E%3CmxPoint%20x%3D%22274%22%20y%3D%22-244%22%20as%3D%22sourcePoint%22%2F%3E%3CmxPoint%20x%3D%22444%22%20y%3D%22-312%22%20as%3D%22targetPoint%22%2F%3E%3C%2FmxGeometry%3E%3C%2FmxCell%3E%3CmxCell%20id%3D%2219%22%20value%3D%22User%20Without%20Account%22%20style%3D%22shape%3Dimage%3BverticalLabelPosition%3Dbottom%3BverticalAlign%3Dtop%3BimageAspect%3D0%3Baspect%3Dfixed%3Bimage%3Ddata%3Aimage%2Fsvg%2Bxml%2CPHN2ZyB4bWxucz0iaHR0cDovL3d3dy53My5vcmcvMjAwMC9zdmciIHZlcnNpb249IjEiIHZpZXdCb3g9IjAgMCA0OCA0OCIgZW5hYmxlLWJhY2tncm91bmQ9Im5ldyAwIDAgNDggNDgiPiYjeGE7ICAgIDxwb2x5Z29uIGZpbGw9IiNGRjk4MDAiIHBvaW50cz0iMjQsMzcgMTksMzEgMTksMjUgMjksMjUgMjksMzEiLz4mI3hhOyAgICA8ZyBmaWxsPSIjRkZBNzI2Ij4mI3hhOyAgICAgICAgPGNpcmNsZSBjeD0iMzMiIGN5PSIxOSIgcj0iMiIvPiYjeGE7ICAgICAgICA8Y2lyY2xlIGN4PSIxNSIgY3k9IjE5IiByPSIyIi8%2BJiN4YTsgICAgPC9nPiYjeGE7ICAgIDxwYXRoIGZpbGw9IiNGRkI3NEQiIGQ9Ik0zMywxM2MwLTcuNi0xOC01LTE4LDBjMCwxLjEsMCw1LjksMCw3YzAsNSw0LDksOSw5czktNCw5LTlDMzMsMTguOSwzMywxNC4xLDMzLDEzeiIvPiYjeGE7ICAgIDxwYXRoIGZpbGw9IiM0MjQyNDIiIGQ9Ik0yNCw0Yy02LjEsMC0xMCw0LjktMTAsMTFjMCwwLjgsMCwyLjMsMCwyLjNsMiwxLjd2LTVsMTItNGw0LDR2NWwyLTEuN2MwLDAsMC0xLjUsMC0yLjNjMC00LTEtOC02LTlsLTEtMiBIMjR6Ii8%2BJiN4YTsgICAgPGcgZmlsbD0iIzc4NDcxOSI%2BJiN4YTsgICAgICAgIDxjaXJjbGUgY3g9IjI4IiBjeT0iMTkiIHI9IjEiLz4mI3hhOyAgICAgICAgPGNpcmNsZSBjeD0iMjAiIGN5PSIxOSIgcj0iMSIvPiYjeGE7ICAgIDwvZz4mI3hhOyAgICA8cG9seWdvbiBmaWxsPSIjZmZmIiBwb2ludHM9IjI0LDQzIDE5LDMxIDI0LDMyIDI5LDMxIi8%2BJiN4YTsgICAgPHBvbHlnb24gZmlsbD0iI0QzMkYyRiIgcG9pbnRzPSIyMywzNSAyMi4zLDM5LjUgMjQsNDMuNSAyNS43LDM5LjUgMjUsMzUgMjYsMzQgMjQsMzIgMjIsMzQiLz4mI3hhOyAgICA8cGF0aCBmaWxsPSIjNTQ2RTdBIiBkPSJNMjksMzFMMjksMzFsLTUsMTJsLTUtMTJjMCwwLTExLDItMTEsMTNoMzJDNDAsMzMsMjksMzEsMjksMzF6Ii8%2BJiN4YTs8L3N2Zz4%3D%3BlabelBackgroundColor%3D%23ffffff%3B%22%20vertex%3D%221%22%20parent%3D%221%22%3E%3CmxGeometry%20x%3D%22188%22%20y%3D%22-290%22%20width%3D%2280%22%20height%3D%2280%22%20as%3D%22geometry%22%2F%3E%3C%2FmxCell%3E%3CmxCell%20id%3D%2220%22%20value%3D%22Voters%20Guide%22%20style%3D%22ellipse%3BwhiteSpace%3Dwrap%3Bhtml%3D1%3B%22%20vertex%3D%221%22%20parent%3D%221%22%3E%3CmxGeometry%20x%3D%22175%22%20y%3D%22-470%22%20width%3D%22120%22%20height%3D%2280%22%20as%3D%22geometry%22%2F%3E%3C%2FmxCell%3E%3CmxCell%20id%3D%2221%22%20value%3D%22Candidate%20Guide%22%20style%3D%22ellipse%3BwhiteSpace%3Dwrap%3Bhtml%3D1%3Bdirection%3Deast%3B%22%20vertex%3D%221%22%20parent%3D%221%22%3E%3CmxGeometry%20x%3D%22-30%22%20y%3D%22-410%22%20width%3D%22120%22%20height%3D%2280%22%20as%3D%22geometry%22%2F%3E%3C%2FmxCell%3E%3CmxCell%20id%3D%2222%22%20value%3D%22Party%20Guide%22%20style%3D%22ellipse%3BwhiteSpace%3Dwrap%3Bhtml%3D1%3B%22%20vertex%3D%221%22%20parent%3D%221%22%3E%3CmxGeometry%20x%3D%22-40%22%20y%3D%22-250%22%20width%3D%22120%22%20height%3D%2280%22%20as%3D%22geometry%22%2F%3E%3C%2FmxCell%3E%3CmxCell%20id%3D%2223%22%20value%3D%22%22%20style%3D%22endArrow%3Dnone%3Bhtml%3D1%3Brounded%3D0%3BentryX%3D1%3BentryY%3D0.5%3BentryDx%3D0%3BentryDy%3D0%3BexitX%3D-0.058%3BexitY%3D0.875%3BexitDx%3D0%3BexitDy%3D0%3BexitPerimeter%3D0%3B%22%20edge%3D%221%22%20source%3D%2219%22%20target%3D%2222%22%20parent%3D%221%22%3E%3CmxGeometry%20width%3D%2250%22%20height%3D%2250%22%20relative%3D%221%22%20as%3D%22geometry%22%3E%3CmxPoint%20x%3D%22218%22%20y%3D%22-226%22%20as%3D%22sourcePoint%22%2F%3E%3CmxPoint%20x%3D%22308%22%20y%3D%22-70%22%20as%3D%22targetPoint%22%2F%3E%3CArray%20as%3D%22points%22%2F%3E%3C%2FmxGeometry%3E%3C%2FmxCell%3E%3CmxCell%20id%3D%2224%22%20value%3D%22%22%20style%3D%22endArrow%3Dnone%3Bhtml%3D1%3Brounded%3D0%3BentryX%3D0.5%3BentryY%3D1%3BentryDx%3D0%3BentryDy%3D0%3BexitX%3D0.5%3BexitY%3D0%3BexitDx%3D0%3BexitDy%3D0%3B%22%20edge%3D%221%22%20source%3D%2219%22%20target%3D%2220%22%20parent%3D%221%22%3E%3CmxGeometry%20width%3D%2250%22%20height%3D%2250%22%20relative%3D%221%22%20as%3D%22geometry%22%3E%3CmxPoint%20x%3D%22242%22%20y%3D%22-200%22%20as%3D%22sourcePoint%22%2F%3E%3CmxPoint%20x%3D%22258%22%20y%3D%22-60%22%20as%3D%22targetPoint%22%2F%3E%3C%2FmxGeometry%3E%3C%2FmxCell%3E%3CmxCell%20id%3D%2225%22%20value%3D%22%22%20style%3D%22endArrow%3Dnone%3Bhtml%3D1%3Brounded%3D0%3BentryX%3D0.992%3BentryY%3D0.615%3BentryDx%3D0%3BentryDy%3D0%3BexitX%3D0%3BexitY%3D0%3BexitDx%3D0%3BexitDy%3D0%3BentryPerimeter%3D0%3B%22%20edge%3D%221%22%20source%3D%2219%22%20target%3D%2221%22%20parent%3D%221%22%3E%3CmxGeometry%20width%3D%2250%22%20height%3D%2250%22%20relative%3D%221%22%20as%3D%22geometry%22%3E%3CmxPoint%20x%3D%22238%22%20y%3D%22-280%22%20as%3D%22sourcePoint%22%2F%3E%3CmxPoint%20x%3D%22245%22%20y%3D%22-380%22%20as%3D%22targetPoint%22%2F%3E%3C%2FmxGeometry%3E%3C%2FmxCell%3E%3C%2Froot%3E%3C%2FmxGraphModel%3E&lt;/span&gt;&lt;span style=&quot;color: rgba(0, 0, 0, 0); font-family: monospace; font-size: 0px; text-align: start;&quot;&gt;%3CmxGraphModel%3E%3Croot%3E%3CmxCell%20id%3D%220%22%2F%3E%3CmxCell%20id%3D%221%22%20parent%3D%220%22%2F%3E%3CmxCell%20id%3D%222%22%20value%3D%22Parties%22%20style%3D%22shape%3Dimage%3BverticalLabelPosition%3Dbottom%3BverticalAlign%3Dtop%3BimageAspect%3D0%3Baspect%3Dfixed%3Bimage%3Ddata%3Aimage%2Fsvg%2Bxml%2CPHN2ZyB4bWxucz0iaHR0cDovL3d3dy53My5vcmcvMjAwMC9zdmciIHZlcnNpb249IjEiIHZpZXdCb3g9IjAgMCA0OCA0OCIgZW5hYmxlLWJhY2tncm91bmQ9Im5ldyAwIDAgNDggNDgiPiYjeGE7ICAgIDxwb2x5Z29uIGZpbGw9IiNGRjk4MDAiIHBvaW50cz0iMjQsMzcgMTksMzEgMTksMjUgMjksMjUgMjksMzEiLz4mI3hhOyAgICA8ZyBmaWxsPSIjRkZBNzI2Ij4mI3hhOyAgICAgICAgPGNpcmNsZSBjeD0iMzMiIGN5PSIxOSIgcj0iMiIvPiYjeGE7ICAgICAgICA8Y2lyY2xlIGN4PSIxNSIgY3k9IjE5IiByPSIyIi8%2BJiN4YTsgICAgPC9nPiYjeGE7ICAgIDxwYXRoIGZpbGw9IiNGRkI3NEQiIGQ9Ik0zMywxM2MwLTcuNi0xOC01LTE4LDBjMCwxLjEsMCw1LjksMCw3YzAsNSw0LDksOSw5czktNCw5LTlDMzMsMTguOSwzMywxNC4xLDMzLDEzeiIvPiYjeGE7ICAgIDxwYXRoIGZpbGw9IiM0MjQyNDIiIGQ9Ik0yNCw0Yy02LjEsMC0xMCw0LjktMTAsMTFjMCwwLjgsMCwyLjMsMCwyLjNsMiwxLjd2LTVsMTItNGw0LDR2NWwyLTEuN2MwLDAsMC0xLjUsMC0yLjNjMC00LTEtOC02LTlsLTEtMiBIMjR6Ii8%2BJiN4YTsgICAgPGcgZmlsbD0iIzc4NDcxOSI%2BJiN4YTsgICAgICAgIDxjaXJjbGUgY3g9IjI4IiBjeT0iMTkiIHI9IjEiLz4mI3hhOyAgICAgICAgPGNpcmNsZSBjeD0iMjAiIGN5PSIxOSIgcj0iMSIvPiYjeGE7ICAgIDwvZz4mI3hhOyAgICA8cG9seWdvbiBmaWxsPSIjZmZmIiBwb2ludHM9IjI0LDQzIDE5LDMxIDI0LDMyIDI5LDMxIi8%2BJiN4YTsgICAgPHBvbHlnb24gZmlsbD0iI0QzMkYyRiIgcG9pbnRzPSIyMywzNSAyMi4zLDM5LjUgMjQsNDMuNSAyNS43LDM5LjUgMjUsMzUgMjYsMzQgMjQsMzIgMjIsMzQiLz4mI3hhOyAgICA8cGF0aCBmaWxsPSIjNTQ2RTdBIiBkPSJNMjksMzFMMjksMzFsLTUsMTJsLTUtMTJjMCwwLTExLDItMTEsMTNoMzJDNDAsMzMsMjksMzEsMjksMzF6Ii8%2BJiN4YTs8L3N2Zz4%3D%3BlabelBackgroundColor%3D%23ffffff%3B%22%20vertex%3D%221%22%20parent%3D%221%22%3E%3CmxGeometry%20x%3D%22-470%22%20y%3D%22-350%22%20width%3D%2248%22%20height%3D%2248%22%20as%3D%22geometry%22%2F%3E%3C%2FmxCell%3E%3CmxCell%20id%3D%223%22%20value%3D%22Manage%20Candidate%22%20style%3D%22ellipse%3BwhiteSpace%3Dwrap%3Bhtml%3D1%3B%22%20vertex%3D%221%22%20parent%3D%221%22%3E%3CmxGeometry%20x%3D%22-350%22%20y%3D%22-170%22%20width%3D%22120%22%20height%3D%2280%22%20as%3D%22geometry%22%2F%3E%3C%2FmxCell%3E%3CmxCell%20id%3D%224%22%20value%3D%22Edit%20Profile%22%20style%3D%22ellipse%3BwhiteSpace%3Dwrap%3Bhtml%3D1%3B%22%20vertex%3D%221%22%20parent%3D%221%22%3E%3CmxGeometry%20x%3D%22-242%22%20y%3D%22-260%22%20width%3D%22120%22%20height%3D%2280%22%20as%3D%22geometry%22%2F%3E%3C%2FmxCell%3E%3CmxCell%20id%3D%225%22%20value%3D%22Login%22%20style%3D%22ellipse%3BwhiteSpace%3Dwrap%3Bhtml%3D1%3B%22%20vertex%3D%221%22%20parent%3D%221%22%3E%3CmxGeometry%20x%3D%22-246%22%20y%3D%22-382%22%20width%3D%22120%22%20height%3D%2280%22%20as%3D%22geometry%22%2F%3E%3C%2FmxCell%3E%3CmxCell%20id%3D%226%22%20value%3D%22Registration%22%20style%3D%22ellipse%3BwhiteSpace%3Dwrap%3Bhtml%3D1%3B%22%20vertex%3D%221%22%20parent%3D%221%22%3E%3CmxGeometry%20x%3D%22-294%22%20y%3D%22-480%22%20width%3D%22120%22%20height%3D%2280%22%20as%3D%22geometry%22%2F%3E%3C%2FmxCell%3E%3CmxCell%20id%3D%227%22%20value%3D%22%22%20style%3D%22endArrow%3Dnone%3Bhtml%3D1%3Brounded%3D0%3BexitX%3D1%3BexitY%3D0.5%3BexitDx%3D0%3BexitDy%3D0%3BentryX%3D0.097%3BentryY%3D0.855%3BentryDx%3D0%3BentryDy%3D0%3BentryPerimeter%3D0%3B%22%20edge%3D%221%22%20source%3D%222%22%20target%3D%226%22%20parent%3D%221%22%3E%3CmxGeometry%20width%3D%2250%22%20height%3D%2250%22%20relative%3D%221%22%20as%3D%22geometry%22%3E%3CmxPoint%20x%3D%22-80%22%20y%3D%22-160%22%20as%3D%22sourcePoint%22%2F%3E%3CmxPoint%20x%3D%22-30%22%20y%3D%22-210%22%20as%3D%22targetPoint%22%2F%3E%3C%2FmxGeometry%3E%3C%2FmxCell%3E%3CmxCell%20id%3D%228%22%20value%3D%22%22%20style%3D%22endArrow%3Dnone%3Bhtml%3D1%3Brounded%3D0%3BexitX%3D1%3BexitY%3D0.5%3BexitDx%3D0%3BexitDy%3D0%3BentryX%3D0%3BentryY%3D0.5%3BentryDx%3D0%3BentryDy%3D0%3B%22%20edge%3D%221%22%20source%3D%222%22%20target%3D%225%22%20parent%3D%221%22%3E%3CmxGeometry%20width%3D%2250%22%20height%3D%2250%22%20relative%3D%221%22%20as%3D%22geometry%22%3E%3CmxPoint%20x%3D%22-412%22%20y%3D%22-316%22%20as%3D%22sourcePoint%22%2F%3E%3CmxPoint%20x%3D%22-272%22%20y%3D%22-402%22%20as%3D%22targetPoint%22%2F%3E%3C%2FmxGeometry%3E%3C%2FmxCell%3E%3CmxCell%20id%3D%229%22%20value%3D%22%22%20style%3D%22endArrow%3Dnone%3Bhtml%3D1%3Brounded%3D0%3BexitX%3D1%3BexitY%3D0.75%3BexitDx%3D0%3BexitDy%3D0%3BentryX%3D0.1%3BentryY%3D0.125%3BentryDx%3D0%3BentryDy%3D0%3BentryPerimeter%3D0%3B%22%20edge%3D%221%22%20source%3D%222%22%20target%3D%224%22%20parent%3D%221%22%3E%3CmxGeometry%20width%3D%2250%22%20height%3D%2250%22%20relative%3D%221%22%20as%3D%22geometry%22%3E%3CmxPoint%20x%3D%22-402%22%20y%3D%22-306%22%20as%3D%22sourcePoint%22%2F%3E%3CmxPoint%20x%3D%22-262%22%20y%3D%22-392%22%20as%3D%22targetPoint%22%2F%3E%3C%2FmxGeometry%3E%3C%2FmxCell%3E%3CmxCell%20id%3D%2210%22%20value%3D%22%22%20style%3D%22endArrow%3Dnone%3Bhtml%3D1%3Brounded%3D0%3BexitX%3D1%3BexitY%3D0.75%3BexitDx%3D0%3BexitDy%3D0%3BentryX%3D0%3BentryY%3D0%3BentryDx%3D0%3BentryDy%3D0%3B%22%20edge%3D%221%22%20source%3D%222%22%20target%3D%223%22%20parent%3D%221%22%3E%3CmxGeometry%20width%3D%2250%22%20height%3D%2250%22%20relative%3D%221%22%20as%3D%22geometry%22%3E%3CmxPoint%20x%3D%22-392%22%20y%3D%22-296%22%20as%3D%22sourcePoint%22%2F%3E%3CmxPoint%20x%3D%22-252%22%20y%3D%22-382%22%20as%3D%22targetPoint%22%2F%3E%3C%2FmxGeometry%3E%3C%2FmxCell%3E%3CmxCell%20id%3D%2211%22%20value%3D%22Election%20result%22%20style%3D%22ellipse%3BwhiteSpace%3Dwrap%3Bhtml%3D1%3B%22%20vertex%3D%221%22%20parent%3D%221%22%3E%3CmxGeometry%20x%3D%22334%22%20y%3D%22-100%22%20width%3D%22120%22%20height%3D%2280%22%20as%3D%22geometry%22%2F%3E%3C%2FmxCell%3E%3CmxCell%20id%3D%2212%22%20value%3D%22View%20Election%20Date%22%20style%3D%22ellipse%3BwhiteSpace%3Dwrap%3Bhtml%3D1%3B%22%20vertex%3D%221%22%20parent%3D%221%22%3E%3CmxGeometry%20x%3D%22454%22%20y%3D%22-190%22%20width%3D%22120%22%20height%3D%2280%22%20as%3D%22geometry%22%2F%3E%3C%2FmxCell%3E%3CmxCell%20id%3D%2213%22%20value%3D%22Search%20Electoral%20Role%22%20style%3D%22ellipse%3BwhiteSpace%3Dwrap%3Bhtml%3D1%3B%22%20vertex%3D%221%22%20parent%3D%221%22%3E%3CmxGeometry%20x%3D%22454%22%20y%3D%22-320%22%20width%3D%22120%22%20height%3D%2280%22%20as%3D%22geometry%22%2F%3E%3C%2FmxCell%3E%3CmxCell%20id%3D%2214%22%20value%3D%22Know%20All%20Candidates%22%20style%3D%22ellipse%3BwhiteSpace%3Dwrap%3Bhtml%3D1%3B%22%20vertex%3D%221%22%20parent%3D%221%22%3E%3CmxGeometry%20x%3D%22380%22%20y%3D%22-433%22%20width%3D%22120%22%20height%3D%2280%22%20as%3D%22geometry%22%2F%3E%3C%2FmxCell%3E%3CmxCell%20id%3D%2215%22%20value%3D%22%22%20style%3D%22endArrow%3Dnone%3Bhtml%3D1%3Brounded%3D0%3BexitX%3D1%3BexitY%3D0.5%3BexitDx%3D0%3BexitDy%3D0%3BentryX%3D0.097%3BentryY%3D0.855%3BentryDx%3D0%3BentryDy%3D0%3BentryPerimeter%3D0%3B%22%20edge%3D%221%22%20target%3D%2214%22%20parent%3D%221%22%3E%3CmxGeometry%20width%3D%2250%22%20height%3D%2250%22%20relative%3D%221%22%20as%3D%22geometry%22%3E%3CmxPoint%20x%3D%22274%22%20y%3D%22-256%22%20as%3D%22sourcePoint%22%2F%3E%3CmxPoint%20x%3D%22666%22%20y%3D%22-140%22%20as%3D%22targetPoint%22%2F%3E%3C%2FmxGeometry%3E%3C%2FmxCell%3E%3CmxCell%20id%3D%2216%22%20value%3D%22%22%20style%3D%22endArrow%3Dnone%3Bhtml%3D1%3Brounded%3D0%3BexitX%3D1%3BexitY%3D0.5%3BexitDx%3D0%3BexitDy%3D0%3BentryX%3D0%3BentryY%3D0.5%3BentryDx%3D0%3BentryDy%3D0%3B%22%20edge%3D%221%22%20target%3D%2213%22%20parent%3D%221%22%3E%3CmxGeometry%20width%3D%2250%22%20height%3D%2250%22%20relative%3D%221%22%20as%3D%22geometry%22%3E%3CmxPoint%20x%3D%22274%22%20y%3D%22-256%22%20as%3D%22sourcePoint%22%2F%3E%3CmxPoint%20x%3D%22424%22%20y%3D%22-332%22%20as%3D%22targetPoint%22%2F%3E%3C%2FmxGeometry%3E%3C%2FmxCell%3E%3CmxCell%20id%3D%2217%22%20value%3D%22%22%20style%3D%22endArrow%3Dnone%3Bhtml%3D1%3Brounded%3D0%3BexitX%3D1%3BexitY%3D0.75%3BexitDx%3D0%3BexitDy%3D0%3BentryX%3D0.1%3BentryY%3D0.125%3BentryDx%3D0%3BentryDy%3D0%3BentryPerimeter%3D0%3B%22%20edge%3D%221%22%20target%3D%2212%22%20parent%3D%221%22%3E%3CmxGeometry%20width%3D%2250%22%20height%3D%2250%22%20relative%3D%221%22%20as%3D%22geometry%22%3E%3CmxPoint%20x%3D%22274%22%20y%3D%22-244%22%20as%3D%22sourcePoint%22%2F%3E%3CmxPoint%20x%3D%22434%22%20y%3D%22-322%22%20as%3D%22targetPoint%22%2F%3E%3C%2FmxGeometry%3E%3C%2FmxCell%3E%3CmxCell%20id%3D%2218%22%20value%3D%22%22%20style%3D%22endArrow%3Dnone%3Bhtml%3D1%3Brounded%3D0%3BexitX%3D1%3BexitY%3D0.75%3BexitDx%3D0%3BexitDy%3D0%3BentryX%3D0%3BentryY%3D0%3BentryDx%3D0%3BentryDy%3D0%3B%22%20edge%3D%221%22%20target%3D%2211%22%20parent%3D%221%22%3E%3CmxGeometry%20width%3D%2250%22%20height%3D%2250%22%20relative%3D%221%22%20as%3D%22geometry%22%3E%3CmxPoint%20x%3D%22274%22%20y%3D%22-244%22%20as%3D%22sourcePoint%22%2F%3E%3CmxPoint%20x%3D%22444%22%20y%3D%22-312%22%20as%3D%22targetPoint%22%2F%3E%3C%2FmxGeometry%3E%3C%2FmxCell%3E%3CmxCell%20id%3D%2219%22%20value%3D%22User%20Without%20Account%22%20style%3D%22shape%3Dimage%3BverticalLabelPosition%3Dbottom%3BverticalAlign%3Dtop%3BimageAspect%3D0%3Baspect%3Dfixed%3Bimage%3Ddata%3Aimage%2Fsvg%2Bxml%2CPHN2ZyB4bWxucz0iaHR0cDovL3d3dy53My5vcmcvMjAwMC9zdmciIHZlcnNpb249IjEiIHZpZXdCb3g9IjAgMCA0OCA0OCIgZW5hYmxlLWJhY2tncm91bmQ9Im5ldyAwIDAgNDggNDgiPiYjeGE7ICAgIDxwb2x5Z29uIGZpbGw9IiNGRjk4MDAiIHBvaW50cz0iMjQsMzcgMTksMzEgMTksMjUgMjksMjUgMjksMzEiLz4mI3hhOyAgICA8ZyBmaWxsPSIjRkZBNzI2Ij4mI3hhOyAgICAgICAgPGNpcmNsZSBjeD0iMzMiIGN5PSIxOSIgcj0iMiIvPiYjeGE7ICAgICAgICA8Y2lyY2xlIGN4PSIxNSIgY3k9IjE5IiByPSIyIi8%2BJiN4YTsgICAgPC9nPiYjeGE7ICAgIDxwYXRoIGZpbGw9IiNGRkI3NEQiIGQ9Ik0zMywxM2MwLTcuNi0xOC01LTE4LDBjMCwxLjEsMCw1LjksMCw3YzAsNSw0LDksOSw5czktNCw5LTlDMzMsMTguOSwzMywxNC4xLDMzLDEzeiIvPiYjeGE7ICAgIDxwYXRoIGZpbGw9IiM0MjQyNDIiIGQ9Ik0yNCw0Yy02LjEsMC0xMCw0LjktMTAsMTFjMCwwLjgsMCwyLjMsMCwyLjNsMiwxLjd2LTVsMTItNGw0LDR2NWwyLTEuN2MwLDAsMC0xLjUsMC0yLjNjMC00LTEtOC02LTlsLTEtMiBIMjR6Ii8%2BJiN4YTsgICAgPGcgZmlsbD0iIzc4NDcxOSI%2BJiN4YTsgICAgICAgIDxjaXJjbGUgY3g9IjI4IiBjeT0iMTkiIHI9IjEiLz4mI3hhOyAgICAgICAgPGNpcmNsZSBjeD0iMjAiIGN5PSIxOSIgcj0iMSIvPiYjeGE7ICAgIDwvZz4mI3hhOyAgICA8cG9seWdvbiBmaWxsPSIjZmZmIiBwb2ludHM9IjI0LDQzIDE5LDMxIDI0LDMyIDI5LDMxIi8%2BJiN4YTsgICAgPHBvbHlnb24gZmlsbD0iI0QzMkYyRiIgcG9pbnRzPSIyMywzNSAyMi4zLDM5LjUgMjQsNDMuNSAyNS43LDM5LjUgMjUsMzUgMjYsMzQgMjQsMzIgMjIsMzQiLz4mI3hhOyAgICA8cGF0aCBmaWxsPSIjNTQ2RTdBIiBkPSJNMjksMzFMMjksMzFsLTUsMTJsLTUtMTJjMCwwLTExLDItMTEsMTNoMzJDNDAsMzMsMjksMzEsMjksMzF6Ii8%2BJiN4YTs8L3N2Zz4%3D%3BlabelBackgroundColor%3D%23ffffff%3B%22%20vertex%3D%221%22%20parent%3D%221%22%3E%3CmxGeometry%20x%3D%22188%22%20y%3D%22-290%22%20width%3D%2280%22%20height%3D%2280%22%20as%3D%22geometry%22%2F%3E%3C%2FmxCell%3E%3CmxCell%20id%3D%2220%22%20value%3D%22Voters%20Guide%22%20style%3D%22ellipse%3BwhiteSpace%3Dwrap%3Bhtml%3D1%3B%22%20vertex%3D%221%22%20parent%3D%221%22%3E%3CmxGeometry%20x%3D%22175%22%20y%3D%22-470%22%20width%3D%22120%22%20height%3D%2280%22%20as%3D%22geometry%22%2F%3E%3C%2FmxCell%3E%3CmxCell%20id%3D%2221%22%20value%3D%22Candidate%20Guide%22%20style%3D%22ellipse%3BwhiteSpace%3Dwrap%3Bhtml%3D1%3Bdirection%3Deast%3B%22%20vertex%3D%221%22%20parent%3D%221%22%3E%3CmxGeometry%20x%3D%22-30%22%20y%3D%22-410%22%20width%3D%22120%22%20height%3D%2280%22%20as%3D%22geometry%22%2F%3E%3C%2FmxCell%3E%3CmxCell%20id%3D%2222%22%20value%3D%22Party%20Guide%22%20style%3D%22ellipse%3BwhiteSpace%3Dwrap%3Bhtml%3D1%3B%22%20vertex%3D%221%22%20parent%3D%221%22%3E%3CmxGeometry%20x%3D%22-40%22%20y%3D%22-250%22%20width%3D%22120%22%20height%3D%2280%22%20as%3D%22geometry%22%2F%3E%3C%2FmxCell%3E%3CmxCell%20id%3D%2223%22%20value%3D%22%22%20style%3D%22endArrow%3Dnone%3Bhtml%3D1%3Brounded%3D0%3BentryX%3D1%3BentryY%3D0.5%3BentryDx%3D0%3BentryDy%3D0%3BexitX%3D-0.058%3BexitY%3D0.875%3BexitDx%3D0%3BexitDy%3D0%3BexitPerimeter%3D0%3B%22%20edge%3D%221%22%20source%3D%2219%22%20target%3D%2222%22%20parent%3D%221%22%3E%3CmxGeometry%20width%3D%2250%22%20height%3D%2250%22%20relative%3D%221%22%20as%3D%22geometry%22%3E%3CmxPoint%20x%3D%22218%22%20y%3D%22-226%22%20as%3D%22sourcePoint%22%2F%3E%3CmxPoint%20x%3D%22308%22%20y%3D%22-70%22%20as%3D%22targetPoint%22%2F%3E%3CArray%20as%3D%22points%22%2F%3E%3C%2FmxGeometry%3E%3C%2FmxCell%3E%3CmxCell%20id%3D%2224%22%20value%3D%22%22%20style%3D%22endArrow%3Dnone%3Bhtml%3D1%3Brounded%3D0%3BentryX%3D0.5%3BentryY%3D1%3BentryDx%3D0%3BentryDy%3D0%3BexitX%3D0.5%3BexitY%3D0%3BexitDx%3D0%3BexitDy%3D0%3B%22%20edge%3D%221%22%20source%3D%2219%22%20target%3D%2220%22%20parent%3D%221%22%3E%3CmxGeometry%20width%3D%2250%22%20height%3D%2250%22%20relative%3D%221%22%20as%3D%22geometry%22%3E%3CmxPoint%20x%3D%22242%22%20y%3D%22-200%22%20as%3D%22sourcePoint%22%2F%3E%3CmxPoint%20x%3D%22258%22%20y%3D%22-60%22%20as%3D%22targetPoint%22%2F%3E%3C%2FmxGeometry%3E%3C%2FmxCell%3E%3CmxCell%20id%3D%2225%22%20value%3D%22%22%20style%3D%22endArrow%3Dnone%3Bhtml%3D1%3Brounded%3D0%3BentryX%3D0.992%3BentryY%3D0.615%3BentryDx%3D0%3BentryDy%3D0%3BexitX%3D0%3BexitY%3D0%3BexitDx%3D0%3BexitDy%3D0%3BentryPerimeter%3D0%3B%22%20edge%3D%221%22%20source%3D%2219%22%20target%3D%2221%22%20parent%3D%221%22%3E%3CmxGeometry%20width%3D%2250%22%20height%3D%2250%22%20relative%3D%221%22%20as%3D%22geometry%22%3E%3CmxPoint%20x%3D%22238%22%20y%3D%22-280%22%20as%3D%22sourcePoint%22%2F%3E%3CmxPoint%20x%3D%22245%22%20y%3D%22-380%22%20as%3D%22targetPoint%22%2F%3E%3C%2FmxGeometry%3E%3C%2FmxCell%3E%3C%2Froot%3E%3C%2FmxGraphModel%3E&lt;/span&gt;&lt;span style=&quot;color: rgba(0, 0, 0, 0); font-family: monospace; font-size: 0px; text-align: start;&quot;&gt;%3CmxGraphModel%3E%3Croot%3E%3CmxCell%20id%3D%220%22%2F%3E%3CmxCell%20id%3D%221%22%20parent%3D%220%22%2F%3E%3CmxCell%20id%3D%222%22%20value%3D%22Parties%22%20style%3D%22shape%3Dimage%3BverticalLabelPosition%3Dbottom%3BverticalAlign%3Dtop%3BimageAspect%3D0%3Baspect%3Dfixed%3Bimage%3Ddata%3Aimage%2Fsvg%2Bxml%2CPHN2ZyB4bWxucz0iaHR0cDovL3d3dy53My5vcmcvMjAwMC9zdmciIHZlcnNpb249IjEiIHZpZXdCb3g9IjAgMCA0OCA0OCIgZW5hYmxlLWJhY2tncm91bmQ9Im5ldyAwIDAgNDggNDgiPiYjeGE7ICAgIDxwb2x5Z29uIGZpbGw9IiNGRjk4MDAiIHBvaW50cz0iMjQsMzcgMTksMzEgMTksMjUgMjksMjUgMjksMzEiLz4mI3hhOyAgICA8ZyBmaWxsPSIjRkZBNzI2Ij4mI3hhOyAgICAgICAgPGNpcmNsZSBjeD0iMzMiIGN5PSIxOSIgcj0iMiIvPiYjeGE7ICAgICAgICA8Y2lyY2xlIGN4PSIxNSIgY3k9IjE5IiByPSIyIi8%2BJiN4YTsgICAgPC9nPiYjeGE7ICAgIDxwYXRoIGZpbGw9IiNGRkI3NEQiIGQ9Ik0zMywxM2MwLTcuNi0xOC01LTE4LDBjMCwxLjEsMCw1LjksMCw3YzAsNSw0LDksOSw5czktNCw5LTlDMzMsMTguOSwzMywxNC4xLDMzLDEzeiIvPiYjeGE7ICAgIDxwYXRoIGZpbGw9IiM0MjQyNDIiIGQ9Ik0yNCw0Yy02LjEsMC0xMCw0LjktMTAsMTFjMCwwLjgsMCwyLjMsMCwyLjNsMiwxLjd2LTVsMTItNGw0LDR2NWwyLTEuN2MwLDAsMC0xLjUsMC0yLjNjMC00LTEtOC02LTlsLTEtMiBIMjR6Ii8%2BJiN4YTsgICAgPGcgZmlsbD0iIzc4NDcxOSI%2BJiN4YTsgICAgICAgIDxjaXJjbGUgY3g9IjI4IiBjeT0iMTkiIHI9IjEiLz4mI3hhOyAgICAgICAgPGNpcmNsZSBjeD0iMjAiIGN5PSIxOSIgcj0iMSIvPiYjeGE7ICAgIDwvZz4mI3hhOyAgICA8cG9seWdvbiBmaWxsPSIjZmZmIiBwb2ludHM9IjI0LDQzIDE5LDMxIDI0LDMyIDI5LDMxIi8%2BJiN4YTsgICAgPHBvbHlnb24gZmlsbD0iI0QzMkYyRiIgcG9pbnRzPSIyMywzNSAyMi4zLDM5LjUgMjQsNDMuNSAyNS43LDM5LjUgMjUsMzUgMjYsMzQgMjQsMzIgMjIsMzQiLz4mI3hhOyAgICA8cGF0aCBmaWxsPSIjNTQ2RTdBIiBkPSJNMjksMzFMMjksMzFsLTUsMTJsLTUtMTJjMCwwLTExLDItMTEsMTNoMzJDNDAsMzMsMjksMzEsMjksMzF6Ii8%2BJiN4YTs8L3N2Zz4%3D%3BlabelBackgroundColor%3D%23ffffff%3B%22%20vertex%3D%221%22%20parent%3D%221%22%3E%3CmxGeometry%20x%3D%22-470%22%20y%3D%22-350%22%20width%3D%2248%22%20height%3D%2248%22%20as%3D%22geometry%22%2F%3E%3C%2FmxCell%3E%3CmxCell%20id%3D%223%22%20value%3D%22Manage%20Candidate%22%20style%3D%22ellipse%3BwhiteSpace%3Dwrap%3Bhtml%3D1%3B%22%20vertex%3D%221%22%20parent%3D%221%22%3E%3CmxGeometry%20x%3D%22-350%22%20y%3D%22-170%22%20width%3D%22120%22%20height%3D%2280%22%20as%3D%22geometry%22%2F%3E%3C%2FmxCell%3E%3CmxCell%20id%3D%224%22%20value%3D%22Edit%20Profile%22%20style%3D%22ellipse%3BwhiteSpace%3Dwrap%3Bhtml%3D1%3B%22%20vertex%3D%221%22%20parent%3D%221%22%3E%3CmxGeometry%20x%3D%22-242%22%20y%3D%22-260%22%20width%3D%22120%22%20height%3D%2280%22%20as%3D%22geometry%22%2F%3E%3C%2FmxCell%3E%3CmxCell%20id%3D%225%22%20value%3D%22Login%22%20style%3D%22ellipse%3BwhiteSpace%3Dwrap%3Bhtml%3D1%3B%22%20vertex%3D%221%22%20parent%3D%221%22%3E%3CmxGeometry%20x%3D%22-246%22%20y%3D%22-382%22%20width%3D%22120%22%20height%3D%2280%22%20as%3D%22geometry%22%2F%3E%3C%2FmxCell%3E%3CmxCell%20id%3D%226%22%20value%3D%22Registration%22%20style%3D%22ellipse%3BwhiteSpace%3Dwrap%3Bhtml%3D1%3B%22%20vertex%3D%221%22%20parent%3D%221%22%3E%3CmxGeometry%20x%3D%22-294%22%20y%3D%22-480%22%20width%3D%22120%22%20height%3D%2280%22%20as%3D%22geometry%22%2F%3E%3C%2FmxCell%3E%3CmxCell%20id%3D%227%22%20value%3D%22%22%20style%3D%22endArrow%3Dnone%3Bhtml%3D1%3Brounded%3D0%3BexitX%3D1%3BexitY%3D0.5%3BexitDx%3D0%3BexitDy%3D0%3BentryX%3D0.097%3BentryY%3D0.855%3BentryDx%3D0%3BentryDy%3D0%3BentryPerimeter%3D0%3B%22%20edge%3D%221%22%20source%3D%222%22%20target%3D%226%22%20parent%3D%221%22%3E%3CmxGeometry%20width%3D%2250%22%20height%3D%2250%22%20relative%3D%221%22%20as%3D%22geometry%22%3E%3CmxPoint%20x%3D%22-80%22%20y%3D%22-160%22%20as%3D%22sourcePoint%22%2F%3E%3CmxPoint%20x%3D%22-30%22%20y%3D%22-210%22%20as%3D%22targetPoint%22%2F%3E%3C%2FmxGeometry%3E%3C%2FmxCell%3E%3CmxCell%20id%3D%228%22%20value%3D%22%22%20style%3D%22endArrow%3Dnone%3Bhtml%3D1%3Brounded%3D0%3BexitX%3D1%3BexitY%3D0.5%3BexitDx%3D0%3BexitDy%3D0%3BentryX%3D0%3BentryY%3D0.5%3BentryDx%3D0%3BentryDy%3D0%3B%22%20edge%3D%221%22%20source%3D%222%22%20target%3D%225%22%20parent%3D%221%22%3E%3CmxGeometry%20width%3D%2250%22%20height%3D%2250%22%20relative%3D%221%22%20as%3D%22geometry%22%3E%3CmxPoint%20x%3D%22-412%22%20y%3D%22-316%22%20as%3D%22sourcePoint%22%2F%3E%3CmxPoint%20x%3D%22-272%22%20y%3D%22-402%22%20as%3D%22targetPoint%22%2F%3E%3C%2FmxGeometry%3E%3C%2FmxCell%3E%3CmxCell%20id%3D%229%22%20value%3D%22%22%20style%3D%22endArrow%3Dnone%3Bhtml%3D1%3Brounded%3D0%3BexitX%3D1%3BexitY%3D0.75%3BexitDx%3D0%3BexitDy%3D0%3BentryX%3D0.1%3BentryY%3D0.125%3BentryDx%3D0%3BentryDy%3D0%3BentryPerimeter%3D0%3B%22%20edge%3D%221%22%20source%3D%222%22%20target%3D%224%22%20parent%3D%221%22%3E%3CmxGeometry%20width%3D%2250%22%20height%3D%2250%22%20relative%3D%221%22%20as%3D%22geometry%22%3E%3CmxPoint%20x%3D%22-402%22%20y%3D%22-306%22%20as%3D%22sourcePoint%22%2F%3E%3CmxPoint%20x%3D%22-262%22%20y%3D%22-392%22%20as%3D%22targetPoint%22%2F%3E%3C%2FmxGeometry%3E%3C%2FmxCell%3E%3CmxCell%20id%3D%2210%22%20value%3D%22%22%20style%3D%22endArrow%3Dnone%3Bhtml%3D1%3Brounded%3D0%3BexitX%3D1%3BexitY%3D0.75%3BexitDx%3D0%3BexitDy%3D0%3BentryX%3D0%3BentryY%3D0%3BentryDx%3D0%3BentryDy%3D0%3B%22%20edge%3D%221%22%20source%3D%222%22%20target%3D%223%22%20parent%3D%221%22%3E%3CmxGeometry%20width%3D%2250%22%20height%3D%2250%22%20relative%3D%221%22%20as%3D%22geometry%22%3E%3CmxPoint%20x%3D%22-392%22%20y%3D%22-296%22%20as%3D%22sourcePoint%22%2F%3E%3CmxPoint%20x%3D%22-252%22%20y%3D%22-382%22%20as%3D%22targetPoint%22%2F%3E%3C%2FmxGeometry%3E%3C%2FmxCell%3E%3CmxCell%20id%3D%2211%22%20value%3D%22Election%20result%22%20style%3D%22ellipse%3BwhiteSpace%3Dwrap%3Bhtml%3D1%3B%22%20vertex%3D%221%22%20parent%3D%221%22%3E%3CmxGeometry%20x%3D%22334%22%20y%3D%22-100%22%20width%3D%22120%22%20height%3D%2280%22%20as%3D%22geometry%22%2F%3E%3C%2FmxCell%3E%3CmxCell%20id%3D%2212%22%20value%3D%22View%20Election%20Date%22%20style%3D%22ellipse%3BwhiteSpace%3Dwrap%3Bhtml%3D1%3B%22%20vertex%3D%221%22%20parent%3D%221%22%3E%3CmxGeometry%20x%3D%22454%22%20y%3D%22-190%22%20width%3D%22120%22%20height%3D%2280%22%20as%3D%22geometry%22%2F%3E%3C%2FmxCell%3E%3CmxCell%20id%3D%2213%22%20value%3D%22Search%20Electoral%20Role%22%20style%3D%22ellipse%3BwhiteSpace%3Dwrap%3Bhtml%3D1%3B%22%20vertex%3D%221%22%20parent%3D%221%22%3E%3CmxGeometry%20x%3D%22454%22%20y%3D%22-320%22%20width%3D%22120%22%20height%3D%2280%22%20as%3D%22geometry%22%2F%3E%3C%2FmxCell%3E%3CmxCell%20id%3D%2214%22%20value%3D%22Know%20All%20Candidates%22%20style%3D%22ellipse%3BwhiteSpace%3Dwrap%3Bhtml%3D1%3B%22%20vertex%3D%221%22%20parent%3D%221%22%3E%3CmxGeometry%20x%3D%22380%22%20y%3D%22-433%22%20width%3D%22120%22%20height%3D%2280%22%20as%3D%22geometry%22%2F%3E%3C%2FmxCell%3E%3CmxCell%20id%3D%2215%22%20value%3D%22%22%20style%3D%22endArrow%3Dnone%3Bhtml%3D1%3Brounded%3D0%3BexitX%3D1%3BexitY%3D0.5%3BexitDx%3D0%3BexitDy%3D0%3BentryX%3D0.097%3BentryY%3D0.855%3BentryDx%3D0%3BentryDy%3D0%3BentryPerimeter%3D0%3B%22%20edge%3D%221%22%20target%3D%2214%22%20parent%3D%221%22%3E%3CmxGeometry%20width%3D%2250%22%20height%3D%2250%22%20relative%3D%221%22%20as%3D%22geometry%22%3E%3CmxPoint%20x%3D%22274%22%20y%3D%22-256%22%20as%3D%22sourcePoint%22%2F%3E%3CmxPoint%20x%3D%22666%22%20y%3D%22-140%22%20as%3D%22targetPoint%22%2F%3E%3C%2FmxGeometry%3E%3C%2FmxCell%3E%3CmxCell%20id%3D%2216%22%20value%3D%22%22%20style%3D%22endArrow%3Dnone%3Bhtml%3D1%3Brounded%3D0%3BexitX%3D1%3BexitY%3D0.5%3BexitDx%3D0%3BexitDy%3D0%3BentryX%3D0%3BentryY%3D0.5%3BentryDx%3D0%3BentryDy%3D0%3B%22%20edge%3D%221%22%20target%3D%2213%22%20parent%3D%221%22%3E%3CmxGeometry%20width%3D%2250%22%20height%3D%2250%22%20relative%3D%221%22%20as%3D%22geometry%22%3E%3CmxPoint%20x%3D%22274%22%20y%3D%22-256%22%20as%3D%22sourcePoint%22%2F%3E%3CmxPoint%20x%3D%22424%22%20y%3D%22-332%22%20as%3D%22targetPoint%22%2F%3E%3C%2FmxGeometry%3E%3C%2FmxCell%3E%3CmxCell%20id%3D%2217%22%20value%3D%22%22%20style%3D%22endArrow%3Dnone%3Bhtml%3D1%3Brounded%3D0%3BexitX%3D1%3BexitY%3D0.75%3BexitDx%3D0%3BexitDy%3D0%3BentryX%3D0.1%3BentryY%3D0.125%3BentryDx%3D0%3BentryDy%3D0%3BentryPerimeter%3D0%3B%22%20edge%3D%221%22%20target%3D%2212%22%20parent%3D%221%22%3E%3CmxGeometry%20width%3D%2250%22%20height%3D%2250%22%20relative%3D%221%22%20as%3D%22geometry%22%3E%3CmxPoint%20x%3D%22274%22%20y%3D%22-244%22%20as%3D%22sourcePoint%22%2F%3E%3CmxPoint%20x%3D%22434%22%20y%3D%22-322%22%20as%3D%22targetPoint%22%2F%3E%3C%2FmxGeometry%3E%3C%2FmxCell%3E%3CmxCell%20id%3D%2218%22%20value%3D%22%22%20style%3D%22endArrow%3Dnone%3Bhtml%3D1%3Brounded%3D0%3BexitX%3D1%3BexitY%3D0.75%3BexitDx%3D0%3BexitDy%3D0%3BentryX%3D0%3BentryY%3D0%3BentryDx%3D0%3BentryDy%3D0%3B%22%20edge%3D%221%22%20target%3D%2211%22%20parent%3D%221%22%3E%3CmxGeometry%20width%3D%2250%22%20height%3D%2250%22%20relative%3D%221%22%20as%3D%22geometry%22%3E%3CmxPoint%20x%3D%22274%22%20y%3D%22-244%22%20as%3D%22sourcePoint%22%2F%3E%3CmxPoint%20x%3D%22444%22%20y%3D%22-312%22%20as%3D%22targetPoint%22%2F%3E%3C%2FmxGeometry%3E%3C%2FmxCell%3E%3CmxCell%20id%3D%2219%22%20value%3D%22User%20Without%20Account%22%20style%3D%22shape%3Dimage%3BverticalLabelPosition%3Dbottom%3BverticalAlign%3Dtop%3BimageAspect%3D0%3Baspect%3Dfixed%3Bimage%3Ddata%3Aimage%2Fsvg%2Bxml%2CPHN2ZyB4bWxucz0iaHR0cDovL3d3dy53My5vcmcvMjAwMC9zdmciIHZlcnNpb249IjEiIHZpZXdCb3g9IjAgMCA0OCA0OCIgZW5hYmxlLWJhY2tncm91bmQ9Im5ldyAwIDAgNDggNDgiPiYjeGE7ICAgIDxwb2x5Z29uIGZpbGw9IiNGRjk4MDAiIHBvaW50cz0iMjQsMzcgMTksMzEgMTksMjUgMjksMjUgMjksMzEiLz4mI3hhOyAgICA8ZyBmaWxsPSIjRkZBNzI2Ij4mI3hhOyAgICAgICAgPGNpcmNsZSBjeD0iMzMiIGN5PSIxOSIgcj0iMiIvPiYjeGE7ICAgICAgICA8Y2lyY2xlIGN4PSIxNSIgY3k9IjE5IiByPSIyIi8%2BJiN4YTsgICAgPC9nPiYjeGE7ICAgIDxwYXRoIGZpbGw9IiNGRkI3NEQiIGQ9Ik0zMywxM2MwLTcuNi0xOC01LTE4LDBjMCwxLjEsMCw1LjksMCw3YzAsNSw0LDksOSw5czktNCw5LTlDMzMsMTguOSwzMywxNC4xLDMzLDEzeiIvPiYjeGE7ICAgIDxwYXRoIGZpbGw9IiM0MjQyNDIiIGQ9Ik0yNCw0Yy02LjEsMC0xMCw0LjktMTAsMTFjMCwwLjgsMCwyLjMsMCwyLjNsMiwxLjd2LTVsMTItNGw0LDR2NWwyLTEuN2MwLDAsMC0xLjUsMC0yLjNjMC00LTEtOC02LTlsLTEtMiBIMjR6Ii8%2BJiN4YTsgICAgPGcgZmlsbD0iIzc4NDcxOSI%2BJiN4YTsgICAgICAgIDxjaXJjbGUgY3g9IjI4IiBjeT0iMTkiIHI9IjEiLz4mI3hhOyAgICAgICAgPGNpcmNsZSBjeD0iMjAiIGN5PSIxOSIgcj0iMSIvPiYjeGE7ICAgIDwvZz4mI3hhOyAgICA8cG9seWdvbiBmaWxsPSIjZmZmIiBwb2ludHM9IjI0LDQzIDE5LDMxIDI0LDMyIDI5LDMxIi8%2BJiN4YTsgICAgPHBvbHlnb24gZmlsbD0iI0QzMkYyRiIgcG9pbnRzPSIyMywzNSAyMi4zLDM5LjUgMjQsNDMuNSAyNS43LDM5LjUgMjUsMzUgMjYsMzQgMjQsMzIgMjIsMzQiLz4mI3hhOyAgICA8cGF0aCBmaWxsPSIjNTQ2RTdBIiBkPSJNMjksMzFMMjksMzFsLTUsMTJsLTUtMTJjMCwwLTExLDItMTEsMTNoMzJDNDAsMzMsMjksMzEsMjksMzF6Ii8%2BJiN4YTs8L3N2Zz4%3D%3BlabelBackgroundColor%3D%23ffffff%3B%22%20vertex%3D%221%22%20parent%3D%221%22%3E%3CmxGeometry%20x%3D%22188%22%20y%3D%22-290%22%20width%3D%2280%22%20height%3D%2280%22%20as%3D%22geometry%22%2F%3E%3C%2FmxCell%3E%3CmxCell%20id%3D%2220%22%20value%3D%22Voters%20Guide%22%20style%3D%22ellipse%3BwhiteSpace%3Dwrap%3Bhtml%3D1%3B%22%20vertex%3D%221%22%20parent%3D%221%22%3E%3CmxGeometry%20x%3D%22175%22%20y%3D%22-470%22%20width%3D%22120%22%20height%3D%2280%22%20as%3D%22geometry%22%2F%3E%3C%2FmxCell%3E%3CmxCell%20id%3D%2221%22%20value%3D%22Candidate%20Guide%22%20style%3D%22ellipse%3BwhiteSpace%3Dwrap%3Bhtml%3D1%3Bdirection%3Deast%3B%22%20vertex%3D%221%22%20parent%3D%221%22%3E%3CmxGeometry%20x%3D%22-30%22%20y%3D%22-410%22%20width%3D%22120%22%20height%3D%2280%22%20as%3D%22geometry%22%2F%3E%3C%2FmxCell%3E%3CmxCell%20id%3D%2222%22%20value%3D%22Party%20Guide%22%20style%3D%22ellipse%3BwhiteSpace%3Dwrap%3Bhtml%3D1%3B%22%20vertex%3D%221%22%20parent%3D%221%22%3E%3CmxGeometry%20x%3D%22-40%22%20y%3D%22-250%22%20width%3D%22120%22%20height%3D%2280%22%20as%3D%22geometry%22%2F%3E%3C%2FmxCell%3E%3CmxCell%20id%3D%2223%22%20value%3D%22%22%20style%3D%22endArrow%3Dnone%3Bhtml%3D1%3Brounded%3D0%3BentryX%3D1%3BentryY%3D0.5%3BentryDx%3D0%3BentryDy%3D0%3BexitX%3D-0.058%3BexitY%3D0.875%3BexitDx%3D0%3BexitDy%3D0%3BexitPerimeter%3D0%3B%22%20edge%3D%221%22%20source%3D%2219%22%20target%3D%2222%22%20parent%3D%221%22%3E%3CmxGeometry%20width%3D%2250%22%20height%3D%2250%22%20relative%3D%221%22%20as%3D%22geometry%22%3E%3CmxPoint%20x%3D%22218%22%20y%3D%22-226%22%20as%3D%22sourcePoint%22%2F%3E%3CmxPoint%20x%3D%22308%22%20y%3D%22-70%22%20as%3D%22targetPoint%22%2F%3E%3CArray%20as%3D%22points%22%2F%3E%3C%2FmxGeometry%3E%3C%2FmxCell%3E%3CmxCell%20id%3D%2224%22%20value%3D%22%22%20style%3D%22endArrow%3Dnone%3Bhtml%3D1%3Brounded%3D0%3BentryX%3D0.5%3BentryY%3D1%3BentryDx%3D0%3BentryDy%3D0%3BexitX%3D0.5%3BexitY%3D0%3BexitDx%3D0%3BexitDy%3D0%3B%22%20edge%3D%221%22%20source%3D%2219%22%20target%3D%2220%22%20parent%3D%221%22%3E%3CmxGeometry%20width%3D%2250%22%20height%3D%2250%22%20relative%3D%221%22%20as%3D%22geometry%22%3E%3CmxPoint%20x%3D%22242%22%20y%3D%22-200%22%20as%3D%22sourcePoint%22%2F%3E%3CmxPoint%20x%3D%22258%22%20y%3D%22-60%22%20as%3D%22targetPoint%22%2F%3E%3C%2FmxGeometry%3E%3C%2FmxCell%3E%3CmxCell%20id%3D%2225%22%20value%3D%22%22%20style%3D%22endArrow%3Dnone%3Bhtml%3D1%3Brounded%3D0%3BentryX%3D0.992%3BentryY%3D0.615%3BentryDx%3D0%3BentryDy%3D0%3BexitX%3D0%3BexitY%3D0%3BexitDx%3D0%3BexitDy%3D0%3BentryPerimeter%3D0%3B%22%20edge%3D%221%22%20source%3D%2219%22%20target%3D%2221%22%20parent%3D%221%22%3E%3CmxGeometry%20width%3D%2250%22%20height%3D%2250%22%20relative%3D%221%22%20as%3D%22geometry%22%3E%3CmxPoint%20x%3D%22238%22%20y%3D%22-280%22%20as%3D%22sourcePoint%22%2F%3E%3CmxPoint%20x%3D%22245%22%20y%3D%22-380%22%20as%3D%22targetPoint%22%2F%3E%3C%2FmxGeometry%3E%3C%2FmxCell%3E%3C%2Froot%3E%3C%2FmxGraphModel%3E&lt;/span&gt;" style="text;html=1;align=center;verticalAlign=middle;resizable=0;points=[];autosize=1;strokeColor=none;fillColor=none;" parent="1" vertex="1">
          <mxGeometry x="380" y="476" width="20" height="30" as="geometry" />
        </mxCell>
        <mxCell id="_JjsHGZuqhBBGKbj4It--82" value="Parties" style="shape=image;verticalLabelPosition=bottom;verticalAlign=top;imageAspect=0;aspect=fixed;image=data:image/svg+xml,PHN2ZyB4bWxucz0iaHR0cDovL3d3dy53My5vcmcvMjAwMC9zdmciIHZlcnNpb249IjEiIHZpZXdCb3g9IjAgMCA0OCA0OCIgZW5hYmxlLWJhY2tncm91bmQ9Im5ldyAwIDAgNDggNDgiPiYjeGE7ICAgIDxwb2x5Z29uIGZpbGw9IiNGRjk4MDAiIHBvaW50cz0iMjQsMzcgMTksMzEgMTksMjUgMjksMjUgMjksMzEiLz4mI3hhOyAgICA8ZyBmaWxsPSIjRkZBNzI2Ij4mI3hhOyAgICAgICAgPGNpcmNsZSBjeD0iMzMiIGN5PSIxOSIgcj0iMiIvPiYjeGE7ICAgICAgICA8Y2lyY2xlIGN4PSIxNSIgY3k9IjE5IiByPSIyIi8+JiN4YTsgICAgPC9nPiYjeGE7ICAgIDxwYXRoIGZpbGw9IiNGRkI3NEQiIGQ9Ik0zMywxM2MwLTcuNi0xOC01LTE4LDBjMCwxLjEsMCw1LjksMCw3YzAsNSw0LDksOSw5czktNCw5LTlDMzMsMTguOSwzMywxNC4xLDMzLDEzeiIvPiYjeGE7ICAgIDxwYXRoIGZpbGw9IiM0MjQyNDIiIGQ9Ik0yNCw0Yy02LjEsMC0xMCw0LjktMTAsMTFjMCwwLjgsMCwyLjMsMCwyLjNsMiwxLjd2LTVsMTItNGw0LDR2NWwyLTEuN2MwLDAsMC0xLjUsMC0yLjNjMC00LTEtOC02LTlsLTEtMiBIMjR6Ii8+JiN4YTsgICAgPGcgZmlsbD0iIzc4NDcxOSI+JiN4YTsgICAgICAgIDxjaXJjbGUgY3g9IjI4IiBjeT0iMTkiIHI9IjEiLz4mI3hhOyAgICAgICAgPGNpcmNsZSBjeD0iMjAiIGN5PSIxOSIgcj0iMSIvPiYjeGE7ICAgIDwvZz4mI3hhOyAgICA8cG9seWdvbiBmaWxsPSIjZmZmIiBwb2ludHM9IjI0LDQzIDE5LDMxIDI0LDMyIDI5LDMxIi8+JiN4YTsgICAgPHBvbHlnb24gZmlsbD0iI0QzMkYyRiIgcG9pbnRzPSIyMywzNSAyMi4zLDM5LjUgMjQsNDMuNSAyNS43LDM5LjUgMjUsMzUgMjYsMzQgMjQsMzIgMjIsMzQiLz4mI3hhOyAgICA8cGF0aCBmaWxsPSIjNTQ2RTdBIiBkPSJNMjksMzFMMjksMzFsLTUsMTJsLTUtMTJjMCwwLTExLDItMTEsMTNoMzJDNDAsMzMsMjksMzEsMjksMzF6Ii8+JiN4YTs8L3N2Zz4=;labelBackgroundColor=#ffffff;" parent="1" vertex="1">
          <mxGeometry x="-300" y="498.5" width="71.5" height="71.5" as="geometry" />
        </mxCell>
        <mxCell id="_JjsHGZuqhBBGKbj4It--83" value="Manage Candidate" style="ellipse;whiteSpace=wrap;html=1;" parent="1" vertex="1">
          <mxGeometry x="-180" y="678.5" width="120" height="80" as="geometry" />
        </mxCell>
        <mxCell id="_JjsHGZuqhBBGKbj4It--85" value="Login" style="ellipse;whiteSpace=wrap;html=1;" parent="1" vertex="1">
          <mxGeometry x="-76" y="466.5" width="120" height="80" as="geometry" />
        </mxCell>
        <mxCell id="_JjsHGZuqhBBGKbj4It--86" value="Registration" style="ellipse;whiteSpace=wrap;html=1;" parent="1" vertex="1">
          <mxGeometry x="-125.62" y="343.5" width="120" height="80" as="geometry" />
        </mxCell>
        <mxCell id="_JjsHGZuqhBBGKbj4It--87" value="" style="endArrow=none;html=1;rounded=0;exitX=1;exitY=0.5;exitDx=0;exitDy=0;entryX=0.097;entryY=0.855;entryDx=0;entryDy=0;entryPerimeter=0;" parent="1" source="_JjsHGZuqhBBGKbj4It--82" target="_JjsHGZuqhBBGKbj4It--86" edge="1">
          <mxGeometry width="50" height="50" relative="1" as="geometry">
            <mxPoint x="90" y="688.5" as="sourcePoint" />
            <mxPoint x="140" y="638.5" as="targetPoint" />
          </mxGeometry>
        </mxCell>
        <mxCell id="_JjsHGZuqhBBGKbj4It--88" value="" style="endArrow=none;html=1;rounded=0;exitX=1;exitY=0.5;exitDx=0;exitDy=0;entryX=0;entryY=0.5;entryDx=0;entryDy=0;" parent="1" source="_JjsHGZuqhBBGKbj4It--82" target="_JjsHGZuqhBBGKbj4It--85" edge="1">
          <mxGeometry width="50" height="50" relative="1" as="geometry">
            <mxPoint x="-242" y="532.5" as="sourcePoint" />
            <mxPoint x="-102" y="446.5" as="targetPoint" />
          </mxGeometry>
        </mxCell>
        <mxCell id="_JjsHGZuqhBBGKbj4It--90" value="" style="endArrow=none;html=1;rounded=0;exitX=1;exitY=0.75;exitDx=0;exitDy=0;entryX=0;entryY=0;entryDx=0;entryDy=0;" parent="1" source="_JjsHGZuqhBBGKbj4It--82" target="_JjsHGZuqhBBGKbj4It--83" edge="1">
          <mxGeometry width="50" height="50" relative="1" as="geometry">
            <mxPoint x="-222" y="552.5" as="sourcePoint" />
            <mxPoint x="-82" y="466.5" as="targetPoint" />
          </mxGeometry>
        </mxCell>
        <mxCell id="_JjsHGZuqhBBGKbj4It--91" value="Election result" style="ellipse;whiteSpace=wrap;html=1;" parent="1" vertex="1">
          <mxGeometry x="670" y="668" width="120" height="80" as="geometry" />
        </mxCell>
        <mxCell id="_JjsHGZuqhBBGKbj4It--92" value="View Election Date" style="ellipse;whiteSpace=wrap;html=1;" parent="1" vertex="1">
          <mxGeometry x="844" y="578" width="120" height="80" as="geometry" />
        </mxCell>
        <mxCell id="_JjsHGZuqhBBGKbj4It--93" value="Search Electoral Role" style="ellipse;whiteSpace=wrap;html=1;" parent="1" vertex="1">
          <mxGeometry x="844" y="448" width="120" height="80" as="geometry" />
        </mxCell>
        <mxCell id="_JjsHGZuqhBBGKbj4It--94" value="Know All Candidates" style="ellipse;whiteSpace=wrap;html=1;" parent="1" vertex="1">
          <mxGeometry x="770" y="335" width="120" height="80" as="geometry" />
        </mxCell>
        <mxCell id="_JjsHGZuqhBBGKbj4It--95" value="" style="endArrow=none;html=1;rounded=0;entryX=0.097;entryY=0.855;entryDx=0;entryDy=0;entryPerimeter=0;" parent="1" target="_JjsHGZuqhBBGKbj4It--94" edge="1">
          <mxGeometry width="50" height="50" relative="1" as="geometry">
            <mxPoint x="650" y="500" as="sourcePoint" />
            <mxPoint x="1056" y="628" as="targetPoint" />
          </mxGeometry>
        </mxCell>
        <mxCell id="_JjsHGZuqhBBGKbj4It--96" value="" style="endArrow=none;html=1;rounded=0;exitX=1;exitY=0.5;exitDx=0;exitDy=0;entryX=0;entryY=0.5;entryDx=0;entryDy=0;" parent="1" source="_JjsHGZuqhBBGKbj4It--99" target="_JjsHGZuqhBBGKbj4It--93" edge="1">
          <mxGeometry width="50" height="50" relative="1" as="geometry">
            <mxPoint x="664" y="512" as="sourcePoint" />
            <mxPoint x="814" y="436" as="targetPoint" />
          </mxGeometry>
        </mxCell>
        <mxCell id="_JjsHGZuqhBBGKbj4It--97" value="" style="endArrow=none;html=1;rounded=0;exitX=1;exitY=0.75;exitDx=0;exitDy=0;entryX=0.1;entryY=0.125;entryDx=0;entryDy=0;entryPerimeter=0;" parent="1" source="_JjsHGZuqhBBGKbj4It--99" target="_JjsHGZuqhBBGKbj4It--92" edge="1">
          <mxGeometry width="50" height="50" relative="1" as="geometry">
            <mxPoint x="664" y="524" as="sourcePoint" />
            <mxPoint x="824" y="446" as="targetPoint" />
          </mxGeometry>
        </mxCell>
        <mxCell id="_JjsHGZuqhBBGKbj4It--98" value="" style="endArrow=none;html=1;rounded=0;entryX=0;entryY=0;entryDx=0;entryDy=0;" parent="1" source="_JjsHGZuqhBBGKbj4It--99" target="_JjsHGZuqhBBGKbj4It--91" edge="1">
          <mxGeometry width="50" height="50" relative="1" as="geometry">
            <mxPoint x="664" y="524" as="sourcePoint" />
            <mxPoint x="834" y="456" as="targetPoint" />
          </mxGeometry>
        </mxCell>
        <mxCell id="_JjsHGZuqhBBGKbj4It--99" value="User Without Account" style="shape=image;verticalLabelPosition=bottom;verticalAlign=top;imageAspect=0;aspect=fixed;image=data:image/svg+xml,PHN2ZyB4bWxucz0iaHR0cDovL3d3dy53My5vcmcvMjAwMC9zdmciIHZlcnNpb249IjEiIHZpZXdCb3g9IjAgMCA0OCA0OCIgZW5hYmxlLWJhY2tncm91bmQ9Im5ldyAwIDAgNDggNDgiPiYjeGE7ICAgIDxwb2x5Z29uIGZpbGw9IiNGRjk4MDAiIHBvaW50cz0iMjQsMzcgMTksMzEgMTksMjUgMjksMjUgMjksMzEiLz4mI3hhOyAgICA8ZyBmaWxsPSIjRkZBNzI2Ij4mI3hhOyAgICAgICAgPGNpcmNsZSBjeD0iMzMiIGN5PSIxOSIgcj0iMiIvPiYjeGE7ICAgICAgICA8Y2lyY2xlIGN4PSIxNSIgY3k9IjE5IiByPSIyIi8+JiN4YTsgICAgPC9nPiYjeGE7ICAgIDxwYXRoIGZpbGw9IiNGRkI3NEQiIGQ9Ik0zMywxM2MwLTcuNi0xOC01LTE4LDBjMCwxLjEsMCw1LjksMCw3YzAsNSw0LDksOSw5czktNCw5LTlDMzMsMTguOSwzMywxNC4xLDMzLDEzeiIvPiYjeGE7ICAgIDxwYXRoIGZpbGw9IiM0MjQyNDIiIGQ9Ik0yNCw0Yy02LjEsMC0xMCw0LjktMTAsMTFjMCwwLjgsMCwyLjMsMCwyLjNsMiwxLjd2LTVsMTItNGw0LDR2NWwyLTEuN2MwLDAsMC0xLjUsMC0yLjNjMC00LTEtOC02LTlsLTEtMiBIMjR6Ii8+JiN4YTsgICAgPGcgZmlsbD0iIzc4NDcxOSI+JiN4YTsgICAgICAgIDxjaXJjbGUgY3g9IjI4IiBjeT0iMTkiIHI9IjEiLz4mI3hhOyAgICAgICAgPGNpcmNsZSBjeD0iMjAiIGN5PSIxOSIgcj0iMSIvPiYjeGE7ICAgIDwvZz4mI3hhOyAgICA8cG9seWdvbiBmaWxsPSIjZmZmIiBwb2ludHM9IjI0LDQzIDE5LDMxIDI0LDMyIDI5LDMxIi8+JiN4YTsgICAgPHBvbHlnb24gZmlsbD0iI0QzMkYyRiIgcG9pbnRzPSIyMywzNSAyMi4zLDM5LjUgMjQsNDMuNSAyNS43LDM5LjUgMjUsMzUgMjYsMzQgMjQsMzIgMjIsMzQiLz4mI3hhOyAgICA8cGF0aCBmaWxsPSIjNTQ2RTdBIiBkPSJNMjksMzFMMjksMzFsLTUsMTJsLTUtMTJjMCwwLTExLDItMTEsMTNoMzJDNDAsMzMsMjksMzEsMjksMzF6Ii8+JiN4YTs8L3N2Zz4=;labelBackgroundColor=#ffffff;" parent="1" vertex="1">
          <mxGeometry x="578" y="478" width="80" height="80" as="geometry" />
        </mxCell>
        <mxCell id="_JjsHGZuqhBBGKbj4It--100" value="Voters Guide" style="ellipse;whiteSpace=wrap;html=1;" parent="1" vertex="1">
          <mxGeometry x="630.62" y="270" width="120" height="80" as="geometry" />
        </mxCell>
        <mxCell id="_JjsHGZuqhBBGKbj4It--101" value="Candidate Guide" style="ellipse;whiteSpace=wrap;html=1;direction=east;" parent="1" vertex="1">
          <mxGeometry x="388.13" y="350" width="120" height="80" as="geometry" />
        </mxCell>
        <mxCell id="_JjsHGZuqhBBGKbj4It--102" value="Party Guide" style="ellipse;whiteSpace=wrap;html=1;" parent="1" vertex="1">
          <mxGeometry x="330" y="490" width="120" height="80" as="geometry" />
        </mxCell>
        <mxCell id="_JjsHGZuqhBBGKbj4It--103" value="" style="endArrow=none;html=1;rounded=0;entryX=1;entryY=0.5;entryDx=0;entryDy=0;exitX=-0.002;exitY=0.632;exitDx=0;exitDy=0;exitPerimeter=0;" parent="1" source="_JjsHGZuqhBBGKbj4It--99" target="_JjsHGZuqhBBGKbj4It--102" edge="1">
          <mxGeometry width="50" height="50" relative="1" as="geometry">
            <mxPoint x="608" y="542" as="sourcePoint" />
            <mxPoint x="698" y="698" as="targetPoint" />
            <Array as="points" />
          </mxGeometry>
        </mxCell>
        <mxCell id="_JjsHGZuqhBBGKbj4It--104" value="" style="endArrow=none;html=1;rounded=0;entryX=0.5;entryY=1;entryDx=0;entryDy=0;exitX=0.5;exitY=0;exitDx=0;exitDy=0;" parent="1" source="_JjsHGZuqhBBGKbj4It--99" target="_JjsHGZuqhBBGKbj4It--100" edge="1">
          <mxGeometry width="50" height="50" relative="1" as="geometry">
            <mxPoint x="632" y="568" as="sourcePoint" />
            <mxPoint x="648" y="708" as="targetPoint" />
          </mxGeometry>
        </mxCell>
        <mxCell id="_JjsHGZuqhBBGKbj4It--105" value="" style="endArrow=none;html=1;rounded=0;entryX=1;entryY=1;entryDx=0;entryDy=0;" parent="1" source="_JjsHGZuqhBBGKbj4It--99" target="_JjsHGZuqhBBGKbj4It--101" edge="1">
          <mxGeometry width="50" height="50" relative="1" as="geometry">
            <mxPoint x="628" y="488" as="sourcePoint" />
            <mxPoint x="635" y="388" as="targetPoint" />
          </mxGeometry>
        </mxCell>
        <mxCell id="_JjsHGZuqhBBGKbj4It--107" style="rounded=0;orthogonalLoop=1;jettySize=auto;html=1;endArrow=none;endFill=0;sourcePerimeterSpacing=5;targetPerimeterSpacing=5;exitX=0.5;exitY=1;exitDx=0;exitDy=0;entryX=0.25;entryY=0;entryDx=0;entryDy=0;" parent="1" source="_JjsHGZuqhBBGKbj4It--108" target="_JjsHGZuqhBBGKbj4It--1" edge="1">
          <mxGeometry relative="1" as="geometry">
            <mxPoint x="-51.5" y="-420" as="sourcePoint" />
            <mxPoint x="-155.5" y="-330" as="targetPoint" />
          </mxGeometry>
        </mxCell>
        <mxCell id="_JjsHGZuqhBBGKbj4It--108" value="view my candiate" style="ellipse;whiteSpace=wrap;html=1;" parent="1" vertex="1">
          <mxGeometry x="-107.5" y="-447" width="108" height="79" as="geometry" />
        </mxCell>
        <mxCell id="_JjsHGZuqhBBGKbj4It--110" value="" style="shape=image;verticalLabelPosition=bottom;labelBackgroundColor=default;verticalAlign=top;aspect=fixed;imageAspect=0;image=data:image/svg+xml,PHN2ZyB4bWxucz0iaHR0cDovL3d3dy53My5vcmcvMjAwMC9zdmciIHZpZXdCb3g9IjAgMCA2NDAgNTEyIj48cGF0aCBkPSJNMTQ0IDBhODAgODAgMCAxIDEgMCAxNjBBODAgODAgMCAxIDEgMTQ0IDB6TTUxMiAwYTgwIDgwIDAgMSAxIDAgMTYwQTgwIDgwIDAgMSAxIDUxMiAwek0wIDI5OC43QzAgMjM5LjggNDcuOCAxOTIgMTA2LjcgMTkyaDQyLjdjMTUuOSAwIDMxIDMuNSA0NC42IDkuN2MtMS4zIDcuMi0xLjkgMTQuNy0xLjkgMjIuM2MwIDM4LjIgMTYuOCA3Mi41IDQzLjMgOTZjLS4yIDAtLjQgMC0uNyAwSDIxLjNDOS42IDMyMCAwIDMxMC40IDAgMjk4Ljd6TTQwNS4zIDMyMGMtLjIgMC0uNCAwLS43IDBjMjYuNi0yMy41IDQzLjMtNTcuOCA0My4zLTk2YzAtNy42LS43LTE1LTEuOS0yMi4zYzEzLjYtNi4zIDI4LjctOS43IDQ0LjYtOS43aDQyLjdDNTkyLjIgMTkyIDY0MCAyMzkuOCA2NDAgMjk4LjdjMCAxMS44LTkuNiAyMS4zLTIxLjMgMjEuM0g0MDUuM3pNMjI0IDIyNGE5NiA5NiAwIDEgMSAxOTIgMCA5NiA5NiAwIDEgMSAtMTkyIDB6TTEyOCA0ODUuM0MxMjggNDExLjcgMTg3LjcgMzUyIDI2MS4zIDM1MkgzNzguN0M0NTIuMyAzNTIgNTEyIDQxMS43IDUxMiA0ODUuM2MwIDE0LjctMTEuOSAyNi43LTI2LjcgMjYuN0gxNTQuN2MtMTQuNyAwLTI2LjctMTEuOS0yNi43LTI2Ljd6Ii8+PC9zdmc+;" parent="1" vertex="1">
          <mxGeometry x="-78.75" y="-471" width="62.5" height="50" as="geometry" />
        </mxCell>
        <mxCell id="_JjsHGZuqhBBGKbj4It--111" value="" style="shape=image;verticalLabelPosition=bottom;labelBackgroundColor=default;verticalAlign=top;aspect=fixed;imageAspect=0;image=data:image/svg+xml,PHN2ZyB4bWxucz0iaHR0cDovL3d3dy53My5vcmcvMjAwMC9zdmciIHZpZXdCb3g9IjAgMCA2NDAgNTEyIj48cGF0aCBkPSJNMTQ0IDBhODAgODAgMCAxIDEgMCAxNjBBODAgODAgMCAxIDEgMTQ0IDB6TTUxMiAwYTgwIDgwIDAgMSAxIDAgMTYwQTgwIDgwIDAgMSAxIDUxMiAwek0wIDI5OC43QzAgMjM5LjggNDcuOCAxOTIgMTA2LjcgMTkyaDQyLjdjMTUuOSAwIDMxIDMuNSA0NC42IDkuN2MtMS4zIDcuMi0xLjkgMTQuNy0xLjkgMjIuM2MwIDM4LjIgMTYuOCA3Mi41IDQzLjMgOTZjLS4yIDAtLjQgMC0uNyAwSDIxLjNDOS42IDMyMCAwIDMxMC40IDAgMjk4Ljd6TTQwNS4zIDMyMGMtLjIgMC0uNCAwLS43IDBjMjYuNi0yMy41IDQzLjMtNTcuOCA0My4zLTk2YzAtNy42LS43LTE1LTEuOS0yMi4zYzEzLjYtNi4zIDI4LjctOS43IDQ0LjYtOS43aDQyLjdDNTkyLjIgMTkyIDY0MCAyMzkuOCA2NDAgMjk4LjdjMCAxMS44LTkuNiAyMS4zLTIxLjMgMjEuM0g0MDUuM3pNMjI0IDIyNGE5NiA5NiAwIDEgMSAxOTIgMCA5NiA5NiAwIDEgMSAtMTkyIDB6TTEyOCA0ODUuM0MxMjggNDExLjcgMTg3LjcgMzUyIDI2MS4zIDM1MkgzNzguN0M0NTIuMyAzNTIgNTEyIDQxMS43IDUxMiA0ODUuM2MwIDE0LjctMTEuOSAyNi43LTI2LjcgMjYuN0gxNTQuN2MtMTQuNyAwLTI2LjctMTEuOS0yNi43LTI2Ljd6Ii8+PC9zdmc+;" parent="1" vertex="1">
          <mxGeometry x="1489.75" y="-300.5" width="62.5" height="50" as="geometry" />
        </mxCell>
        <mxCell id="_JjsHGZuqhBBGKbj4It--112" value="" style="shape=image;verticalLabelPosition=bottom;labelBackgroundColor=default;verticalAlign=top;aspect=fixed;imageAspect=0;image=data:image/svg+xml,PHN2ZyB4bWxucz0iaHR0cDovL3d3dy53My5vcmcvMjAwMC9zdmciIHZpZXdCb3g9IjAgMCA1NzYgNTEyIj48cGF0aCBkPSJNOTYgODBjMC0yNi41IDIxLjUtNDggNDgtNDhINDMyYzI2LjUgMCA0OCAyMS41IDQ4IDQ4VjM4NEg5NlY4MHptMzEzIDQ3Yy05LjQtOS40LTI0LjYtOS40LTMzLjkgMGwtMTExIDExMS00Ny00N2MtOS40LTkuNC0yNC42LTkuNC0zMy45IDBzLTkuNCAyNC42IDAgMzMuOWw2NCA2NGM5LjQgOS40IDI0LjYgOS40IDMzLjkgMEw0MDkgMTYxYzkuNC05LjQgOS40LTI0LjYgMC0zMy45ek0wIDMzNmMwLTI2LjUgMjEuNS00OCA0OC00OEg2NFY0MTZINTEyVjI4OGgxNmMyNi41IDAgNDggMjEuNSA0OCA0OHY5NmMwIDI2LjUtMjEuNSA0OC00OCA0OEg0OGMtMjYuNSAwLTQ4LTIxLjUtNDgtNDhWMzM2eiIvPjwvc3ZnPg==;" parent="1" vertex="1">
          <mxGeometry x="840" y="-121.5" width="56.25" height="50" as="geometry" />
        </mxCell>
        <mxCell id="_JjsHGZuqhBBGKbj4It--113" value="" style="shape=image;verticalLabelPosition=bottom;labelBackgroundColor=default;verticalAlign=top;aspect=fixed;imageAspect=0;image=data:image/svg+xml,PHN2ZyB4bWxucz0iaHR0cDovL3d3dy53My5vcmcvMjAwMC9zdmciIHZpZXdCb3g9IjAgMCA1NzYgNTEyIj48cGF0aCBkPSJNOTYgODBjMC0yNi41IDIxLjUtNDggNDgtNDhINDMyYzI2LjUgMCA0OCAyMS41IDQ4IDQ4VjM4NEg5NlY4MHptMzEzIDQ3Yy05LjQtOS40LTI0LjYtOS40LTMzLjkgMGwtMTExIDExMS00Ny00N2MtOS40LTkuNC0yNC42LTkuNC0zMy45IDBzLTkuNCAyNC42IDAgMzMuOWw2NCA2NGM5LjQgOS40IDI0LjYgOS40IDMzLjkgMEw0MDkgMTYxYzkuNC05LjQgOS40LTI0LjYgMC0zMy45ek0wIDMzNmMwLTI2LjUgMjEuNS00OCA0OC00OEg2NFY0MTZINTEyVjI4OGgxNmMyNi41IDAgNDggMjEuNSA0OCA0OHY5NmMwIDI2LjUtMjEuNSA0OC00OCA0OEg0OGMtMjYuNSAwLTQ4LTIxLjUtNDgtNDhWMzM2eiIvPjwvc3ZnPg==;" parent="1" vertex="1">
          <mxGeometry x="420" y="-279" width="56.25" height="50" as="geometry" />
        </mxCell>
        <mxCell id="_JjsHGZuqhBBGKbj4It--114" value="" style="shape=image;verticalLabelPosition=bottom;labelBackgroundColor=default;verticalAlign=top;aspect=fixed;imageAspect=0;image=data:image/svg+xml,PHN2ZyB4bWxucz0iaHR0cDovL3d3dy53My5vcmcvMjAwMC9zdmciIHZpZXdCb3g9IjAgMCA1MTIgNTEyIj48cGF0aCBkPSJNMjE3LjkgMTA1LjlMMzQwLjcgMjI4LjdjNy4yIDcuMiAxMS4zIDE3LjEgMTEuMyAyNy4zcy00LjEgMjAuMS0xMS4zIDI3LjNMMjE3LjkgNDA2LjFjLTYuNCA2LjQtMTUgOS45LTI0IDkuOWMtMTguNyAwLTMzLjktMTUuMi0zMy45LTMzLjlsMC02Mi4xTDMyIDMyMGMtMTcuNyAwLTMyLTE0LjMtMzItMzJsMC02NGMwLTE3LjcgMTQuMy0zMiAzMi0zMmwxMjggMCAwLTYyLjFjMC0xOC43IDE1LjItMzMuOSAzMy45LTMzLjljOSAwIDE3LjYgMy42IDI0IDkuOXpNMzUyIDQxNmw2NCAwYzE3LjcgMCAzMi0xNC4zIDMyLTMybDAtMjU2YzAtMTcuNy0xNC4zLTMyLTMyLTMybC02NCAwYy0xNy43IDAtMzItMTQuMy0zMi0zMnMxNC4zLTMyIDMyLTMybDY0IDBjNTMgMCA5NiA0MyA5NiA5NmwwIDI1NmMwIDUzLTQzIDk2LTk2IDk2bC02NCAwYy0xNy43IDAtMzItMTQuMy0zMi0zMnMxNC4zLTMyIDMyLTMyeiIvPjwvc3ZnPg==;" parent="1" vertex="1">
          <mxGeometry x="170" y="-449" width="49" height="49" as="geometry" />
        </mxCell>
        <mxCell id="_JjsHGZuqhBBGKbj4It--115" value="" style="shape=image;verticalLabelPosition=bottom;labelBackgroundColor=default;verticalAlign=top;aspect=fixed;imageAspect=0;image=data:image/svg+xml,PHN2ZyB4bWxucz0iaHR0cDovL3d3dy53My5vcmcvMjAwMC9zdmciIHZpZXdCb3g9IjAgMCA1MTIgNTEyIj48cGF0aCBkPSJNMjE3LjkgMTA1LjlMMzQwLjcgMjI4LjdjNy4yIDcuMiAxMS4zIDE3LjEgMTEuMyAyNy4zcy00LjEgMjAuMS0xMS4zIDI3LjNMMjE3LjkgNDA2LjFjLTYuNCA2LjQtMTUgOS45LTI0IDkuOWMtMTguNyAwLTMzLjktMTUuMi0zMy45LTMzLjlsMC02Mi4xTDMyIDMyMGMtMTcuNyAwLTMyLTE0LjMtMzItMzJsMC02NGMwLTE3LjcgMTQuMy0zMiAzMi0zMmwxMjggMCAwLTYyLjFjMC0xOC43IDE1LjItMzMuOSAzMy45LTMzLjljOSAwIDE3LjYgMy42IDI0IDkuOXpNMzUyIDQxNmw2NCAwYzE3LjcgMCAzMi0xNC4zIDMyLTMybDAtMjU2YzAtMTcuNy0xNC4zLTMyLTMyLTMybC02NCAwYy0xNy43IDAtMzItMTQuMy0zMi0zMnMxNC4zLTMyIDMyLTMybDY0IDBjNTMgMCA5NiA0MyA5NiA5NmwwIDI1NmMwIDUzLTQzIDk2LTk2IDk2bC02NCAwYy0xNy43IDAtMzItMTQuMy0zMi0zMnMxNC4zLTMyIDMyLTMyeiIvPjwvc3ZnPg==;" parent="1" vertex="1">
          <mxGeometry x="1170" y="-481.5" width="49" height="49" as="geometry" />
        </mxCell>
        <mxCell id="_JjsHGZuqhBBGKbj4It--116" value="" style="shape=image;verticalLabelPosition=bottom;labelBackgroundColor=default;verticalAlign=top;aspect=fixed;imageAspect=0;image=data:image/svg+xml,PHN2ZyB4bWxucz0iaHR0cDovL3d3dy53My5vcmcvMjAwMC9zdmciIHZpZXdCb3g9IjAgMCA1MTIgNTEyIj48cGF0aCBkPSJNMjE3LjkgMTA1LjlMMzQwLjcgMjI4LjdjNy4yIDcuMiAxMS4zIDE3LjEgMTEuMyAyNy4zcy00LjEgMjAuMS0xMS4zIDI3LjNMMjE3LjkgNDA2LjFjLTYuNCA2LjQtMTUgOS45LTI0IDkuOWMtMTguNyAwLTMzLjktMTUuMi0zMy45LTMzLjlsMC02Mi4xTDMyIDMyMGMtMTcuNyAwLTMyLTE0LjMtMzItMzJsMC02NGMwLTE3LjcgMTQuMy0zMiAzMi0zMmwxMjggMCAwLTYyLjFjMC0xOC43IDE1LjItMzMuOSAzMy45LTMzLjljOSAwIDE3LjYgMy42IDI0IDkuOXpNMzUyIDQxNmw2NCAwYzE3LjcgMCAzMi0xNC4zIDMyLTMybDAtMjU2YzAtMTcuNy0xNC4zLTMyLTMyLTMybC02NCAwYy0xNy43IDAtMzItMTQuMy0zMi0zMnMxNC4zLTMyIDMyLTMybDY0IDBjNTMgMCA5NiA0MyA5NiA5NmwwIDI1NmMwIDUzLTQzIDk2LTk2IDk2bC02NCAwYy0xNy43IDAtMzItMTQuMy0zMi0zMnMxNC4zLTMyIDMyLTMyeiIvPjwvc3ZnPg==;" parent="1" vertex="1">
          <mxGeometry x="-36.5" y="449.5" width="49" height="49" as="geometry" />
        </mxCell>
        <mxCell id="_JjsHGZuqhBBGKbj4It--117" value="" style="shape=image;verticalLabelPosition=bottom;labelBackgroundColor=default;verticalAlign=top;aspect=fixed;imageAspect=0;image=data:image/svg+xml,PHN2ZyB4bWxucz0iaHR0cDovL3d3dy53My5vcmcvMjAwMC9zdmciIHZpZXdCb3g9IjAgMCA1NzYgNTEyIj48cGF0aCBkPSJNNTI4IDE2MFY0MTZjMCA4LjgtNy4yIDE2LTE2IDE2SDMyMGMwLTQ0LjItMzUuOC04MC04MC04MEgxNzZjLTQ0LjIgMC04MCAzNS44LTgwIDgwSDY0Yy04LjggMC0xNi03LjItMTYtMTZWMTYwSDUyOHpNNjQgMzJDMjguNyAzMiAwIDYwLjcgMCA5NlY0MTZjMCAzNS4zIDI4LjcgNjQgNjQgNjRINTEyYzM1LjMgMCA2NC0yOC43IDY0LTY0Vjk2YzAtMzUuMy0yOC43LTY0LTY0LTY0SDY0ek0yNzIgMjU2YTY0IDY0IDAgMSAwIC0xMjggMCA2NCA2NCAwIDEgMCAxMjggMHptMTA0LTQ4Yy0xMy4zIDAtMjQgMTAuNy0yNCAyNHMxMC43IDI0IDI0IDI0aDgwYzEzLjMgMCAyNC0xMC43IDI0LTI0cy0xMC43LTI0LTI0LTI0SDM3NnptMCA5NmMtMTMuMyAwLTI0IDEwLjctMjQgMjRzMTAuNyAyNCAyNCAyNGg4MGMxMy4zIDAgMjQtMTAuNyAyNC0yNHMtMTAuNy0yNC0yNC0yNEgzNzZ6Ii8+PC9zdmc+;" parent="1" vertex="1">
          <mxGeometry x="-69" y="20" width="58.5" height="52" as="geometry" />
        </mxCell>
        <mxCell id="_JjsHGZuqhBBGKbj4It--118" value="" style="shape=image;verticalLabelPosition=bottom;labelBackgroundColor=default;verticalAlign=top;aspect=fixed;imageAspect=0;image=data:image/svg+xml,PHN2ZyB4bWxucz0iaHR0cDovL3d3dy53My5vcmcvMjAwMC9zdmciIHZpZXdCb3g9IjAgMCA0NDggNTEyIj48cGF0aCBkPSJNNjQgMzJDMjguNyAzMiAwIDYwLjcgMCA5NlY0MTZjMCAzNS4zIDI4LjcgNjQgNjQgNjRIMzg0YzM1LjMgMCA2NC0yOC43IDY0LTY0Vjk2YzAtMzUuMy0yOC43LTY0LTY0LTY0SDY0em02NCAxOTJjMTcuNyAwIDMyIDE0LjMgMzIgMzJ2OTZjMCAxNy43LTE0LjMgMzItMzIgMzJzLTMyLTE0LjMtMzItMzJWMjU2YzAtMTcuNyAxNC4zLTMyIDMyLTMyem02NC02NGMwLTE3LjcgMTQuMy0zMiAzMi0zMnMzMiAxNC4zIDMyIDMyVjM1MmMwIDE3LjctMTQuMyAzMi0zMiAzMnMtMzItMTQuMy0zMi0zMlYxNjB6TTMyMCAyODhjMTcuNyAwIDMyIDE0LjMgMzIgMzJ2MzJjMCAxNy43LTE0LjMgMzItMzIgMzJzLTMyLTE0LjMtMzItMzJWMzIwYzAtMTcuNyAxNC4zLTMyIDMyLTMyeiIvPjwvc3ZnPg==;" parent="1" vertex="1">
          <mxGeometry x="708.13" y="648" width="43.75" height="50" as="geometry" />
        </mxCell>
        <mxCell id="_JjsHGZuqhBBGKbj4It--119" value="" style="shape=image;verticalLabelPosition=bottom;labelBackgroundColor=default;verticalAlign=top;aspect=fixed;imageAspect=0;image=data:image/svg+xml,PHN2ZyB4bWxucz0iaHR0cDovL3d3dy53My5vcmcvMjAwMC9zdmciIHZpZXdCb3g9IjAgMCA0NDggNTEyIj48cGF0aCBkPSJNNjQgMzJDMjguNyAzMiAwIDYwLjcgMCA5NlY0MTZjMCAzNS4zIDI4LjcgNjQgNjQgNjRIMzg0YzM1LjMgMCA2NC0yOC43IDY0LTY0Vjk2YzAtMzUuMy0yOC43LTY0LTY0LTY0SDY0em02NCAxOTJjMTcuNyAwIDMyIDE0LjMgMzIgMzJ2OTZjMCAxNy43LTE0LjMgMzItMzIgMzJzLTMyLTE0LjMtMzItMzJWMjU2YzAtMTcuNyAxNC4zLTMyIDMyLTMyem02NC02NGMwLTE3LjcgMTQuMy0zMiAzMi0zMnMzMiAxNC4zIDMyIDMyVjM1MmMwIDE3LjctMTQuMyAzMi0zMiAzMnMtMzItMTQuMy0zMi0zMlYxNjB6TTMyMCAyODhjMTcuNyAwIDMyIDE0LjMgMzIgMzJ2MzJjMCAxNy43LTE0LjMgMzItMzIgMzJzLTMyLTE0LjMtMzItMzJWMzIwYzAtMTcuNyAxNC4zLTMyIDMyLTMyeiIvPjwvc3ZnPg==;" parent="1" vertex="1">
          <mxGeometry x="-215.99" y="-46.5" width="43.75" height="50" as="geometry" />
        </mxCell>
        <mxCell id="_JjsHGZuqhBBGKbj4It--121" value="" style="shape=image;verticalLabelPosition=bottom;labelBackgroundColor=default;verticalAlign=top;aspect=fixed;imageAspect=0;image=data:image/svg+xml,PHN2ZyB4bWxucz0iaHR0cDovL3d3dy53My5vcmcvMjAwMC9zdmciIHZpZXdCb3g9IjAgMCA1NzYgNTEyIj48cGF0aCBkPSJNMjA4IDgwYzAtMjYuNSAyMS41LTQ4IDQ4LTQ4aDY0YzI2LjUgMCA0OCAyMS41IDQ4IDQ4djY0YzAgMjYuNS0yMS41IDQ4LTQ4IDQ4aC04djQwSDQ2NGMzMC45IDAgNTYgMjUuMSA1NiA1NnYzMmg4YzI2LjUgMCA0OCAyMS41IDQ4IDQ4djY0YzAgMjYuNS0yMS41IDQ4LTQ4IDQ4SDQ2NGMtMjYuNSAwLTQ4LTIxLjUtNDgtNDhWMzY4YzAtMjYuNSAyMS41LTQ4IDQ4LTQ4aDhWMjg4YzAtNC40LTMuNi04LTgtOEgzMTJ2NDBoOGMyNi41IDAgNDggMjEuNSA0OCA0OHY2NGMwIDI2LjUtMjEuNSA0OC00OCA0OEgyNTZjLTI2LjUgMC00OC0yMS41LTQ4LTQ4VjM2OGMwLTI2LjUgMjEuNS00OCA0OC00OGg4VjI4MEgxMTJjLTQuNCAwLTggMy42LTggOHYzMmg4YzI2LjUgMCA0OCAyMS41IDQ4IDQ4djY0YzAgMjYuNS0yMS41IDQ4LTQ4IDQ4SDQ4Yy0yNi41IDAtNDgtMjEuNS00OC00OFYzNjhjMC0yNi41IDIxLjUtNDggNDgtNDhoOFYyODhjMC0zMC45IDI1LjEtNTYgNTYtNTZIMjY0VjE5MmgtOGMtMjYuNSAwLTQ4LTIxLjUtNDgtNDhWODB6Ii8+PC9zdmc+;" parent="1" vertex="1">
          <mxGeometry x="860.6199999999999" y="-410.5" width="61.88" height="55" as="geometry" />
        </mxCell>
        <mxCell id="_JjsHGZuqhBBGKbj4It--122" value="" style="shape=image;verticalLabelPosition=bottom;labelBackgroundColor=default;verticalAlign=top;aspect=fixed;imageAspect=0;image=data:image/svg+xml,PHN2ZyB4bWxucz0iaHR0cDovL3d3dy53My5vcmcvMjAwMC9zdmciIHZpZXdCb3g9IjAgMCA1NzYgNTEyIj48cGF0aCBkPSJNMjA4IDgwYzAtMjYuNSAyMS41LTQ4IDQ4LTQ4aDY0YzI2LjUgMCA0OCAyMS41IDQ4IDQ4djY0YzAgMjYuNS0yMS41IDQ4LTQ4IDQ4aC04djQwSDQ2NGMzMC45IDAgNTYgMjUuMSA1NiA1NnYzMmg4YzI2LjUgMCA0OCAyMS41IDQ4IDQ4djY0YzAgMjYuNS0yMS41IDQ4LTQ4IDQ4SDQ2NGMtMjYuNSAwLTQ4LTIxLjUtNDgtNDhWMzY4YzAtMjYuNSAyMS41LTQ4IDQ4LTQ4aDhWMjg4YzAtNC40LTMuNi04LTgtOEgzMTJ2NDBoOGMyNi41IDAgNDggMjEuNSA0OCA0OHY2NGMwIDI2LjUtMjEuNSA0OC00OCA0OEgyNTZjLTI2LjUgMC00OC0yMS41LTQ4LTQ4VjM2OGMwLTI2LjUgMjEuNS00OCA0OC00OGg4VjI4MEgxMTJjLTQuNCAwLTggMy42LTggOHYzMmg4YzI2LjUgMCA0OCAyMS41IDQ4IDQ4djY0YzAgMjYuNS0yMS41IDQ4LTQ4IDQ4SDQ4Yy0yNi41IDAtNDgtMjEuNS00OC00OFYzNjhjMC0yNi41IDIxLjUtNDggNDgtNDhoOFYyODhjMC0zMC45IDI1LjEtNTYgNTYtNTZIMjY0VjE5MmgtOGMtMjYuNSAwLTQ4LTIxLjUtNDgtNDhWODB6Ii8+PC9zdmc+;" parent="1" vertex="1">
          <mxGeometry x="-187.5" y="-413" width="61.88" height="55" as="geometry" />
        </mxCell>
        <mxCell id="_JjsHGZuqhBBGKbj4It--126" value="" style="shape=image;verticalLabelPosition=bottom;labelBackgroundColor=default;verticalAlign=top;aspect=fixed;imageAspect=0;image=data:image/svg+xml,PHN2ZyB4bWxucz0iaHR0cDovL3d3dy53My5vcmcvMjAwMC9zdmciIHZpZXdCb3g9IjAgMCA2NDAgNTEyIj48cGF0aCBkPSJNMTQ0IDBhODAgODAgMCAxIDEgMCAxNjBBODAgODAgMCAxIDEgMTQ0IDB6TTUxMiAwYTgwIDgwIDAgMSAxIDAgMTYwQTgwIDgwIDAgMSAxIDUxMiAwek0wIDI5OC43QzAgMjM5LjggNDcuOCAxOTIgMTA2LjcgMTkyaDQyLjdjMTUuOSAwIDMxIDMuNSA0NC42IDkuN2MtMS4zIDcuMi0xLjkgMTQuNy0xLjkgMjIuM2MwIDM4LjIgMTYuOCA3Mi41IDQzLjMgOTZjLS4yIDAtLjQgMC0uNyAwSDIxLjNDOS42IDMyMCAwIDMxMC40IDAgMjk4Ljd6TTQwNS4zIDMyMGMtLjIgMC0uNCAwLS43IDBjMjYuNi0yMy41IDQzLjMtNTcuOCA0My4zLTk2YzAtNy42LS43LTE1LTEuOS0yMi4zYzEzLjYtNi4zIDI4LjctOS43IDQ0LjYtOS43aDQyLjdDNTkyLjIgMTkyIDY0MCAyMzkuOCA2NDAgMjk4LjdjMCAxMS44LTkuNiAyMS4zLTIxLjMgMjEuM0g0MDUuM3pNMjI0IDIyNGE5NiA5NiAwIDEgMSAxOTIgMCA5NiA5NiAwIDEgMSAtMTkyIDB6TTEyOCA0ODUuM0MxMjggNDExLjcgMTg3LjcgMzUyIDI2MS4zIDM1MkgzNzguN0M0NTIuMyAzNTIgNTEyIDQxMS43IDUxMiA0ODUuM2MwIDE0LjctMTEuOSAyNi43LTI2LjcgMjYuN0gxNTQuN2MtMTQuNyAwLTI2LjctMTEuOS0yNi43LTI2Ljd6Ii8+PC9zdmc+;" parent="1" vertex="1">
          <mxGeometry x="-151.25" y="658.5" width="62.5" height="50" as="geometry" />
        </mxCell>
        <mxCell id="_JjsHGZuqhBBGKbj4It--128" value="" style="shape=image;verticalLabelPosition=bottom;labelBackgroundColor=default;verticalAlign=top;aspect=fixed;imageAspect=0;image=data:image/svg+xml,PHN2ZyB4bWxucz0iaHR0cDovL3d3dy53My5vcmcvMjAwMC9zdmciIHZpZXdCb3g9IjAgMCA2NDAgNTEyIj48cGF0aCBkPSJNMTQ0IDBhODAgODAgMCAxIDEgMCAxNjBBODAgODAgMCAxIDEgMTQ0IDB6TTUxMiAwYTgwIDgwIDAgMSAxIDAgMTYwQTgwIDgwIDAgMSAxIDUxMiAwek0wIDI5OC43QzAgMjM5LjggNDcuOCAxOTIgMTA2LjcgMTkyaDQyLjdjMTUuOSAwIDMxIDMuNSA0NC42IDkuN2MtMS4zIDcuMi0xLjkgMTQuNy0xLjkgMjIuM2MwIDM4LjIgMTYuOCA3Mi41IDQzLjMgOTZjLS4yIDAtLjQgMC0uNyAwSDIxLjNDOS42IDMyMCAwIDMxMC40IDAgMjk4Ljd6TTQwNS4zIDMyMGMtLjIgMC0uNCAwLS43IDBjMjYuNi0yMy41IDQzLjMtNTcuOCA0My4zLTk2YzAtNy42LS43LTE1LTEuOS0yMi4zYzEzLjYtNi4zIDI4LjctOS43IDQ0LjYtOS43aDQyLjdDNTkyLjIgMTkyIDY0MCAyMzkuOCA2NDAgMjk4LjdjMCAxMS44LTkuNiAyMS4zLTIxLjMgMjEuM0g0MDUuM3pNMjI0IDIyNGE5NiA5NiAwIDEgMSAxOTIgMCA5NiA5NiAwIDEgMSAtMTkyIDB6TTEyOCA0ODUuM0MxMjggNDExLjcgMTg3LjcgMzUyIDI2MS4zIDM1MkgzNzguN0M0NTIuMyAzNTIgNTEyIDQxMS43IDUxMiA0ODUuM2MwIDE0LjctMTEuOSAyNi43LTI2LjcgMjYuN0gxNTQuN2MtMTQuNyAwLTI2LjctMTEuOS0yNi43LTI2Ljd6Ii8+PC9zdmc+;" parent="1" vertex="1">
          <mxGeometry x="810" y="313" width="62.5" height="50" as="geometry" />
        </mxCell>
        <mxCell id="_JjsHGZuqhBBGKbj4It--129" value="" style="shape=image;verticalLabelPosition=bottom;verticalAlign=top;imageAspect=0;aspect=fixed;image=data:image/svg+xml,PHN2ZyB4bWxucz0iaHR0cDovL3d3dy53My5vcmcvMjAwMC9zdmciIHZlcnNpb249IjEiIHZpZXdCb3g9IjAgMCA0OCA0OCIgZW5hYmxlLWJhY2tncm91bmQ9Im5ldyAwIDAgNDggNDgiPiYjeGE7ICAgIDxwYXRoIGZpbGw9IiNDRkQ4REMiIGQ9Ik01LDM4VjE0aDM4djI0YzAsMi4yLTEuOCw0LTQsNEg5QzYuOCw0Miw1LDQwLjIsNSwzOHoiLz4mI3hhOyAgICA8cGF0aCBmaWxsPSIjRjQ0MzM2IiBkPSJNNDMsMTB2Nkg1di02YzAtMi4yLDEuOC00LDQtNGgzMEM0MS4yLDYsNDMsNy44LDQzLDEweiIvPiYjeGE7ICAgIDxnIGZpbGw9IiNCNzFDMUMiPiYjeGE7ICAgICAgICA8Y2lyY2xlIGN4PSIzMyIgY3k9IjEwIiByPSIzIi8+JiN4YTsgICAgICAgIDxjaXJjbGUgY3g9IjE1IiBjeT0iMTAiIHI9IjMiLz4mI3hhOyAgICA8L2c+JiN4YTsgICAgPGcgZmlsbD0iI0IwQkVDNSI+JiN4YTsgICAgICAgIDxwYXRoIGQ9Ik0zMywzYy0xLjEsMC0yLDAuOS0yLDJ2NWMwLDEuMSwwLjksMiwyLDJzMi0wLjksMi0yVjVDMzUsMy45LDM0LjEsMywzMywzeiIvPiYjeGE7ICAgICAgICA8cGF0aCBkPSJNMTUsM2MtMS4xLDAtMiwwLjktMiwydjVjMCwxLjEsMC45LDIsMiwyczItMC45LDItMlY1QzE3LDMuOSwxNi4xLDMsMTUsM3oiLz4mI3hhOyAgICA8L2c+JiN4YTsgICAgPGcgZmlsbD0iI0IwQkVDNSI+JiN4YTsgICAgICAgIDxyZWN0IHg9IjEzIiB5PSIyMSIgd2lkdGg9IjYiIGhlaWdodD0iNiIvPiYjeGE7ICAgICAgICA8cmVjdCB4PSIyMSIgeT0iMjEiIHdpZHRoPSI2IiBoZWlnaHQ9IjYiLz4mI3hhOyAgICAgICAgPHJlY3QgeD0iMjkiIHk9IjIxIiB3aWR0aD0iNiIgaGVpZ2h0PSI2Ii8+JiN4YTsgICAgICAgIDxyZWN0IHg9IjEzIiB5PSIyOSIgd2lkdGg9IjYiIGhlaWdodD0iNiIvPiYjeGE7ICAgICAgICA8cmVjdCB4PSIyMSIgeT0iMjkiIHdpZHRoPSI2IiBoZWlnaHQ9IjYiLz4mI3hhOyAgICA8L2c+JiN4YTsgICAgPHJlY3QgeD0iMjkiIHk9IjI5IiBmaWxsPSIjRjQ0MzM2IiB3aWR0aD0iNiIgaGVpZ2h0PSI2Ii8+JiN4YTs8L3N2Zz4=;labelBackgroundColor=#ffffff;" parent="1" vertex="1">
          <mxGeometry x="880" y="558" width="48" height="48" as="geometry" />
        </mxCell>
        <mxCell id="_JjsHGZuqhBBGKbj4It--132" value="View profile" style="ellipse;whiteSpace=wrap;html=1;" parent="1" vertex="1">
          <mxGeometry x="-540" y="330.5" width="120" height="80" as="geometry" />
        </mxCell>
        <mxCell id="_JjsHGZuqhBBGKbj4It--136" style="rounded=0;orthogonalLoop=1;jettySize=auto;html=1;endArrow=none;endFill=0;sourcePerimeterSpacing=5;targetPerimeterSpacing=5;entryX=0;entryY=0;entryDx=0;entryDy=0;exitX=1;exitY=1;exitDx=0;exitDy=0;" parent="1" source="_JjsHGZuqhBBGKbj4It--132" target="_JjsHGZuqhBBGKbj4It--82" edge="1">
          <mxGeometry relative="1" as="geometry">
            <mxPoint x="-500" y="686.5" as="sourcePoint" />
            <mxPoint x="-380" y="486.5" as="targetPoint" />
          </mxGeometry>
        </mxCell>
        <mxCell id="_JjsHGZuqhBBGKbj4It--143" value="Election result" style="ellipse;whiteSpace=wrap;html=1;" parent="1" vertex="1">
          <mxGeometry x="-560" y="660.5" width="120" height="80" as="geometry" />
        </mxCell>
        <mxCell id="_JjsHGZuqhBBGKbj4It--144" value="View Election Date" style="ellipse;whiteSpace=wrap;html=1;" parent="1" vertex="1">
          <mxGeometry x="-425.5" y="706.5" width="120" height="80" as="geometry" />
        </mxCell>
        <mxCell id="_JjsHGZuqhBBGKbj4It--145" value="" style="endArrow=none;html=1;rounded=0;exitX=0.25;exitY=1;exitDx=0;exitDy=0;" parent="1" source="_JjsHGZuqhBBGKbj4It--82" target="_JjsHGZuqhBBGKbj4It--148" edge="1">
          <mxGeometry width="50" height="50" relative="1" as="geometry">
            <mxPoint x="-552" y="658.5" as="sourcePoint" />
            <mxPoint x="-392" y="580.5" as="targetPoint" />
          </mxGeometry>
        </mxCell>
        <mxCell id="_JjsHGZuqhBBGKbj4It--146" value="" style="endArrow=none;html=1;rounded=0;entryX=1;entryY=0;entryDx=0;entryDy=0;exitX=0;exitY=0.75;exitDx=0;exitDy=0;" parent="1" source="_JjsHGZuqhBBGKbj4It--82" target="_JjsHGZuqhBBGKbj4It--143" edge="1">
          <mxGeometry width="50" height="50" relative="1" as="geometry">
            <mxPoint x="-730" y="608.5" as="sourcePoint" />
            <mxPoint x="-382" y="590.5" as="targetPoint" />
          </mxGeometry>
        </mxCell>
        <mxCell id="_JjsHGZuqhBBGKbj4It--147" value="" style="shape=image;verticalLabelPosition=bottom;labelBackgroundColor=default;verticalAlign=top;aspect=fixed;imageAspect=0;image=data:image/svg+xml,PHN2ZyB4bWxucz0iaHR0cDovL3d3dy53My5vcmcvMjAwMC9zdmciIHZpZXdCb3g9IjAgMCA0NDggNTEyIj48cGF0aCBkPSJNNjQgMzJDMjguNyAzMiAwIDYwLjcgMCA5NlY0MTZjMCAzNS4zIDI4LjcgNjQgNjQgNjRIMzg0YzM1LjMgMCA2NC0yOC43IDY0LTY0Vjk2YzAtMzUuMy0yOC43LTY0LTY0LTY0SDY0em02NCAxOTJjMTcuNyAwIDMyIDE0LjMgMzIgMzJ2OTZjMCAxNy43LTE0LjMgMzItMzIgMzJzLTMyLTE0LjMtMzItMzJWMjU2YzAtMTcuNyAxNC4zLTMyIDMyLTMyem02NC02NGMwLTE3LjcgMTQuMy0zMiAzMi0zMnMzMiAxNC4zIDMyIDMyVjM1MmMwIDE3LjctMTQuMyAzMi0zMiAzMnMtMzItMTQuMy0zMi0zMlYxNjB6TTMyMCAyODhjMTcuNyAwIDMyIDE0LjMgMzIgMzJ2MzJjMCAxNy43LTE0LjMgMzItMzIgMzJzLTMyLTE0LjMtMzItMzJWMzIwYzAtMTcuNyAxNC4zLTMyIDMyLTMyeiIvPjwvc3ZnPg==;" parent="1" vertex="1">
          <mxGeometry x="-521.88" y="636.5" width="43.75" height="50" as="geometry" />
        </mxCell>
        <mxCell id="_JjsHGZuqhBBGKbj4It--148" value="" style="shape=image;verticalLabelPosition=bottom;verticalAlign=top;imageAspect=0;aspect=fixed;image=data:image/svg+xml,PHN2ZyB4bWxucz0iaHR0cDovL3d3dy53My5vcmcvMjAwMC9zdmciIHZlcnNpb249IjEiIHZpZXdCb3g9IjAgMCA0OCA0OCIgZW5hYmxlLWJhY2tncm91bmQ9Im5ldyAwIDAgNDggNDgiPiYjeGE7ICAgIDxwYXRoIGZpbGw9IiNDRkQ4REMiIGQ9Ik01LDM4VjE0aDM4djI0YzAsMi4yLTEuOCw0LTQsNEg5QzYuOCw0Miw1LDQwLjIsNSwzOHoiLz4mI3hhOyAgICA8cGF0aCBmaWxsPSIjRjQ0MzM2IiBkPSJNNDMsMTB2Nkg1di02YzAtMi4yLDEuOC00LDQtNGgzMEM0MS4yLDYsNDMsNy44LDQzLDEweiIvPiYjeGE7ICAgIDxnIGZpbGw9IiNCNzFDMUMiPiYjeGE7ICAgICAgICA8Y2lyY2xlIGN4PSIzMyIgY3k9IjEwIiByPSIzIi8+JiN4YTsgICAgICAgIDxjaXJjbGUgY3g9IjE1IiBjeT0iMTAiIHI9IjMiLz4mI3hhOyAgICA8L2c+JiN4YTsgICAgPGcgZmlsbD0iI0IwQkVDNSI+JiN4YTsgICAgICAgIDxwYXRoIGQ9Ik0zMywzYy0xLjEsMC0yLDAuOS0yLDJ2NWMwLDEuMSwwLjksMiwyLDJzMi0wLjksMi0yVjVDMzUsMy45LDM0LjEsMywzMywzeiIvPiYjeGE7ICAgICAgICA8cGF0aCBkPSJNMTUsM2MtMS4xLDAtMiwwLjktMiwydjVjMCwxLjEsMC45LDIsMiwyczItMC45LDItMlY1QzE3LDMuOSwxNi4xLDMsMTUsM3oiLz4mI3hhOyAgICA8L2c+JiN4YTsgICAgPGcgZmlsbD0iI0IwQkVDNSI+JiN4YTsgICAgICAgIDxyZWN0IHg9IjEzIiB5PSIyMSIgd2lkdGg9IjYiIGhlaWdodD0iNiIvPiYjeGE7ICAgICAgICA8cmVjdCB4PSIyMSIgeT0iMjEiIHdpZHRoPSI2IiBoZWlnaHQ9IjYiLz4mI3hhOyAgICAgICAgPHJlY3QgeD0iMjkiIHk9IjIxIiB3aWR0aD0iNiIgaGVpZ2h0PSI2Ii8+JiN4YTsgICAgICAgIDxyZWN0IHg9IjEzIiB5PSIyOSIgd2lkdGg9IjYiIGhlaWdodD0iNiIvPiYjeGE7ICAgICAgICA8cmVjdCB4PSIyMSIgeT0iMjkiIHdpZHRoPSI2IiBoZWlnaHQ9IjYiLz4mI3hhOyAgICA8L2c+JiN4YTsgICAgPHJlY3QgeD0iMjkiIHk9IjI5IiBmaWxsPSIjRjQ0MzM2IiB3aWR0aD0iNiIgaGVpZ2h0PSI2Ii8+JiN4YTs8L3N2Zz4=;labelBackgroundColor=#ffffff;" parent="1" vertex="1">
          <mxGeometry x="-389.5" y="686.5" width="48" height="48" as="geometry" />
        </mxCell>
        <mxCell id="_JjsHGZuqhBBGKbj4It--152" value="Update Profile" style="ellipse;whiteSpace=wrap;html=1;" parent="1" vertex="1">
          <mxGeometry x="-330" y="288.5" width="120" height="80" as="geometry" />
        </mxCell>
        <mxCell id="_JjsHGZuqhBBGKbj4It--153" value="" style="shape=image;verticalLabelPosition=bottom;verticalAlign=top;imageAspect=0;aspect=fixed;image=data:image/svg+xml,PHN2ZyB4bWxucz0iaHR0cDovL3d3dy53My5vcmcvMjAwMC9zdmciIHZlcnNpb249IjEiIHZpZXdCb3g9IjAgMCA0OCA0OCIgZW5hYmxlLWJhY2tncm91bmQ9Im5ldyAwIDAgNDggNDgiPiYjeGE7ICAgIDxwYXRoIGZpbGw9IiM0MjQyNDIiIGQ9Ik0yNCw0Yy01LjUsMC0xMCw0LjUtMTAsMTB2NGg0di00YzAtMy4zLDIuNy02LDYtNnM2LDIuNyw2LDZ2NGg0di00QzM0LDguNSwyOS41LDQsMjQsNHoiLz4mI3hhOyAgICA8cGF0aCBmaWxsPSIjRkI4QzAwIiBkPSJNMzYsNDRIMTJjLTIuMiwwLTQtMS44LTQtNFYyMmMwLTIuMiwxLjgtNCw0LTRoMjRjMi4yLDAsNCwxLjgsNCw0djE4QzQwLDQyLjIsMzguMiw0NCwzNiw0NHoiLz4mI3hhOyAgICA8Y2lyY2xlIGZpbGw9IiNDNzZFMDAiIGN4PSIyNCIgY3k9IjMxIiByPSIzIi8+JiN4YTs8L3N2Zz4=;labelBackgroundColor=#ffffff;" parent="1" vertex="1">
          <mxGeometry x="-294" y="267.5" width="48" height="48" as="geometry" />
        </mxCell>
        <mxCell id="_JjsHGZuqhBBGKbj4It--154" style="rounded=0;orthogonalLoop=1;jettySize=auto;html=1;endArrow=none;endFill=0;sourcePerimeterSpacing=5;targetPerimeterSpacing=5;exitX=0.5;exitY=0;exitDx=0;exitDy=0;" parent="1" source="_JjsHGZuqhBBGKbj4It--82" target="_JjsHGZuqhBBGKbj4It--152" edge="1">
          <mxGeometry relative="1" as="geometry">
            <mxPoint x="-240" y="530.5" as="sourcePoint" />
            <mxPoint x="-264" y="368.5" as="targetPoint" />
          </mxGeometry>
        </mxCell>
        <mxCell id="_JjsHGZuqhBBGKbj4It--157" value="Register complaints" style="ellipse;whiteSpace=wrap;html=1;" parent="1" vertex="1">
          <mxGeometry x="-673" y="552" width="177" height="80" as="geometry" />
        </mxCell>
        <mxCell id="_JjsHGZuqhBBGKbj4It--158" value="" style="shape=image;verticalLabelPosition=bottom;verticalAlign=top;imageAspect=0;aspect=fixed;image=data:image/svg+xml,PHN2ZyB4bWxucz0iaHR0cDovL3d3dy53My5vcmcvMjAwMC9zdmciIHZlcnNpb249IjEiIHZpZXdCb3g9IjAgMCA0OCA0OCIgZW5hYmxlLWJhY2tncm91bmQ9Im5ldyAwIDAgNDggNDgiPiYjeGE7ICAgIDxwYXRoIGZpbGw9IiM3ODkwOUMiIGQ9Ik00MCw0MUg4Yy0yLjIsMC00LTEuOC00LTRsMC0yMC45YzAtMS4zLDAuNi0yLjUsMS43LTMuM0wyNCwwbDE4LjMsMTIuOGMxLjEsMC43LDEuNywyLDEuNywzLjNWMzcgQzQ0LDM5LjIsNDIuMiw0MSw0MCw0MXoiLz4mI3hhOyAgICA8cmVjdCB4PSIxMiIgeT0iMTEiIGZpbGw9IiNmZmYiIHdpZHRoPSIyNCIgaGVpZ2h0PSIyMiIvPiYjeGE7ICAgIDxwb2x5Z29uIGZpbGw9IiM5QzI3QjAiIHBvaW50cz0iMjQsMTMuNiAxOCwyMS40IDMwLDIxLjQiLz4mI3hhOyAgICA8cGF0aCBmaWxsPSIjQ0ZEOERDIiBkPSJNNDAsNDFIOGMtMi4yLDAtNC0xLjgtNC00bDAtMjBsMjAsMTNsMjAtMTN2MjBDNDQsMzkuMiw0Mi4yLDQxLDQwLDQxeiIvPiYjeGE7ICAgIDxwb2x5Z29uIGZpbGw9IiM5QzI3QjAiIHBvaW50cz0iMjQsMjggMjYsMjYuNyAyNiwyMCAyMiwyMCAyMiwyNi43Ii8+JiN4YTs8L3N2Zz4=;labelBackgroundColor=#ffffff;" parent="1" vertex="1">
          <mxGeometry x="-607.88" y="535" width="54.5" height="54.5" as="geometry" />
        </mxCell>
        <mxCell id="_JjsHGZuqhBBGKbj4It--159" style="rounded=0;orthogonalLoop=1;jettySize=auto;html=1;endArrow=none;endFill=0;sourcePerimeterSpacing=5;targetPerimeterSpacing=5;entryX=0;entryY=0.75;entryDx=0;entryDy=0;exitX=1;exitY=0.5;exitDx=0;exitDy=0;" parent="1" source="_JjsHGZuqhBBGKbj4It--157" target="_JjsHGZuqhBBGKbj4It--82" edge="1">
          <mxGeometry relative="1" as="geometry">
            <mxPoint x="-553" y="651.5" as="sourcePoint" />
            <mxPoint x="-380" y="518.5" as="targetPoint" />
          </mxGeometry>
        </mxCell>
        <mxCell id="_JjsHGZuqhBBGKbj4It--160" value="view all parties&lt;span style=&quot;color: rgba(0, 0, 0, 0); font-family: monospace; font-size: 0px; text-align: start; text-wrap: nowrap;&quot;&gt;%3CmxGraphModel%3E%3Croot%3E%3CmxCell%20id%3D%220%22%2F%3E%3CmxCell%20id%3D%221%22%20parent%3D%220%22%2F%3E%3CmxCell%20id%3D%222%22%20style%3D%22rounded%3D0%3BorthogonalLoop%3D1%3BjettySize%3Dauto%3Bhtml%3D1%3BendArrow%3Dnone%3BendFill%3D0%3BsourcePerimeterSpacing%3D5%3BtargetPerimeterSpacing%3D5%3BexitX%3D0%3BexitY%3D0.5%3BexitDx%3D0%3BexitDy%3D0%3BentryX%3D0.75%3BentryY%3D0%3BentryDx%3D0%3BentryDy%3D0%3B%22%20edge%3D%221%22%20source%3D%223%22%20parent%3D%221%22%3E%3CmxGeometry%20relative%3D%221%22%20as%3D%22geometry%22%3E%3CmxPoint%20x%3D%22190%22%20y%3D%22-300%22%20as%3D%22sourcePoint%22%2F%3E%3CmxPoint%20x%3D%2286%22%20y%3D%22-210%22%20as%3D%22targetPoint%22%2F%3E%3C%2FmxGeometry%3E%3C%2FmxCell%3E%3CmxCell%20id%3D%223%22%20value%3D%22Login%22%20style%3D%22ellipse%3BwhiteSpace%3Dwrap%3Bhtml%3D1%3B%22%20vertex%3D%221%22%20parent%3D%221%22%3E%3CmxGeometry%20x%3D%22263%22%20y%3D%22-453%22%20width%3D%22120%22%20height%3D%2280%22%20as%3D%22geometry%22%2F%3E%3C%2FmxCell%3E%3C%2Froot%3E%3C%2FmxGraphModel%3E&lt;/span&gt;" style="ellipse;whiteSpace=wrap;html=1;" parent="1" vertex="1">
          <mxGeometry x="-96.25" y="594.5" width="177" height="80" as="geometry" />
        </mxCell>
        <mxCell id="_JjsHGZuqhBBGKbj4It--161" value="" style="shape=image;verticalLabelPosition=bottom;labelBackgroundColor=default;verticalAlign=top;aspect=fixed;imageAspect=0;image=data:image/svg+xml,PHN2ZyB4bWxucz0iaHR0cDovL3d3dy53My5vcmcvMjAwMC9zdmciIHZpZXdCb3g9IjAgMCA1NzYgNTEyIj48cGF0aCBkPSJNMjA4IDgwYzAtMjYuNSAyMS41LTQ4IDQ4LTQ4aDY0YzI2LjUgMCA0OCAyMS41IDQ4IDQ4djY0YzAgMjYuNS0yMS41IDQ4LTQ4IDQ4aC04djQwSDQ2NGMzMC45IDAgNTYgMjUuMSA1NiA1NnYzMmg4YzI2LjUgMCA0OCAyMS41IDQ4IDQ4djY0YzAgMjYuNS0yMS41IDQ4LTQ4IDQ4SDQ2NGMtMjYuNSAwLTQ4LTIxLjUtNDgtNDhWMzY4YzAtMjYuNSAyMS41LTQ4IDQ4LTQ4aDhWMjg4YzAtNC40LTMuNi04LTgtOEgzMTJ2NDBoOGMyNi41IDAgNDggMjEuNSA0OCA0OHY2NGMwIDI2LjUtMjEuNSA0OC00OCA0OEgyNTZjLTI2LjUgMC00OC0yMS41LTQ4LTQ4VjM2OGMwLTI2LjUgMjEuNS00OCA0OC00OGg4VjI4MEgxMTJjLTQuNCAwLTggMy42LTggOHYzMmg4YzI2LjUgMCA0OCAyMS41IDQ4IDQ4djY0YzAgMjYuNS0yMS41IDQ4LTQ4IDQ4SDQ4Yy0yNi41IDAtNDgtMjEuNS00OC00OFYzNjhjMC0yNi41IDIxLjUtNDggNDgtNDhoOFYyODhjMC0zMC45IDI1LjEtNTYgNTYtNTZIMjY0VjE5MmgtOGMtMjYuNSAwLTQ4LTIxLjUtNDgtNDhWODB6Ii8+PC9zdmc+;" parent="1" vertex="1">
          <mxGeometry x="-41.129999999999995" y="563.5" width="61.88" height="55" as="geometry" />
        </mxCell>
        <mxCell id="_JjsHGZuqhBBGKbj4It--162" style="rounded=0;orthogonalLoop=1;jettySize=auto;html=1;endArrow=none;endFill=0;sourcePerimeterSpacing=5;targetPerimeterSpacing=5;exitX=1;exitY=0.75;exitDx=0;exitDy=0;entryX=0.018;entryY=0.339;entryDx=0;entryDy=0;entryPerimeter=0;" parent="1" source="_JjsHGZuqhBBGKbj4It--82" target="_JjsHGZuqhBBGKbj4It--160" edge="1">
          <mxGeometry relative="1" as="geometry">
            <mxPoint x="-372" y="433.5" as="sourcePoint" />
            <mxPoint x="-368" y="308.5" as="targetPoint" />
          </mxGeometry>
        </mxCell>
        <mxCell id="TOa3GXSshZO1fghfW2p4-1" value="view Apllication Status" style="ellipse;whiteSpace=wrap;html=1;" parent="1" vertex="1">
          <mxGeometry x="1254.5" y="-512.5" width="177" height="80" as="geometry" />
        </mxCell>
        <mxCell id="TOa3GXSshZO1fghfW2p4-2" style="rounded=0;orthogonalLoop=1;jettySize=auto;html=1;endArrow=none;endFill=0;sourcePerimeterSpacing=5;targetPerimeterSpacing=5;exitX=1;exitY=0.25;exitDx=0;exitDy=0;" parent="1" source="_JjsHGZuqhBBGKbj4It--27" target="TOa3GXSshZO1fghfW2p4-1" edge="1">
          <mxGeometry relative="1" as="geometry">
            <mxPoint x="1349" y="-290.5" as="sourcePoint" />
            <mxPoint x="1210" y="-416.5" as="targetPoint" />
          </mxGeometry>
        </mxCell>
        <mxCell id="TOa3GXSshZO1fghfW2p4-4" value="Know Your Candidate" style="ellipse;whiteSpace=wrap;html=1;" parent="1" vertex="1">
          <mxGeometry x="480.5" y="676" width="120" height="80" as="geometry" />
        </mxCell>
        <mxCell id="TOa3GXSshZO1fghfW2p4-5" value="" style="endArrow=none;html=1;rounded=0;entryX=0;entryY=1;entryDx=0;entryDy=0;exitX=0.602;exitY=-0.043;exitDx=0;exitDy=0;exitPerimeter=0;" parent="1" source="TOa3GXSshZO1fghfW2p4-4" target="_JjsHGZuqhBBGKbj4It--99" edge="1">
          <mxGeometry width="50" height="50" relative="1" as="geometry">
            <mxPoint x="550" y="650" as="sourcePoint" />
            <mxPoint x="628" y="563.5" as="targetPoint" />
          </mxGeometry>
        </mxCell>
        <mxCell id="wYGtLHFu_H6YtD4rmj5H-3" value="" style="shape=image;verticalLabelPosition=bottom;labelBackgroundColor=default;verticalAlign=top;aspect=fixed;imageAspect=0;image=data:image/svg+xml,PHN2ZyB4bWxucz0iaHR0cDovL3d3dy53My5vcmcvMjAwMC9zdmciIHZpZXdCb3g9IjAgMCA2NDAgNTEyIj48cGF0aCBkPSJNMTQ0IDBhODAgODAgMCAxIDEgMCAxNjBBODAgODAgMCAxIDEgMTQ0IDB6TTUxMiAwYTgwIDgwIDAgMSAxIDAgMTYwQTgwIDgwIDAgMSAxIDUxMiAwek0wIDI5OC43QzAgMjM5LjggNDcuOCAxOTIgMTA2LjcgMTkyaDQyLjdjMTUuOSAwIDMxIDMuNSA0NC42IDkuN2MtMS4zIDcuMi0xLjkgMTQuNy0xLjkgMjIuM2MwIDM4LjIgMTYuOCA3Mi41IDQzLjMgOTZjLS4yIDAtLjQgMC0uNyAwSDIxLjNDOS42IDMyMCAwIDMxMC40IDAgMjk4Ljd6TTQwNS4zIDMyMGMtLjIgMC0uNCAwLS43IDBjMjYuNi0yMy41IDQzLjMtNTcuOCA0My4zLTk2YzAtNy42LS43LTE1LTEuOS0yMi4zYzEzLjYtNi4zIDI4LjctOS43IDQ0LjYtOS43aDQyLjdDNTkyLjIgMTkyIDY0MCAyMzkuOCA2NDAgMjk4LjdjMCAxMS44LTkuNiAyMS4zLTIxLjMgMjEuM0g0MDUuM3pNMjI0IDIyNGE5NiA5NiAwIDEgMSAxOTIgMCA5NiA5NiAwIDEgMSAtMTkyIDB6TTEyOCA0ODUuM0MxMjggNDExLjcgMTg3LjcgMzUyIDI2MS4zIDM1MkgzNzguN0M0NTIuMyAzNTIgNTEyIDQxMS43IDUxMiA0ODUuM2MwIDE0LjctMTEuOSAyNi43LTI2LjcgMjYuN0gxNTQuN2MtMTQuNyAwLTI2LjctMTEuOS0yNi43LTI2Ljd6Ii8+PC9zdmc+;" parent="1" vertex="1">
          <mxGeometry x="505.5" y="658" width="62.5" height="50" as="geometry" />
        </mxCell>
        <mxCell id="wYGtLHFu_H6YtD4rmj5H-4" value="" style="shape=image;verticalLabelPosition=bottom;labelBackgroundColor=default;verticalAlign=top;aspect=fixed;imageAspect=0;image=data:image/svg+xml,PHN2ZyB4bWxucz0iaHR0cDovL3d3dy53My5vcmcvMjAwMC9zdmciIHZpZXdCb3g9IjAgMCA1MTIgNTEyIj48cGF0aCBkPSJNNDE2IDIwOGMwIDQ1LjktMTQuOSA4OC4zLTQwIDEyMi43TDUwMi42IDQ1Ny40YzEyLjUgMTIuNSAxMi41IDMyLjggMCA0NS4zcy0zMi44IDEyLjUtNDUuMyAwTDMzMC43IDM3NmMtMzQuNCAyNS4yLTc2LjggNDAtMTIyLjcgNDBDOTMuMSA0MTYgMCAzMjIuOSAwIDIwOFM5My4xIDAgMjA4IDBTNDE2IDkzLjEgNDE2IDIwOHpNMjA4IDM1MmExNDQgMTQ0IDAgMSAwIDAtMjg4IDE0NCAxNDQgMCAxIDAgMCAyODh6Ii8+PC9zdmc+;" parent="1" vertex="1">
          <mxGeometry x="880" y="426" width="44" height="44" as="geometry" />
        </mxCell>
        <mxCell id="wYGtLHFu_H6YtD4rmj5H-6" value="" style="shape=image;verticalLabelPosition=bottom;labelBackgroundColor=default;verticalAlign=top;aspect=fixed;imageAspect=0;image=data:image/svg+xml,PHN2ZyB4bWxucz0iaHR0cDovL3d3dy53My5vcmcvMjAwMC9zdmciIHZpZXdCb3g9IjAgMCA1MTIgNTEyIj48cGF0aCBkPSJNMTUyLjEgMzguMmM5LjkgOC45IDEwLjcgMjQgMS44IDMzLjlsLTcyIDgwYy00LjQgNC45LTEwLjYgNy44LTE3LjIgNy45cy0xMi45LTIuNC0xNy42LTdMNyAxMTNDLTIuMyAxMDMuNi0yLjMgODguNCA3IDc5czI0LjYtOS40IDMzLjkgMGwyMi4xIDIyLjEgNTUuMS02MS4yYzguOS05LjkgMjQtMTAuNyAzMy45LTEuOHptMCAxNjBjOS45IDguOSAxMC43IDI0IDEuOCAzMy45bC03MiA4MGMtNC40IDQuOS0xMC42IDcuOC0xNy4yIDcuOXMtMTIuOS0yLjQtMTcuNi03TDcgMjczYy05LjQtOS40LTkuNC0yNC42IDAtMzMuOXMyNC42LTkuNCAzMy45IDBsMjIuMSAyMi4xIDU1LjEtNjEuMmM4LjktOS45IDI0LTEwLjcgMzMuOS0xLjh6TTIyNCA5NmMwLTE3LjcgMTQuMy0zMiAzMi0zMkg0ODBjMTcuNyAwIDMyIDE0LjMgMzIgMzJzLTE0LjMgMzItMzIgMzJIMjU2Yy0xNy43IDAtMzItMTQuMy0zMi0zMnptMCAxNjBjMC0xNy43IDE0LjMtMzIgMzItMzJINDgwYzE3LjcgMCAzMiAxNC4zIDMyIDMycy0xNC4zIDMyLTMyIDMySDI1NmMtMTcuNyAwLTMyLTE0LjMtMzItMzJ6TTE2MCA0MTZjMC0xNy43IDE0LjMtMzIgMzItMzJINDgwYzE3LjcgMCAzMiAxNC4zIDMyIDMycy0xNC4zIDMyLTMyIDMySDE5MmMtMTcuNyAwLTMyLTE0LjMtMzItMzJ6TTQ4IDM2OGE0OCA0OCAwIDEgMSAwIDk2IDQ4IDQ4IDAgMSAxIDAtOTZ6Ii8+PC9zdmc+;" parent="1" vertex="1">
          <mxGeometry x="666.12" y="245.5" width="49" height="49" as="geometry" />
        </mxCell>
        <mxCell id="wYGtLHFu_H6YtD4rmj5H-7" value="" style="shape=image;verticalLabelPosition=bottom;labelBackgroundColor=default;verticalAlign=top;aspect=fixed;imageAspect=0;image=data:image/svg+xml,PHN2ZyB4bWxucz0iaHR0cDovL3d3dy53My5vcmcvMjAwMC9zdmciIHZpZXdCb3g9IjAgMCA1MTIgNTEyIj48cGF0aCBkPSJNMTUyLjEgMzguMmM5LjkgOC45IDEwLjcgMjQgMS44IDMzLjlsLTcyIDgwYy00LjQgNC45LTEwLjYgNy44LTE3LjIgNy45cy0xMi45LTIuNC0xNy42LTdMNyAxMTNDLTIuMyAxMDMuNi0yLjMgODguNCA3IDc5czI0LjYtOS40IDMzLjkgMGwyMi4xIDIyLjEgNTUuMS02MS4yYzguOS05LjkgMjQtMTAuNyAzMy45LTEuOHptMCAxNjBjOS45IDguOSAxMC43IDI0IDEuOCAzMy45bC03MiA4MGMtNC40IDQuOS0xMC42IDcuOC0xNy4yIDcuOXMtMTIuOS0yLjQtMTcuNi03TDcgMjczYy05LjQtOS40LTkuNC0yNC42IDAtMzMuOXMyNC42LTkuNCAzMy45IDBsMjIuMSAyMi4xIDU1LjEtNjEuMmM4LjktOS45IDI0LTEwLjcgMzMuOS0xLjh6TTIyNCA5NmMwLTE3LjcgMTQuMy0zMiAzMi0zMkg0ODBjMTcuNyAwIDMyIDE0LjMgMzIgMzJzLTE0LjMgMzItMzIgMzJIMjU2Yy0xNy43IDAtMzItMTQuMy0zMi0zMnptMCAxNjBjMC0xNy43IDE0LjMtMzIgMzItMzJINDgwYzE3LjcgMCAzMiAxNC4zIDMyIDMycy0xNC4zIDMyLTMyIDMySDI1NmMtMTcuNyAwLTMyLTE0LjMtMzItMzJ6TTE2MCA0MTZjMC0xNy43IDE0LjMtMzIgMzItMzJINDgwYzE3LjcgMCAzMiAxNC4zIDMyIDMycy0xNC4zIDMyLTMyIDMySDE5MmMtMTcuNyAwLTMyLTE0LjMtMzItMzJ6TTQ4IDM2OGE0OCA0OCAwIDEgMSAwIDk2IDQ4IDQ4IDAgMSAxIDAtOTZ6Ii8+PC9zdmc+;" parent="1" vertex="1">
          <mxGeometry x="427.25" y="329" width="49" height="49" as="geometry" />
        </mxCell>
        <mxCell id="wYGtLHFu_H6YtD4rmj5H-8" value="" style="shape=image;verticalLabelPosition=bottom;labelBackgroundColor=default;verticalAlign=top;aspect=fixed;imageAspect=0;image=data:image/svg+xml,PHN2ZyB4bWxucz0iaHR0cDovL3d3dy53My5vcmcvMjAwMC9zdmciIHZpZXdCb3g9IjAgMCA1MTIgNTEyIj48cGF0aCBkPSJNMTUyLjEgMzguMmM5LjkgOC45IDEwLjcgMjQgMS44IDMzLjlsLTcyIDgwYy00LjQgNC45LTEwLjYgNy44LTE3LjIgNy45cy0xMi45LTIuNC0xNy42LTdMNyAxMTNDLTIuMyAxMDMuNi0yLjMgODguNCA3IDc5czI0LjYtOS40IDMzLjkgMGwyMi4xIDIyLjEgNTUuMS02MS4yYzguOS05LjkgMjQtMTAuNyAzMy45LTEuOHptMCAxNjBjOS45IDguOSAxMC43IDI0IDEuOCAzMy45bC03MiA4MGMtNC40IDQuOS0xMC42IDcuOC0xNy4yIDcuOXMtMTIuOS0yLjQtMTcuNi03TDcgMjczYy05LjQtOS40LTkuNC0yNC42IDAtMzMuOXMyNC42LTkuNCAzMy45IDBsMjIuMSAyMi4xIDU1LjEtNjEuMmM4LjktOS45IDI0LTEwLjcgMzMuOS0xLjh6TTIyNCA5NmMwLTE3LjcgMTQuMy0zMiAzMi0zMkg0ODBjMTcuNyAwIDMyIDE0LjMgMzIgMzJzLTE0LjMgMzItMzIgMzJIMjU2Yy0xNy43IDAtMzItMTQuMy0zMi0zMnptMCAxNjBjMC0xNy43IDE0LjMtMzIgMzItMzJINDgwYzE3LjcgMCAzMiAxNC4zIDMyIDMycy0xNC4zIDMyLTMyIDMySDI1NmMtMTcuNyAwLTMyLTE0LjMtMzItMzJ6TTE2MCA0MTZjMC0xNy43IDE0LjMtMzIgMzItMzJINDgwYzE3LjcgMCAzMiAxNC4zIDMyIDMycy0xNC4zIDMyLTMyIDMySDE5MmMtMTcuNyAwLTMyLTE0LjMtMzItMzJ6TTQ4IDM2OGE0OCA0OCAwIDEgMSAwIDk2IDQ4IDQ4IDAgMSAxIDAtOTZ6Ii8+PC9zdmc+;" parent="1" vertex="1">
          <mxGeometry x="357.5" y="463.5" width="49" height="49" as="geometry" />
        </mxCell>
        <mxCell id="wYGtLHFu_H6YtD4rmj5H-9" value="&lt;span style=&quot;color: rgba(0, 0, 0, 0); font-family: monospace; font-size: 0px; text-align: start;&quot;&gt;%3CmxGraphModel%3E%3Croot%3E%3CmxCell%20id%3D%220%22%2F%3E%3CmxCell%20id%3D%221%22%20parent%3D%220%22%2F%3E%3CmxCell%20id%3D%222%22%20value%3D%22Parties%22%20style%3D%22shape%3Dimage%3BverticalLabelPosition%3Dbottom%3BverticalAlign%3Dtop%3BimageAspect%3D0%3Baspect%3Dfixed%3Bimage%3Ddata%3Aimage%2Fsvg%2Bxml%2CPHN2ZyB4bWxucz0iaHR0cDovL3d3dy53My5vcmcvMjAwMC9zdmciIHZlcnNpb249IjEiIHZpZXdCb3g9IjAgMCA0OCA0OCIgZW5hYmxlLWJhY2tncm91bmQ9Im5ldyAwIDAgNDggNDgiPiYjeGE7ICAgIDxwb2x5Z29uIGZpbGw9IiNGRjk4MDAiIHBvaW50cz0iMjQsMzcgMTksMzEgMTksMjUgMjksMjUgMjksMzEiLz4mI3hhOyAgICA8ZyBmaWxsPSIjRkZBNzI2Ij4mI3hhOyAgICAgICAgPGNpcmNsZSBjeD0iMzMiIGN5PSIxOSIgcj0iMiIvPiYjeGE7ICAgICAgICA8Y2lyY2xlIGN4PSIxNSIgY3k9IjE5IiByPSIyIi8%2BJiN4YTsgICAgPC9nPiYjeGE7ICAgIDxwYXRoIGZpbGw9IiNGRkI3NEQiIGQ9Ik0zMywxM2MwLTcuNi0xOC01LTE4LDBjMCwxLjEsMCw1LjksMCw3YzAsNSw0LDksOSw5czktNCw5LTlDMzMsMTguOSwzMywxNC4xLDMzLDEzeiIvPiYjeGE7ICAgIDxwYXRoIGZpbGw9IiM0MjQyNDIiIGQ9Ik0yNCw0Yy02LjEsMC0xMCw0LjktMTAsMTFjMCwwLjgsMCwyLjMsMCwyLjNsMiwxLjd2LTVsMTItNGw0LDR2NWwyLTEuN2MwLDAsMC0xLjUsMC0yLjNjMC00LTEtOC02LTlsLTEtMiBIMjR6Ii8%2BJiN4YTsgICAgPGcgZmlsbD0iIzc4NDcxOSI%2BJiN4YTsgICAgICAgIDxjaXJjbGUgY3g9IjI4IiBjeT0iMTkiIHI9IjEiLz4mI3hhOyAgICAgICAgPGNpcmNsZSBjeD0iMjAiIGN5PSIxOSIgcj0iMSIvPiYjeGE7ICAgIDwvZz4mI3hhOyAgICA8cG9seWdvbiBmaWxsPSIjZmZmIiBwb2ludHM9IjI0LDQzIDE5LDMxIDI0LDMyIDI5LDMxIi8%2BJiN4YTsgICAgPHBvbHlnb24gZmlsbD0iI0QzMkYyRiIgcG9pbnRzPSIyMywzNSAyMi4zLDM5LjUgMjQsNDMuNSAyNS43LDM5LjUgMjUsMzUgMjYsMzQgMjQsMzIgMjIsMzQiLz4mI3hhOyAgICA8cGF0aCBmaWxsPSIjNTQ2RTdBIiBkPSJNMjksMzFMMjksMzFsLTUsMTJsLTUtMTJjMCwwLTExLDItMTEsMTNoMzJDNDAsMzMsMjksMzEsMjksMzF6Ii8%2BJiN4YTs8L3N2Zz4%3D%3BlabelBackgroundColor%3D%23ffffff%3B%22%20vertex%3D%221%22%20parent%3D%221%22%3E%3CmxGeometry%20x%3D%22-470%22%20y%3D%22-350%22%20width%3D%2248%22%20height%3D%2248%22%20as%3D%22geometry%22%2F%3E%3C%2FmxCell%3E%3CmxCell%20id%3D%223%22%20value%3D%22Manage%20Candidate%22%20style%3D%22ellipse%3BwhiteSpace%3Dwrap%3Bhtml%3D1%3B%22%20vertex%3D%221%22%20parent%3D%221%22%3E%3CmxGeometry%20x%3D%22-350%22%20y%3D%22-170%22%20width%3D%22120%22%20height%3D%2280%22%20as%3D%22geometry%22%2F%3E%3C%2FmxCell%3E%3CmxCell%20id%3D%224%22%20value%3D%22Edit%20Profile%22%20style%3D%22ellipse%3BwhiteSpace%3Dwrap%3Bhtml%3D1%3B%22%20vertex%3D%221%22%20parent%3D%221%22%3E%3CmxGeometry%20x%3D%22-242%22%20y%3D%22-260%22%20width%3D%22120%22%20height%3D%2280%22%20as%3D%22geometry%22%2F%3E%3C%2FmxCell%3E%3CmxCell%20id%3D%225%22%20value%3D%22Login%22%20style%3D%22ellipse%3BwhiteSpace%3Dwrap%3Bhtml%3D1%3B%22%20vertex%3D%221%22%20parent%3D%221%22%3E%3CmxGeometry%20x%3D%22-246%22%20y%3D%22-382%22%20width%3D%22120%22%20height%3D%2280%22%20as%3D%22geometry%22%2F%3E%3C%2FmxCell%3E%3CmxCell%20id%3D%226%22%20value%3D%22Registration%22%20style%3D%22ellipse%3BwhiteSpace%3Dwrap%3Bhtml%3D1%3B%22%20vertex%3D%221%22%20parent%3D%221%22%3E%3CmxGeometry%20x%3D%22-294%22%20y%3D%22-480%22%20width%3D%22120%22%20height%3D%2280%22%20as%3D%22geometry%22%2F%3E%3C%2FmxCell%3E%3CmxCell%20id%3D%227%22%20value%3D%22%22%20style%3D%22endArrow%3Dnone%3Bhtml%3D1%3Brounded%3D0%3BexitX%3D1%3BexitY%3D0.5%3BexitDx%3D0%3BexitDy%3D0%3BentryX%3D0.097%3BentryY%3D0.855%3BentryDx%3D0%3BentryDy%3D0%3BentryPerimeter%3D0%3B%22%20edge%3D%221%22%20source%3D%222%22%20target%3D%226%22%20parent%3D%221%22%3E%3CmxGeometry%20width%3D%2250%22%20height%3D%2250%22%20relative%3D%221%22%20as%3D%22geometry%22%3E%3CmxPoint%20x%3D%22-80%22%20y%3D%22-160%22%20as%3D%22sourcePoint%22%2F%3E%3CmxPoint%20x%3D%22-30%22%20y%3D%22-210%22%20as%3D%22targetPoint%22%2F%3E%3C%2FmxGeometry%3E%3C%2FmxCell%3E%3CmxCell%20id%3D%228%22%20value%3D%22%22%20style%3D%22endArrow%3Dnone%3Bhtml%3D1%3Brounded%3D0%3BexitX%3D1%3BexitY%3D0.5%3BexitDx%3D0%3BexitDy%3D0%3BentryX%3D0%3BentryY%3D0.5%3BentryDx%3D0%3BentryDy%3D0%3B%22%20edge%3D%221%22%20source%3D%222%22%20target%3D%225%22%20parent%3D%221%22%3E%3CmxGeometry%20width%3D%2250%22%20height%3D%2250%22%20relative%3D%221%22%20as%3D%22geometry%22%3E%3CmxPoint%20x%3D%22-412%22%20y%3D%22-316%22%20as%3D%22sourcePoint%22%2F%3E%3CmxPoint%20x%3D%22-272%22%20y%3D%22-402%22%20as%3D%22targetPoint%22%2F%3E%3C%2FmxGeometry%3E%3C%2FmxCell%3E%3CmxCell%20id%3D%229%22%20value%3D%22%22%20style%3D%22endArrow%3Dnone%3Bhtml%3D1%3Brounded%3D0%3BexitX%3D1%3BexitY%3D0.75%3BexitDx%3D0%3BexitDy%3D0%3BentryX%3D0.1%3BentryY%3D0.125%3BentryDx%3D0%3BentryDy%3D0%3BentryPerimeter%3D0%3B%22%20edge%3D%221%22%20source%3D%222%22%20target%3D%224%22%20parent%3D%221%22%3E%3CmxGeometry%20width%3D%2250%22%20height%3D%2250%22%20relative%3D%221%22%20as%3D%22geometry%22%3E%3CmxPoint%20x%3D%22-402%22%20y%3D%22-306%22%20as%3D%22sourcePoint%22%2F%3E%3CmxPoint%20x%3D%22-262%22%20y%3D%22-392%22%20as%3D%22targetPoint%22%2F%3E%3C%2FmxGeometry%3E%3C%2FmxCell%3E%3CmxCell%20id%3D%2210%22%20value%3D%22%22%20style%3D%22endArrow%3Dnone%3Bhtml%3D1%3Brounded%3D0%3BexitX%3D1%3BexitY%3D0.75%3BexitDx%3D0%3BexitDy%3D0%3BentryX%3D0%3BentryY%3D0%3BentryDx%3D0%3BentryDy%3D0%3B%22%20edge%3D%221%22%20source%3D%222%22%20target%3D%223%22%20parent%3D%221%22%3E%3CmxGeometry%20width%3D%2250%22%20height%3D%2250%22%20relative%3D%221%22%20as%3D%22geometry%22%3E%3CmxPoint%20x%3D%22-392%22%20y%3D%22-296%22%20as%3D%22sourcePoint%22%2F%3E%3CmxPoint%20x%3D%22-252%22%20y%3D%22-382%22%20as%3D%22targetPoint%22%2F%3E%3C%2FmxGeometry%3E%3C%2FmxCell%3E%3CmxCell%20id%3D%2211%22%20value%3D%22Election%20result%22%20style%3D%22ellipse%3BwhiteSpace%3Dwrap%3Bhtml%3D1%3B%22%20vertex%3D%221%22%20parent%3D%221%22%3E%3CmxGeometry%20x%3D%22334%22%20y%3D%22-100%22%20width%3D%22120%22%20height%3D%2280%22%20as%3D%22geometry%22%2F%3E%3C%2FmxCell%3E%3CmxCell%20id%3D%2212%22%20value%3D%22View%20Election%20Date%22%20style%3D%22ellipse%3BwhiteSpace%3Dwrap%3Bhtml%3D1%3B%22%20vertex%3D%221%22%20parent%3D%221%22%3E%3CmxGeometry%20x%3D%22454%22%20y%3D%22-190%22%20width%3D%22120%22%20height%3D%2280%22%20as%3D%22geometry%22%2F%3E%3C%2FmxCell%3E%3CmxCell%20id%3D%2213%22%20value%3D%22Search%20Electoral%20Role%22%20style%3D%22ellipse%3BwhiteSpace%3Dwrap%3Bhtml%3D1%3B%22%20vertex%3D%221%22%20parent%3D%221%22%3E%3CmxGeometry%20x%3D%22454%22%20y%3D%22-320%22%20width%3D%22120%22%20height%3D%2280%22%20as%3D%22geometry%22%2F%3E%3C%2FmxCell%3E%3CmxCell%20id%3D%2214%22%20value%3D%22Know%20All%20Candidates%22%20style%3D%22ellipse%3BwhiteSpace%3Dwrap%3Bhtml%3D1%3B%22%20vertex%3D%221%22%20parent%3D%221%22%3E%3CmxGeometry%20x%3D%22380%22%20y%3D%22-433%22%20width%3D%22120%22%20height%3D%2280%22%20as%3D%22geometry%22%2F%3E%3C%2FmxCell%3E%3CmxCell%20id%3D%2215%22%20value%3D%22%22%20style%3D%22endArrow%3Dnone%3Bhtml%3D1%3Brounded%3D0%3BexitX%3D1%3BexitY%3D0.5%3BexitDx%3D0%3BexitDy%3D0%3BentryX%3D0.097%3BentryY%3D0.855%3BentryDx%3D0%3BentryDy%3D0%3BentryPerimeter%3D0%3B%22%20edge%3D%221%22%20target%3D%2214%22%20parent%3D%221%22%3E%3CmxGeometry%20width%3D%2250%22%20height%3D%2250%22%20relative%3D%221%22%20as%3D%22geometry%22%3E%3CmxPoint%20x%3D%22274%22%20y%3D%22-256%22%20as%3D%22sourcePoint%22%2F%3E%3CmxPoint%20x%3D%22666%22%20y%3D%22-140%22%20as%3D%22targetPoint%22%2F%3E%3C%2FmxGeometry%3E%3C%2FmxCell%3E%3CmxCell%20id%3D%2216%22%20value%3D%22%22%20style%3D%22endArrow%3Dnone%3Bhtml%3D1%3Brounded%3D0%3BexitX%3D1%3BexitY%3D0.5%3BexitDx%3D0%3BexitDy%3D0%3BentryX%3D0%3BentryY%3D0.5%3BentryDx%3D0%3BentryDy%3D0%3B%22%20edge%3D%221%22%20target%3D%2213%22%20parent%3D%221%22%3E%3CmxGeometry%20width%3D%2250%22%20height%3D%2250%22%20relative%3D%221%22%20as%3D%22geometry%22%3E%3CmxPoint%20x%3D%22274%22%20y%3D%22-256%22%20as%3D%22sourcePoint%22%2F%3E%3CmxPoint%20x%3D%22424%22%20y%3D%22-332%22%20as%3D%22targetPoint%22%2F%3E%3C%2FmxGeometry%3E%3C%2FmxCell%3E%3CmxCell%20id%3D%2217%22%20value%3D%22%22%20style%3D%22endArrow%3Dnone%3Bhtml%3D1%3Brounded%3D0%3BexitX%3D1%3BexitY%3D0.75%3BexitDx%3D0%3BexitDy%3D0%3BentryX%3D0.1%3BentryY%3D0.125%3BentryDx%3D0%3BentryDy%3D0%3BentryPerimeter%3D0%3B%22%20edge%3D%221%22%20target%3D%2212%22%20parent%3D%221%22%3E%3CmxGeometry%20width%3D%2250%22%20height%3D%2250%22%20relative%3D%221%22%20as%3D%22geometry%22%3E%3CmxPoint%20x%3D%22274%22%20y%3D%22-244%22%20as%3D%22sourcePoint%22%2F%3E%3CmxPoint%20x%3D%22434%22%20y%3D%22-322%22%20as%3D%22targetPoint%22%2F%3E%3C%2FmxGeometry%3E%3C%2FmxCell%3E%3CmxCell%20id%3D%2218%22%20value%3D%22%22%20style%3D%22endArrow%3Dnone%3Bhtml%3D1%3Brounded%3D0%3BexitX%3D1%3BexitY%3D0.75%3BexitDx%3D0%3BexitDy%3D0%3BentryX%3D0%3BentryY%3D0%3BentryDx%3D0%3BentryDy%3D0%3B%22%20edge%3D%221%22%20target%3D%2211%22%20parent%3D%221%22%3E%3CmxGeometry%20width%3D%2250%22%20height%3D%2250%22%20relative%3D%221%22%20as%3D%22geometry%22%3E%3CmxPoint%20x%3D%22274%22%20y%3D%22-244%22%20as%3D%22sourcePoint%22%2F%3E%3CmxPoint%20x%3D%22444%22%20y%3D%22-312%22%20as%3D%22targetPoint%22%2F%3E%3C%2FmxGeometry%3E%3C%2FmxCell%3E%3CmxCell%20id%3D%2219%22%20value%3D%22User%20Without%20Account%22%20style%3D%22shape%3Dimage%3BverticalLabelPosition%3Dbottom%3BverticalAlign%3Dtop%3BimageAspect%3D0%3Baspect%3Dfixed%3Bimage%3Ddata%3Aimage%2Fsvg%2Bxml%2CPHN2ZyB4bWxucz0iaHR0cDovL3d3dy53My5vcmcvMjAwMC9zdmciIHZlcnNpb249IjEiIHZpZXdCb3g9IjAgMCA0OCA0OCIgZW5hYmxlLWJhY2tncm91bmQ9Im5ldyAwIDAgNDggNDgiPiYjeGE7ICAgIDxwb2x5Z29uIGZpbGw9IiNGRjk4MDAiIHBvaW50cz0iMjQsMzcgMTksMzEgMTksMjUgMjksMjUgMjksMzEiLz4mI3hhOyAgICA8ZyBmaWxsPSIjRkZBNzI2Ij4mI3hhOyAgICAgICAgPGNpcmNsZSBjeD0iMzMiIGN5PSIxOSIgcj0iMiIvPiYjeGE7ICAgICAgICA8Y2lyY2xlIGN4PSIxNSIgY3k9IjE5IiByPSIyIi8%2BJiN4YTsgICAgPC9nPiYjeGE7ICAgIDxwYXRoIGZpbGw9IiNGRkI3NEQiIGQ9Ik0zMywxM2MwLTcuNi0xOC01LTE4LDBjMCwxLjEsMCw1LjksMCw3YzAsNSw0LDksOSw5czktNCw5LTlDMzMsMTguOSwzMywxNC4xLDMzLDEzeiIvPiYjeGE7ICAgIDxwYXRoIGZpbGw9IiM0MjQyNDIiIGQ9Ik0yNCw0Yy02LjEsMC0xMCw0LjktMTAsMTFjMCwwLjgsMCwyLjMsMCwyLjNsMiwxLjd2LTVsMTItNGw0LDR2NWwyLTEuN2MwLDAsMC0xLjUsMC0yLjNjMC00LTEtOC02LTlsLTEtMiBIMjR6Ii8%2BJiN4YTsgICAgPGcgZmlsbD0iIzc4NDcxOSI%2BJiN4YTsgICAgICAgIDxjaXJjbGUgY3g9IjI4IiBjeT0iMTkiIHI9IjEiLz4mI3hhOyAgICAgICAgPGNpcmNsZSBjeD0iMjAiIGN5PSIxOSIgcj0iMSIvPiYjeGE7ICAgIDwvZz4mI3hhOyAgICA8cG9seWdvbiBmaWxsPSIjZmZmIiBwb2ludHM9IjI0LDQzIDE5LDMxIDI0LDMyIDI5LDMxIi8%2BJiN4YTsgICAgPHBvbHlnb24gZmlsbD0iI0QzMkYyRiIgcG9pbnRzPSIyMywzNSAyMi4zLDM5LjUgMjQsNDMuNSAyNS43LDM5LjUgMjUsMzUgMjYsMzQgMjQsMzIgMjIsMzQiLz4mI3hhOyAgICA8cGF0aCBmaWxsPSIjNTQ2RTdBIiBkPSJNMjksMzFMMjksMzFsLTUsMTJsLTUtMTJjMCwwLTExLDItMTEsMTNoMzJDNDAsMzMsMjksMzEsMjksMzF6Ii8%2BJiN4YTs8L3N2Zz4%3D%3BlabelBackgroundColor%3D%23ffffff%3B%22%20vertex%3D%221%22%20parent%3D%221%22%3E%3CmxGeometry%20x%3D%22188%22%20y%3D%22-290%22%20width%3D%2280%22%20height%3D%2280%22%20as%3D%22geometry%22%2F%3E%3C%2FmxCell%3E%3CmxCell%20id%3D%2220%22%20value%3D%22Voters%20Guide%22%20style%3D%22ellipse%3BwhiteSpace%3Dwrap%3Bhtml%3D1%3B%22%20vertex%3D%221%22%20parent%3D%221%22%3E%3CmxGeometry%20x%3D%22175%22%20y%3D%22-470%22%20width%3D%22120%22%20height%3D%2280%22%20as%3D%22geometry%22%2F%3E%3C%2FmxCell%3E%3CmxCell%20id%3D%2221%22%20value%3D%22Candidate%20Guide%22%20style%3D%22ellipse%3BwhiteSpace%3Dwrap%3Bhtml%3D1%3Bdirection%3Deast%3B%22%20vertex%3D%221%22%20parent%3D%221%22%3E%3CmxGeometry%20x%3D%22-30%22%20y%3D%22-410%22%20width%3D%22120%22%20height%3D%2280%22%20as%3D%22geometry%22%2F%3E%3C%2FmxCell%3E%3CmxCell%20id%3D%2222%22%20value%3D%22Party%20Guide%22%20style%3D%22ellipse%3BwhiteSpace%3Dwrap%3Bhtml%3D1%3B%22%20vertex%3D%221%22%20parent%3D%221%22%3E%3CmxGeometry%20x%3D%22-40%22%20y%3D%22-250%22%20width%3D%22120%22%20height%3D%2280%22%20as%3D%22geometry%22%2F%3E%3C%2FmxCell%3E%3CmxCell%20id%3D%2223%22%20value%3D%22%22%20style%3D%22endArrow%3Dnone%3Bhtml%3D1%3Brounded%3D0%3BentryX%3D1%3BentryY%3D0.5%3BentryDx%3D0%3BentryDy%3D0%3BexitX%3D-0.058%3BexitY%3D0.875%3BexitDx%3D0%3BexitDy%3D0%3BexitPerimeter%3D0%3B%22%20edge%3D%221%22%20source%3D%2219%22%20target%3D%2222%22%20parent%3D%221%22%3E%3CmxGeometry%20width%3D%2250%22%20height%3D%2250%22%20relative%3D%221%22%20as%3D%22geometry%22%3E%3CmxPoint%20x%3D%22218%22%20y%3D%22-226%22%20as%3D%22sourcePoint%22%2F%3E%3CmxPoint%20x%3D%22308%22%20y%3D%22-70%22%20as%3D%22targetPoint%22%2F%3E%3CArray%20as%3D%22points%22%2F%3E%3C%2FmxGeometry%3E%3C%2FmxCell%3E%3CmxCell%20id%3D%2224%22%20value%3D%22%22%20style%3D%22endArrow%3Dnone%3Bhtml%3D1%3Brounded%3D0%3BentryX%3D0.5%3BentryY%3D1%3BentryDx%3D0%3BentryDy%3D0%3BexitX%3D0.5%3BexitY%3D0%3BexitDx%3D0%3BexitDy%3D0%3B%22%20edge%3D%221%22%20source%3D%2219%22%20target%3D%2220%22%20parent%3D%221%22%3E%3CmxGeometry%20width%3D%2250%22%20height%3D%2250%22%20relative%3D%221%22%20as%3D%22geometry%22%3E%3CmxPoint%20x%3D%22242%22%20y%3D%22-200%22%20as%3D%22sourcePoint%22%2F%3E%3CmxPoint%20x%3D%22258%22%20y%3D%22-60%22%20as%3D%22targetPoint%22%2F%3E%3C%2FmxGeometry%3E%3C%2FmxCell%3E%3CmxCell%20id%3D%2225%22%20value%3D%22%22%20style%3D%22endArrow%3Dnone%3Bhtml%3D1%3Brounded%3D0%3BentryX%3D0.992%3BentryY%3D0.615%3BentryDx%3D0%3BentryDy%3D0%3BexitX%3D0%3BexitY%3D0%3BexitDx%3D0%3BexitDy%3D0%3BentryPerimeter%3D0%3B%22%20edge%3D%221%22%20source%3D%2219%22%20target%3D%2221%22%20parent%3D%221%22%3E%3CmxGeometry%20width%3D%2250%22%20height%3D%2250%22%20relative%3D%221%22%20as%3D%22geometry%22%3E%3CmxPoint%20x%3D%22238%22%20y%3D%22-280%22%20as%3D%22sourcePoint%22%2F%3E%3CmxPoint%20x%3D%22245%22%20y%3D%22-380%22%20as%3D%22targetPoint%22%2F%3E%3C%2FmxGeometry%3E%3C%2FmxCell%3E%3C%2Froot%3E%3C%2FmxGraphModel%3E&lt;/span&gt;&lt;span style=&quot;color: rgba(0, 0, 0, 0); font-family: monospace; font-size: 0px; text-align: start;&quot;&gt;%3CmxGraphModel%3E%3Croot%3E%3CmxCell%20id%3D%220%22%2F%3E%3CmxCell%20id%3D%221%22%20parent%3D%220%22%2F%3E%3CmxCell%20id%3D%222%22%20value%3D%22Parties%22%20style%3D%22shape%3Dimage%3BverticalLabelPosition%3Dbottom%3BverticalAlign%3Dtop%3BimageAspect%3D0%3Baspect%3Dfixed%3Bimage%3Ddata%3Aimage%2Fsvg%2Bxml%2CPHN2ZyB4bWxucz0iaHR0cDovL3d3dy53My5vcmcvMjAwMC9zdmciIHZlcnNpb249IjEiIHZpZXdCb3g9IjAgMCA0OCA0OCIgZW5hYmxlLWJhY2tncm91bmQ9Im5ldyAwIDAgNDggNDgiPiYjeGE7ICAgIDxwb2x5Z29uIGZpbGw9IiNGRjk4MDAiIHBvaW50cz0iMjQsMzcgMTksMzEgMTksMjUgMjksMjUgMjksMzEiLz4mI3hhOyAgICA8ZyBmaWxsPSIjRkZBNzI2Ij4mI3hhOyAgICAgICAgPGNpcmNsZSBjeD0iMzMiIGN5PSIxOSIgcj0iMiIvPiYjeGE7ICAgICAgICA8Y2lyY2xlIGN4PSIxNSIgY3k9IjE5IiByPSIyIi8%2BJiN4YTsgICAgPC9nPiYjeGE7ICAgIDxwYXRoIGZpbGw9IiNGRkI3NEQiIGQ9Ik0zMywxM2MwLTcuNi0xOC01LTE4LDBjMCwxLjEsMCw1LjksMCw3YzAsNSw0LDksOSw5czktNCw5LTlDMzMsMTguOSwzMywxNC4xLDMzLDEzeiIvPiYjeGE7ICAgIDxwYXRoIGZpbGw9IiM0MjQyNDIiIGQ9Ik0yNCw0Yy02LjEsMC0xMCw0LjktMTAsMTFjMCwwLjgsMCwyLjMsMCwyLjNsMiwxLjd2LTVsMTItNGw0LDR2NWwyLTEuN2MwLDAsMC0xLjUsMC0yLjNjMC00LTEtOC02LTlsLTEtMiBIMjR6Ii8%2BJiN4YTsgICAgPGcgZmlsbD0iIzc4NDcxOSI%2BJiN4YTsgICAgICAgIDxjaXJjbGUgY3g9IjI4IiBjeT0iMTkiIHI9IjEiLz4mI3hhOyAgICAgICAgPGNpcmNsZSBjeD0iMjAiIGN5PSIxOSIgcj0iMSIvPiYjeGE7ICAgIDwvZz4mI3hhOyAgICA8cG9seWdvbiBmaWxsPSIjZmZmIiBwb2ludHM9IjI0LDQzIDE5LDMxIDI0LDMyIDI5LDMxIi8%2BJiN4YTsgICAgPHBvbHlnb24gZmlsbD0iI0QzMkYyRiIgcG9pbnRzPSIyMywzNSAyMi4zLDM5LjUgMjQsNDMuNSAyNS43LDM5LjUgMjUsMzUgMjYsMzQgMjQsMzIgMjIsMzQiLz4mI3hhOyAgICA8cGF0aCBmaWxsPSIjNTQ2RTdBIiBkPSJNMjksMzFMMjksMzFsLTUsMTJsLTUtMTJjMCwwLTExLDItMTEsMTNoMzJDNDAsMzMsMjksMzEsMjksMzF6Ii8%2BJiN4YTs8L3N2Zz4%3D%3BlabelBackgroundColor%3D%23ffffff%3B%22%20vertex%3D%221%22%20parent%3D%221%22%3E%3CmxGeometry%20x%3D%22-470%22%20y%3D%22-350%22%20width%3D%2248%22%20height%3D%2248%22%20as%3D%22geometry%22%2F%3E%3C%2FmxCell%3E%3CmxCell%20id%3D%223%22%20value%3D%22Manage%20Candidate%22%20style%3D%22ellipse%3BwhiteSpace%3Dwrap%3Bhtml%3D1%3B%22%20vertex%3D%221%22%20parent%3D%221%22%3E%3CmxGeometry%20x%3D%22-350%22%20y%3D%22-170%22%20width%3D%22120%22%20height%3D%2280%22%20as%3D%22geometry%22%2F%3E%3C%2FmxCell%3E%3CmxCell%20id%3D%224%22%20value%3D%22Edit%20Profile%22%20style%3D%22ellipse%3BwhiteSpace%3Dwrap%3Bhtml%3D1%3B%22%20vertex%3D%221%22%20parent%3D%221%22%3E%3CmxGeometry%20x%3D%22-242%22%20y%3D%22-260%22%20width%3D%22120%22%20height%3D%2280%22%20as%3D%22geometry%22%2F%3E%3C%2FmxCell%3E%3CmxCell%20id%3D%225%22%20value%3D%22Login%22%20style%3D%22ellipse%3BwhiteSpace%3Dwrap%3Bhtml%3D1%3B%22%20vertex%3D%221%22%20parent%3D%221%22%3E%3CmxGeometry%20x%3D%22-246%22%20y%3D%22-382%22%20width%3D%22120%22%20height%3D%2280%22%20as%3D%22geometry%22%2F%3E%3C%2FmxCell%3E%3CmxCell%20id%3D%226%22%20value%3D%22Registration%22%20style%3D%22ellipse%3BwhiteSpace%3Dwrap%3Bhtml%3D1%3B%22%20vertex%3D%221%22%20parent%3D%221%22%3E%3CmxGeometry%20x%3D%22-294%22%20y%3D%22-480%22%20width%3D%22120%22%20height%3D%2280%22%20as%3D%22geometry%22%2F%3E%3C%2FmxCell%3E%3CmxCell%20id%3D%227%22%20value%3D%22%22%20style%3D%22endArrow%3Dnone%3Bhtml%3D1%3Brounded%3D0%3BexitX%3D1%3BexitY%3D0.5%3BexitDx%3D0%3BexitDy%3D0%3BentryX%3D0.097%3BentryY%3D0.855%3BentryDx%3D0%3BentryDy%3D0%3BentryPerimeter%3D0%3B%22%20edge%3D%221%22%20source%3D%222%22%20target%3D%226%22%20parent%3D%221%22%3E%3CmxGeometry%20width%3D%2250%22%20height%3D%2250%22%20relative%3D%221%22%20as%3D%22geometry%22%3E%3CmxPoint%20x%3D%22-80%22%20y%3D%22-160%22%20as%3D%22sourcePoint%22%2F%3E%3CmxPoint%20x%3D%22-30%22%20y%3D%22-210%22%20as%3D%22targetPoint%22%2F%3E%3C%2FmxGeometry%3E%3C%2FmxCell%3E%3CmxCell%20id%3D%228%22%20value%3D%22%22%20style%3D%22endArrow%3Dnone%3Bhtml%3D1%3Brounded%3D0%3BexitX%3D1%3BexitY%3D0.5%3BexitDx%3D0%3BexitDy%3D0%3BentryX%3D0%3BentryY%3D0.5%3BentryDx%3D0%3BentryDy%3D0%3B%22%20edge%3D%221%22%20source%3D%222%22%20target%3D%225%22%20parent%3D%221%22%3E%3CmxGeometry%20width%3D%2250%22%20height%3D%2250%22%20relative%3D%221%22%20as%3D%22geometry%22%3E%3CmxPoint%20x%3D%22-412%22%20y%3D%22-316%22%20as%3D%22sourcePoint%22%2F%3E%3CmxPoint%20x%3D%22-272%22%20y%3D%22-402%22%20as%3D%22targetPoint%22%2F%3E%3C%2FmxGeometry%3E%3C%2FmxCell%3E%3CmxCell%20id%3D%229%22%20value%3D%22%22%20style%3D%22endArrow%3Dnone%3Bhtml%3D1%3Brounded%3D0%3BexitX%3D1%3BexitY%3D0.75%3BexitDx%3D0%3BexitDy%3D0%3BentryX%3D0.1%3BentryY%3D0.125%3BentryDx%3D0%3BentryDy%3D0%3BentryPerimeter%3D0%3B%22%20edge%3D%221%22%20source%3D%222%22%20target%3D%224%22%20parent%3D%221%22%3E%3CmxGeometry%20width%3D%2250%22%20height%3D%2250%22%20relative%3D%221%22%20as%3D%22geometry%22%3E%3CmxPoint%20x%3D%22-402%22%20y%3D%22-306%22%20as%3D%22sourcePoint%22%2F%3E%3CmxPoint%20x%3D%22-262%22%20y%3D%22-392%22%20as%3D%22targetPoint%22%2F%3E%3C%2FmxGeometry%3E%3C%2FmxCell%3E%3CmxCell%20id%3D%2210%22%20value%3D%22%22%20style%3D%22endArrow%3Dnone%3Bhtml%3D1%3Brounded%3D0%3BexitX%3D1%3BexitY%3D0.75%3BexitDx%3D0%3BexitDy%3D0%3BentryX%3D0%3BentryY%3D0%3BentryDx%3D0%3BentryDy%3D0%3B%22%20edge%3D%221%22%20source%3D%222%22%20target%3D%223%22%20parent%3D%221%22%3E%3CmxGeometry%20width%3D%2250%22%20height%3D%2250%22%20relative%3D%221%22%20as%3D%22geometry%22%3E%3CmxPoint%20x%3D%22-392%22%20y%3D%22-296%22%20as%3D%22sourcePoint%22%2F%3E%3CmxPoint%20x%3D%22-252%22%20y%3D%22-382%22%20as%3D%22targetPoint%22%2F%3E%3C%2FmxGeometry%3E%3C%2FmxCell%3E%3CmxCell%20id%3D%2211%22%20value%3D%22Election%20result%22%20style%3D%22ellipse%3BwhiteSpace%3Dwrap%3Bhtml%3D1%3B%22%20vertex%3D%221%22%20parent%3D%221%22%3E%3CmxGeometry%20x%3D%22334%22%20y%3D%22-100%22%20width%3D%22120%22%20height%3D%2280%22%20as%3D%22geometry%22%2F%3E%3C%2FmxCell%3E%3CmxCell%20id%3D%2212%22%20value%3D%22View%20Election%20Date%22%20style%3D%22ellipse%3BwhiteSpace%3Dwrap%3Bhtml%3D1%3B%22%20vertex%3D%221%22%20parent%3D%221%22%3E%3CmxGeometry%20x%3D%22454%22%20y%3D%22-190%22%20width%3D%22120%22%20height%3D%2280%22%20as%3D%22geometry%22%2F%3E%3C%2FmxCell%3E%3CmxCell%20id%3D%2213%22%20value%3D%22Search%20Electoral%20Role%22%20style%3D%22ellipse%3BwhiteSpace%3Dwrap%3Bhtml%3D1%3B%22%20vertex%3D%221%22%20parent%3D%221%22%3E%3CmxGeometry%20x%3D%22454%22%20y%3D%22-320%22%20width%3D%22120%22%20height%3D%2280%22%20as%3D%22geometry%22%2F%3E%3C%2FmxCell%3E%3CmxCell%20id%3D%2214%22%20value%3D%22Know%20All%20Candidates%22%20style%3D%22ellipse%3BwhiteSpace%3Dwrap%3Bhtml%3D1%3B%22%20vertex%3D%221%22%20parent%3D%221%22%3E%3CmxGeometry%20x%3D%22380%22%20y%3D%22-433%22%20width%3D%22120%22%20height%3D%2280%22%20as%3D%22geometry%22%2F%3E%3C%2FmxCell%3E%3CmxCell%20id%3D%2215%22%20value%3D%22%22%20style%3D%22endArrow%3Dnone%3Bhtml%3D1%3Brounded%3D0%3BexitX%3D1%3BexitY%3D0.5%3BexitDx%3D0%3BexitDy%3D0%3BentryX%3D0.097%3BentryY%3D0.855%3BentryDx%3D0%3BentryDy%3D0%3BentryPerimeter%3D0%3B%22%20edge%3D%221%22%20target%3D%2214%22%20parent%3D%221%22%3E%3CmxGeometry%20width%3D%2250%22%20height%3D%2250%22%20relative%3D%221%22%20as%3D%22geometry%22%3E%3CmxPoint%20x%3D%22274%22%20y%3D%22-256%22%20as%3D%22sourcePoint%22%2F%3E%3CmxPoint%20x%3D%22666%22%20y%3D%22-140%22%20as%3D%22targetPoint%22%2F%3E%3C%2FmxGeometry%3E%3C%2FmxCell%3E%3CmxCell%20id%3D%2216%22%20value%3D%22%22%20style%3D%22endArrow%3Dnone%3Bhtml%3D1%3Brounded%3D0%3BexitX%3D1%3BexitY%3D0.5%3BexitDx%3D0%3BexitDy%3D0%3BentryX%3D0%3BentryY%3D0.5%3BentryDx%3D0%3BentryDy%3D0%3B%22%20edge%3D%221%22%20target%3D%2213%22%20parent%3D%221%22%3E%3CmxGeometry%20width%3D%2250%22%20height%3D%2250%22%20relative%3D%221%22%20as%3D%22geometry%22%3E%3CmxPoint%20x%3D%22274%22%20y%3D%22-256%22%20as%3D%22sourcePoint%22%2F%3E%3CmxPoint%20x%3D%22424%22%20y%3D%22-332%22%20as%3D%22targetPoint%22%2F%3E%3C%2FmxGeometry%3E%3C%2FmxCell%3E%3CmxCell%20id%3D%2217%22%20value%3D%22%22%20style%3D%22endArrow%3Dnone%3Bhtml%3D1%3Brounded%3D0%3BexitX%3D1%3BexitY%3D0.75%3BexitDx%3D0%3BexitDy%3D0%3BentryX%3D0.1%3BentryY%3D0.125%3BentryDx%3D0%3BentryDy%3D0%3BentryPerimeter%3D0%3B%22%20edge%3D%221%22%20target%3D%2212%22%20parent%3D%221%22%3E%3CmxGeometry%20width%3D%2250%22%20height%3D%2250%22%20relative%3D%221%22%20as%3D%22geometry%22%3E%3CmxPoint%20x%3D%22274%22%20y%3D%22-244%22%20as%3D%22sourcePoint%22%2F%3E%3CmxPoint%20x%3D%22434%22%20y%3D%22-322%22%20as%3D%22targetPoint%22%2F%3E%3C%2FmxGeometry%3E%3C%2FmxCell%3E%3CmxCell%20id%3D%2218%22%20value%3D%22%22%20style%3D%22endArrow%3Dnone%3Bhtml%3D1%3Brounded%3D0%3BexitX%3D1%3BexitY%3D0.75%3BexitDx%3D0%3BexitDy%3D0%3BentryX%3D0%3BentryY%3D0%3BentryDx%3D0%3BentryDy%3D0%3B%22%20edge%3D%221%22%20target%3D%2211%22%20parent%3D%221%22%3E%3CmxGeometry%20width%3D%2250%22%20height%3D%2250%22%20relative%3D%221%22%20as%3D%22geometry%22%3E%3CmxPoint%20x%3D%22274%22%20y%3D%22-244%22%20as%3D%22sourcePoint%22%2F%3E%3CmxPoint%20x%3D%22444%22%20y%3D%22-312%22%20as%3D%22targetPoint%22%2F%3E%3C%2FmxGeometry%3E%3C%2FmxCell%3E%3CmxCell%20id%3D%2219%22%20value%3D%22User%20Without%20Account%22%20style%3D%22shape%3Dimage%3BverticalLabelPosition%3Dbottom%3BverticalAlign%3Dtop%3BimageAspect%3D0%3Baspect%3Dfixed%3Bimage%3Ddata%3Aimage%2Fsvg%2Bxml%2CPHN2ZyB4bWxucz0iaHR0cDovL3d3dy53My5vcmcvMjAwMC9zdmciIHZlcnNpb249IjEiIHZpZXdCb3g9IjAgMCA0OCA0OCIgZW5hYmxlLWJhY2tncm91bmQ9Im5ldyAwIDAgNDggNDgiPiYjeGE7ICAgIDxwb2x5Z29uIGZpbGw9IiNGRjk4MDAiIHBvaW50cz0iMjQsMzcgMTksMzEgMTksMjUgMjksMjUgMjksMzEiLz4mI3hhOyAgICA8ZyBmaWxsPSIjRkZBNzI2Ij4mI3hhOyAgICAgICAgPGNpcmNsZSBjeD0iMzMiIGN5PSIxOSIgcj0iMiIvPiYjeGE7ICAgICAgICA8Y2lyY2xlIGN4PSIxNSIgY3k9IjE5IiByPSIyIi8%2BJiN4YTsgICAgPC9nPiYjeGE7ICAgIDxwYXRoIGZpbGw9IiNGRkI3NEQiIGQ9Ik0zMywxM2MwLTcuNi0xOC01LTE4LDBjMCwxLjEsMCw1LjksMCw3YzAsNSw0LDksOSw5czktNCw5LTlDMzMsMTguOSwzMywxNC4xLDMzLDEzeiIvPiYjeGE7ICAgIDxwYXRoIGZpbGw9IiM0MjQyNDIiIGQ9Ik0yNCw0Yy02LjEsMC0xMCw0LjktMTAsMTFjMCwwLjgsMCwyLjMsMCwyLjNsMiwxLjd2LTVsMTItNGw0LDR2NWwyLTEuN2MwLDAsMC0xLjUsMC0yLjNjMC00LTEtOC02LTlsLTEtMiBIMjR6Ii8%2BJiN4YTsgICAgPGcgZmlsbD0iIzc4NDcxOSI%2BJiN4YTsgICAgICAgIDxjaXJjbGUgY3g9IjI4IiBjeT0iMTkiIHI9IjEiLz4mI3hhOyAgICAgICAgPGNpcmNsZSBjeD0iMjAiIGN5PSIxOSIgcj0iMSIvPiYjeGE7ICAgIDwvZz4mI3hhOyAgICA8cG9seWdvbiBmaWxsPSIjZmZmIiBwb2ludHM9IjI0LDQzIDE5LDMxIDI0LDMyIDI5LDMxIi8%2BJiN4YTsgICAgPHBvbHlnb24gZmlsbD0iI0QzMkYyRiIgcG9pbnRzPSIyMywzNSAyMi4zLDM5LjUgMjQsNDMuNSAyNS43LDM5LjUgMjUsMzUgMjYsMzQgMjQsMzIgMjIsMzQiLz4mI3hhOyAgICA8cGF0aCBmaWxsPSIjNTQ2RTdBIiBkPSJNMjksMzFMMjksMzFsLTUsMTJsLTUtMTJjMCwwLTExLDItMTEsMTNoMzJDNDAsMzMsMjksMzEsMjksMzF6Ii8%2BJiN4YTs8L3N2Zz4%3D%3BlabelBackgroundColor%3D%23ffffff%3B%22%20vertex%3D%221%22%20parent%3D%221%22%3E%3CmxGeometry%20x%3D%22188%22%20y%3D%22-290%22%20width%3D%2280%22%20height%3D%2280%22%20as%3D%22geometry%22%2F%3E%3C%2FmxCell%3E%3CmxCell%20id%3D%2220%22%20value%3D%22Voters%20Guide%22%20style%3D%22ellipse%3BwhiteSpace%3Dwrap%3Bhtml%3D1%3B%22%20vertex%3D%221%22%20parent%3D%221%22%3E%3CmxGeometry%20x%3D%22175%22%20y%3D%22-470%22%20width%3D%22120%22%20height%3D%2280%22%20as%3D%22geometry%22%2F%3E%3C%2FmxCell%3E%3CmxCell%20id%3D%2221%22%20value%3D%22Candidate%20Guide%22%20style%3D%22ellipse%3BwhiteSpace%3Dwrap%3Bhtml%3D1%3Bdirection%3Deast%3B%22%20vertex%3D%221%22%20parent%3D%221%22%3E%3CmxGeometry%20x%3D%22-30%22%20y%3D%22-410%22%20width%3D%22120%22%20height%3D%2280%22%20as%3D%22geometry%22%2F%3E%3C%2FmxCell%3E%3CmxCell%20id%3D%2222%22%20value%3D%22Party%20Guide%22%20style%3D%22ellipse%3BwhiteSpace%3Dwrap%3Bhtml%3D1%3B%22%20vertex%3D%221%22%20parent%3D%221%22%3E%3CmxGeometry%20x%3D%22-40%22%20y%3D%22-250%22%20width%3D%22120%22%20height%3D%2280%22%20as%3D%22geometry%22%2F%3E%3C%2FmxCell%3E%3CmxCell%20id%3D%2223%22%20value%3D%22%22%20style%3D%22endArrow%3Dnone%3Bhtml%3D1%3Brounded%3D0%3BentryX%3D1%3BentryY%3D0.5%3BentryDx%3D0%3BentryDy%3D0%3BexitX%3D-0.058%3BexitY%3D0.875%3BexitDx%3D0%3BexitDy%3D0%3BexitPerimeter%3D0%3B%22%20edge%3D%221%22%20source%3D%2219%22%20target%3D%2222%22%20parent%3D%221%22%3E%3CmxGeometry%20width%3D%2250%22%20height%3D%2250%22%20relative%3D%221%22%20as%3D%22geometry%22%3E%3CmxPoint%20x%3D%22218%22%20y%3D%22-226%22%20as%3D%22sourcePoint%22%2F%3E%3CmxPoint%20x%3D%22308%22%20y%3D%22-70%22%20as%3D%22targetPoint%22%2F%3E%3CArray%20as%3D%22points%22%2F%3E%3C%2FmxGeometry%3E%3C%2FmxCell%3E%3CmxCell%20id%3D%2224%22%20value%3D%22%22%20style%3D%22endArrow%3Dnone%3Bhtml%3D1%3Brounded%3D0%3BentryX%3D0.5%3BentryY%3D1%3BentryDx%3D0%3BentryDy%3D0%3BexitX%3D0.5%3BexitY%3D0%3BexitDx%3D0%3BexitDy%3D0%3B%22%20edge%3D%221%22%20source%3D%2219%22%20target%3D%2220%22%20parent%3D%221%22%3E%3CmxGeometry%20width%3D%2250%22%20height%3D%2250%22%20relative%3D%221%22%20as%3D%22geometry%22%3E%3CmxPoint%20x%3D%22242%22%20y%3D%22-200%22%20as%3D%22sourcePoint%22%2F%3E%3CmxPoint%20x%3D%22258%22%20y%3D%22-60%22%20as%3D%22targetPoint%22%2F%3E%3C%2FmxGeometry%3E%3C%2FmxCell%3E%3CmxCell%20id%3D%2225%22%20value%3D%22%22%20style%3D%22endArrow%3Dnone%3Bhtml%3D1%3Brounded%3D0%3BentryX%3D0.992%3BentryY%3D0.615%3BentryDx%3D0%3BentryDy%3D0%3BexitX%3D0%3BexitY%3D0%3BexitDx%3D0%3BexitDy%3D0%3BentryPerimeter%3D0%3B%22%20edge%3D%221%22%20source%3D%2219%22%20target%3D%2221%22%20parent%3D%221%22%3E%3CmxGeometry%20width%3D%2250%22%20height%3D%2250%22%20relative%3D%221%22%20as%3D%22geometry%22%3E%3CmxPoint%20x%3D%22238%22%20y%3D%22-280%22%20as%3D%22sourcePoint%22%2F%3E%3CmxPoint%20x%3D%22245%22%20y%3D%22-380%22%20as%3D%22targetPoint%22%2F%3E%3C%2FmxGeometry%3E%3C%2FmxCell%3E%3C%2Froot%3E%3C%2FmxGraphModel%3E&lt;/span&gt;&lt;span style=&quot;color: rgba(0, 0, 0, 0); font-family: monospace; font-size: 0px; text-align: start;&quot;&gt;%3CmxGraphModel%3E%3Croot%3E%3CmxCell%20id%3D%220%22%2F%3E%3CmxCell%20id%3D%221%22%20parent%3D%220%22%2F%3E%3CmxCell%20id%3D%222%22%20value%3D%22Parties%22%20style%3D%22shape%3Dimage%3BverticalLabelPosition%3Dbottom%3BverticalAlign%3Dtop%3BimageAspect%3D0%3Baspect%3Dfixed%3Bimage%3Ddata%3Aimage%2Fsvg%2Bxml%2CPHN2ZyB4bWxucz0iaHR0cDovL3d3dy53My5vcmcvMjAwMC9zdmciIHZlcnNpb249IjEiIHZpZXdCb3g9IjAgMCA0OCA0OCIgZW5hYmxlLWJhY2tncm91bmQ9Im5ldyAwIDAgNDggNDgiPiYjeGE7ICAgIDxwb2x5Z29uIGZpbGw9IiNGRjk4MDAiIHBvaW50cz0iMjQsMzcgMTksMzEgMTksMjUgMjksMjUgMjksMzEiLz4mI3hhOyAgICA8ZyBmaWxsPSIjRkZBNzI2Ij4mI3hhOyAgICAgICAgPGNpcmNsZSBjeD0iMzMiIGN5PSIxOSIgcj0iMiIvPiYjeGE7ICAgICAgICA8Y2lyY2xlIGN4PSIxNSIgY3k9IjE5IiByPSIyIi8%2BJiN4YTsgICAgPC9nPiYjeGE7ICAgIDxwYXRoIGZpbGw9IiNGRkI3NEQiIGQ9Ik0zMywxM2MwLTcuNi0xOC01LTE4LDBjMCwxLjEsMCw1LjksMCw3YzAsNSw0LDksOSw5czktNCw5LTlDMzMsMTguOSwzMywxNC4xLDMzLDEzeiIvPiYjeGE7ICAgIDxwYXRoIGZpbGw9IiM0MjQyNDIiIGQ9Ik0yNCw0Yy02LjEsMC0xMCw0LjktMTAsMTFjMCwwLjgsMCwyLjMsMCwyLjNsMiwxLjd2LTVsMTItNGw0LDR2NWwyLTEuN2MwLDAsMC0xLjUsMC0yLjNjMC00LTEtOC02LTlsLTEtMiBIMjR6Ii8%2BJiN4YTsgICAgPGcgZmlsbD0iIzc4NDcxOSI%2BJiN4YTsgICAgICAgIDxjaXJjbGUgY3g9IjI4IiBjeT0iMTkiIHI9IjEiLz4mI3hhOyAgICAgICAgPGNpcmNsZSBjeD0iMjAiIGN5PSIxOSIgcj0iMSIvPiYjeGE7ICAgIDwvZz4mI3hhOyAgICA8cG9seWdvbiBmaWxsPSIjZmZmIiBwb2ludHM9IjI0LDQzIDE5LDMxIDI0LDMyIDI5LDMxIi8%2BJiN4YTsgICAgPHBvbHlnb24gZmlsbD0iI0QzMkYyRiIgcG9pbnRzPSIyMywzNSAyMi4zLDM5LjUgMjQsNDMuNSAyNS43LDM5LjUgMjUsMzUgMjYsMzQgMjQsMzIgMjIsMzQiLz4mI3hhOyAgICA8cGF0aCBmaWxsPSIjNTQ2RTdBIiBkPSJNMjksMzFMMjksMzFsLTUsMTJsLTUtMTJjMCwwLTExLDItMTEsMTNoMzJDNDAsMzMsMjksMzEsMjksMzF6Ii8%2BJiN4YTs8L3N2Zz4%3D%3BlabelBackgroundColor%3D%23ffffff%3B%22%20vertex%3D%221%22%20parent%3D%221%22%3E%3CmxGeometry%20x%3D%22-470%22%20y%3D%22-350%22%20width%3D%2248%22%20height%3D%2248%22%20as%3D%22geometry%22%2F%3E%3C%2FmxCell%3E%3CmxCell%20id%3D%223%22%20value%3D%22Manage%20Candidate%22%20style%3D%22ellipse%3BwhiteSpace%3Dwrap%3Bhtml%3D1%3B%22%20vertex%3D%221%22%20parent%3D%221%22%3E%3CmxGeometry%20x%3D%22-350%22%20y%3D%22-170%22%20width%3D%22120%22%20height%3D%2280%22%20as%3D%22geometry%22%2F%3E%3C%2FmxCell%3E%3CmxCell%20id%3D%224%22%20value%3D%22Edit%20Profile%22%20style%3D%22ellipse%3BwhiteSpace%3Dwrap%3Bhtml%3D1%3B%22%20vertex%3D%221%22%20parent%3D%221%22%3E%3CmxGeometry%20x%3D%22-242%22%20y%3D%22-260%22%20width%3D%22120%22%20height%3D%2280%22%20as%3D%22geometry%22%2F%3E%3C%2FmxCell%3E%3CmxCell%20id%3D%225%22%20value%3D%22Login%22%20style%3D%22ellipse%3BwhiteSpace%3Dwrap%3Bhtml%3D1%3B%22%20vertex%3D%221%22%20parent%3D%221%22%3E%3CmxGeometry%20x%3D%22-246%22%20y%3D%22-382%22%20width%3D%22120%22%20height%3D%2280%22%20as%3D%22geometry%22%2F%3E%3C%2FmxCell%3E%3CmxCell%20id%3D%226%22%20value%3D%22Registration%22%20style%3D%22ellipse%3BwhiteSpace%3Dwrap%3Bhtml%3D1%3B%22%20vertex%3D%221%22%20parent%3D%221%22%3E%3CmxGeometry%20x%3D%22-294%22%20y%3D%22-480%22%20width%3D%22120%22%20height%3D%2280%22%20as%3D%22geometry%22%2F%3E%3C%2FmxCell%3E%3CmxCell%20id%3D%227%22%20value%3D%22%22%20style%3D%22endArrow%3Dnone%3Bhtml%3D1%3Brounded%3D0%3BexitX%3D1%3BexitY%3D0.5%3BexitDx%3D0%3BexitDy%3D0%3BentryX%3D0.097%3BentryY%3D0.855%3BentryDx%3D0%3BentryDy%3D0%3BentryPerimeter%3D0%3B%22%20edge%3D%221%22%20source%3D%222%22%20target%3D%226%22%20parent%3D%221%22%3E%3CmxGeometry%20width%3D%2250%22%20height%3D%2250%22%20relative%3D%221%22%20as%3D%22geometry%22%3E%3CmxPoint%20x%3D%22-80%22%20y%3D%22-160%22%20as%3D%22sourcePoint%22%2F%3E%3CmxPoint%20x%3D%22-30%22%20y%3D%22-210%22%20as%3D%22targetPoint%22%2F%3E%3C%2FmxGeometry%3E%3C%2FmxCell%3E%3CmxCell%20id%3D%228%22%20value%3D%22%22%20style%3D%22endArrow%3Dnone%3Bhtml%3D1%3Brounded%3D0%3BexitX%3D1%3BexitY%3D0.5%3BexitDx%3D0%3BexitDy%3D0%3BentryX%3D0%3BentryY%3D0.5%3BentryDx%3D0%3BentryDy%3D0%3B%22%20edge%3D%221%22%20source%3D%222%22%20target%3D%225%22%20parent%3D%221%22%3E%3CmxGeometry%20width%3D%2250%22%20height%3D%2250%22%20relative%3D%221%22%20as%3D%22geometry%22%3E%3CmxPoint%20x%3D%22-412%22%20y%3D%22-316%22%20as%3D%22sourcePoint%22%2F%3E%3CmxPoint%20x%3D%22-272%22%20y%3D%22-402%22%20as%3D%22targetPoint%22%2F%3E%3C%2FmxGeometry%3E%3C%2FmxCell%3E%3CmxCell%20id%3D%229%22%20value%3D%22%22%20style%3D%22endArrow%3Dnone%3Bhtml%3D1%3Brounded%3D0%3BexitX%3D1%3BexitY%3D0.75%3BexitDx%3D0%3BexitDy%3D0%3BentryX%3D0.1%3BentryY%3D0.125%3BentryDx%3D0%3BentryDy%3D0%3BentryPerimeter%3D0%3B%22%20edge%3D%221%22%20source%3D%222%22%20target%3D%224%22%20parent%3D%221%22%3E%3CmxGeometry%20width%3D%2250%22%20height%3D%2250%22%20relative%3D%221%22%20as%3D%22geometry%22%3E%3CmxPoint%20x%3D%22-402%22%20y%3D%22-306%22%20as%3D%22sourcePoint%22%2F%3E%3CmxPoint%20x%3D%22-262%22%20y%3D%22-392%22%20as%3D%22targetPoint%22%2F%3E%3C%2FmxGeometry%3E%3C%2FmxCell%3E%3CmxCell%20id%3D%2210%22%20value%3D%22%22%20style%3D%22endArrow%3Dnone%3Bhtml%3D1%3Brounded%3D0%3BexitX%3D1%3BexitY%3D0.75%3BexitDx%3D0%3BexitDy%3D0%3BentryX%3D0%3BentryY%3D0%3BentryDx%3D0%3BentryDy%3D0%3B%22%20edge%3D%221%22%20source%3D%222%22%20target%3D%223%22%20parent%3D%221%22%3E%3CmxGeometry%20width%3D%2250%22%20height%3D%2250%22%20relative%3D%221%22%20as%3D%22geometry%22%3E%3CmxPoint%20x%3D%22-392%22%20y%3D%22-296%22%20as%3D%22sourcePoint%22%2F%3E%3CmxPoint%20x%3D%22-252%22%20y%3D%22-382%22%20as%3D%22targetPoint%22%2F%3E%3C%2FmxGeometry%3E%3C%2FmxCell%3E%3CmxCell%20id%3D%2211%22%20value%3D%22Election%20result%22%20style%3D%22ellipse%3BwhiteSpace%3Dwrap%3Bhtml%3D1%3B%22%20vertex%3D%221%22%20parent%3D%221%22%3E%3CmxGeometry%20x%3D%22334%22%20y%3D%22-100%22%20width%3D%22120%22%20height%3D%2280%22%20as%3D%22geometry%22%2F%3E%3C%2FmxCell%3E%3CmxCell%20id%3D%2212%22%20value%3D%22View%20Election%20Date%22%20style%3D%22ellipse%3BwhiteSpace%3Dwrap%3Bhtml%3D1%3B%22%20vertex%3D%221%22%20parent%3D%221%22%3E%3CmxGeometry%20x%3D%22454%22%20y%3D%22-190%22%20width%3D%22120%22%20height%3D%2280%22%20as%3D%22geometry%22%2F%3E%3C%2FmxCell%3E%3CmxCell%20id%3D%2213%22%20value%3D%22Search%20Electoral%20Role%22%20style%3D%22ellipse%3BwhiteSpace%3Dwrap%3Bhtml%3D1%3B%22%20vertex%3D%221%22%20parent%3D%221%22%3E%3CmxGeometry%20x%3D%22454%22%20y%3D%22-320%22%20width%3D%22120%22%20height%3D%2280%22%20as%3D%22geometry%22%2F%3E%3C%2FmxCell%3E%3CmxCell%20id%3D%2214%22%20value%3D%22Know%20All%20Candidates%22%20style%3D%22ellipse%3BwhiteSpace%3Dwrap%3Bhtml%3D1%3B%22%20vertex%3D%221%22%20parent%3D%221%22%3E%3CmxGeometry%20x%3D%22380%22%20y%3D%22-433%22%20width%3D%22120%22%20height%3D%2280%22%20as%3D%22geometry%22%2F%3E%3C%2FmxCell%3E%3CmxCell%20id%3D%2215%22%20value%3D%22%22%20style%3D%22endArrow%3Dnone%3Bhtml%3D1%3Brounded%3D0%3BexitX%3D1%3BexitY%3D0.5%3BexitDx%3D0%3BexitDy%3D0%3BentryX%3D0.097%3BentryY%3D0.855%3BentryDx%3D0%3BentryDy%3D0%3BentryPerimeter%3D0%3B%22%20edge%3D%221%22%20target%3D%2214%22%20parent%3D%221%22%3E%3CmxGeometry%20width%3D%2250%22%20height%3D%2250%22%20relative%3D%221%22%20as%3D%22geometry%22%3E%3CmxPoint%20x%3D%22274%22%20y%3D%22-256%22%20as%3D%22sourcePoint%22%2F%3E%3CmxPoint%20x%3D%22666%22%20y%3D%22-140%22%20as%3D%22targetPoint%22%2F%3E%3C%2FmxGeometry%3E%3C%2FmxCell%3E%3CmxCell%20id%3D%2216%22%20value%3D%22%22%20style%3D%22endArrow%3Dnone%3Bhtml%3D1%3Brounded%3D0%3BexitX%3D1%3BexitY%3D0.5%3BexitDx%3D0%3BexitDy%3D0%3BentryX%3D0%3BentryY%3D0.5%3BentryDx%3D0%3BentryDy%3D0%3B%22%20edge%3D%221%22%20target%3D%2213%22%20parent%3D%221%22%3E%3CmxGeometry%20width%3D%2250%22%20height%3D%2250%22%20relative%3D%221%22%20as%3D%22geometry%22%3E%3CmxPoint%20x%3D%22274%22%20y%3D%22-256%22%20as%3D%22sourcePoint%22%2F%3E%3CmxPoint%20x%3D%22424%22%20y%3D%22-332%22%20as%3D%22targetPoint%22%2F%3E%3C%2FmxGeometry%3E%3C%2FmxCell%3E%3CmxCell%20id%3D%2217%22%20value%3D%22%22%20style%3D%22endArrow%3Dnone%3Bhtml%3D1%3Brounded%3D0%3BexitX%3D1%3BexitY%3D0.75%3BexitDx%3D0%3BexitDy%3D0%3BentryX%3D0.1%3BentryY%3D0.125%3BentryDx%3D0%3BentryDy%3D0%3BentryPerimeter%3D0%3B%22%20edge%3D%221%22%20target%3D%2212%22%20parent%3D%221%22%3E%3CmxGeometry%20width%3D%2250%22%20height%3D%2250%22%20relative%3D%221%22%20as%3D%22geometry%22%3E%3CmxPoint%20x%3D%22274%22%20y%3D%22-244%22%20as%3D%22sourcePoint%22%2F%3E%3CmxPoint%20x%3D%22434%22%20y%3D%22-322%22%20as%3D%22targetPoint%22%2F%3E%3C%2FmxGeometry%3E%3C%2FmxCell%3E%3CmxCell%20id%3D%2218%22%20value%3D%22%22%20style%3D%22endArrow%3Dnone%3Bhtml%3D1%3Brounded%3D0%3BexitX%3D1%3BexitY%3D0.75%3BexitDx%3D0%3BexitDy%3D0%3BentryX%3D0%3BentryY%3D0%3BentryDx%3D0%3BentryDy%3D0%3B%22%20edge%3D%221%22%20target%3D%2211%22%20parent%3D%221%22%3E%3CmxGeometry%20width%3D%2250%22%20height%3D%2250%22%20relative%3D%221%22%20as%3D%22geometry%22%3E%3CmxPoint%20x%3D%22274%22%20y%3D%22-244%22%20as%3D%22sourcePoint%22%2F%3E%3CmxPoint%20x%3D%22444%22%20y%3D%22-312%22%20as%3D%22targetPoint%22%2F%3E%3C%2FmxGeometry%3E%3C%2FmxCell%3E%3CmxCell%20id%3D%2219%22%20value%3D%22User%20Without%20Account%22%20style%3D%22shape%3Dimage%3BverticalLabelPosition%3Dbottom%3BverticalAlign%3Dtop%3BimageAspect%3D0%3Baspect%3Dfixed%3Bimage%3Ddata%3Aimage%2Fsvg%2Bxml%2CPHN2ZyB4bWxucz0iaHR0cDovL3d3dy53My5vcmcvMjAwMC9zdmciIHZlcnNpb249IjEiIHZpZXdCb3g9IjAgMCA0OCA0OCIgZW5hYmxlLWJhY2tncm91bmQ9Im5ldyAwIDAgNDggNDgiPiYjeGE7ICAgIDxwb2x5Z29uIGZpbGw9IiNGRjk4MDAiIHBvaW50cz0iMjQsMzcgMTksMzEgMTksMjUgMjksMjUgMjksMzEiLz4mI3hhOyAgICA8ZyBmaWxsPSIjRkZBNzI2Ij4mI3hhOyAgICAgICAgPGNpcmNsZSBjeD0iMzMiIGN5PSIxOSIgcj0iMiIvPiYjeGE7ICAgICAgICA8Y2lyY2xlIGN4PSIxNSIgY3k9IjE5IiByPSIyIi8%2BJiN4YTsgICAgPC9nPiYjeGE7ICAgIDxwYXRoIGZpbGw9IiNGRkI3NEQiIGQ9Ik0zMywxM2MwLTcuNi0xOC01LTE4LDBjMCwxLjEsMCw1LjksMCw3YzAsNSw0LDksOSw5czktNCw5LTlDMzMsMTguOSwzMywxNC4xLDMzLDEzeiIvPiYjeGE7ICAgIDxwYXRoIGZpbGw9IiM0MjQyNDIiIGQ9Ik0yNCw0Yy02LjEsMC0xMCw0LjktMTAsMTFjMCwwLjgsMCwyLjMsMCwyLjNsMiwxLjd2LTVsMTItNGw0LDR2NWwyLTEuN2MwLDAsMC0xLjUsMC0yLjNjMC00LTEtOC02LTlsLTEtMiBIMjR6Ii8%2BJiN4YTsgICAgPGcgZmlsbD0iIzc4NDcxOSI%2BJiN4YTsgICAgICAgIDxjaXJjbGUgY3g9IjI4IiBjeT0iMTkiIHI9IjEiLz4mI3hhOyAgICAgICAgPGNpcmNsZSBjeD0iMjAiIGN5PSIxOSIgcj0iMSIvPiYjeGE7ICAgIDwvZz4mI3hhOyAgICA8cG9seWdvbiBmaWxsPSIjZmZmIiBwb2ludHM9IjI0LDQzIDE5LDMxIDI0LDMyIDI5LDMxIi8%2BJiN4YTsgICAgPHBvbHlnb24gZmlsbD0iI0QzMkYyRiIgcG9pbnRzPSIyMywzNSAyMi4zLDM5LjUgMjQsNDMuNSAyNS43LDM5LjUgMjUsMzUgMjYsMzQgMjQsMzIgMjIsMzQiLz4mI3hhOyAgICA8cGF0aCBmaWxsPSIjNTQ2RTdBIiBkPSJNMjksMzFMMjksMzFsLTUsMTJsLTUtMTJjMCwwLTExLDItMTEsMTNoMzJDNDAsMzMsMjksMzEsMjksMzF6Ii8%2BJiN4YTs8L3N2Zz4%3D%3BlabelBackgroundColor%3D%23ffffff%3B%22%20vertex%3D%221%22%20parent%3D%221%22%3E%3CmxGeometry%20x%3D%22188%22%20y%3D%22-290%22%20width%3D%2280%22%20height%3D%2280%22%20as%3D%22geometry%22%2F%3E%3C%2FmxCell%3E%3CmxCell%20id%3D%2220%22%20value%3D%22Voters%20Guide%22%20style%3D%22ellipse%3BwhiteSpace%3Dwrap%3Bhtml%3D1%3B%22%20vertex%3D%221%22%20parent%3D%221%22%3E%3CmxGeometry%20x%3D%22175%22%20y%3D%22-470%22%20width%3D%22120%22%20height%3D%2280%22%20as%3D%22geometry%22%2F%3E%3C%2FmxCell%3E%3CmxCell%20id%3D%2221%22%20value%3D%22Candidate%20Guide%22%20style%3D%22ellipse%3BwhiteSpace%3Dwrap%3Bhtml%3D1%3Bdirection%3Deast%3B%22%20vertex%3D%221%22%20parent%3D%221%22%3E%3CmxGeometry%20x%3D%22-30%22%20y%3D%22-410%22%20width%3D%22120%22%20height%3D%2280%22%20as%3D%22geometry%22%2F%3E%3C%2FmxCell%3E%3CmxCell%20id%3D%2222%22%20value%3D%22Party%20Guide%22%20style%3D%22ellipse%3BwhiteSpace%3Dwrap%3Bhtml%3D1%3B%22%20vertex%3D%221%22%20parent%3D%221%22%3E%3CmxGeometry%20x%3D%22-40%22%20y%3D%22-250%22%20width%3D%22120%22%20height%3D%2280%22%20as%3D%22geometry%22%2F%3E%3C%2FmxCell%3E%3CmxCell%20id%3D%2223%22%20value%3D%22%22%20style%3D%22endArrow%3Dnone%3Bhtml%3D1%3Brounded%3D0%3BentryX%3D1%3BentryY%3D0.5%3BentryDx%3D0%3BentryDy%3D0%3BexitX%3D-0.058%3BexitY%3D0.875%3BexitDx%3D0%3BexitDy%3D0%3BexitPerimeter%3D0%3B%22%20edge%3D%221%22%20source%3D%2219%22%20target%3D%2222%22%20parent%3D%221%22%3E%3CmxGeometry%20width%3D%2250%22%20height%3D%2250%22%20relative%3D%221%22%20as%3D%22geometry%22%3E%3CmxPoint%20x%3D%22218%22%20y%3D%22-226%22%20as%3D%22sourcePoint%22%2F%3E%3CmxPoint%20x%3D%22308%22%20y%3D%22-70%22%20as%3D%22targetPoint%22%2F%3E%3CArray%20as%3D%22points%22%2F%3E%3C%2FmxGeometry%3E%3C%2FmxCell%3E%3CmxCell%20id%3D%2224%22%20value%3D%22%22%20style%3D%22endArrow%3Dnone%3Bhtml%3D1%3Brounded%3D0%3BentryX%3D0.5%3BentryY%3D1%3BentryDx%3D0%3BentryDy%3D0%3BexitX%3D0.5%3BexitY%3D0%3BexitDx%3D0%3BexitDy%3D0%3B%22%20edge%3D%221%22%20source%3D%2219%22%20target%3D%2220%22%20parent%3D%221%22%3E%3CmxGeometry%20width%3D%2250%22%20height%3D%2250%22%20relative%3D%221%22%20as%3D%22geometry%22%3E%3CmxPoint%20x%3D%22242%22%20y%3D%22-200%22%20as%3D%22sourcePoint%22%2F%3E%3CmxPoint%20x%3D%22258%22%20y%3D%22-60%22%20as%3D%22targetPoint%22%2F%3E%3C%2FmxGeometry%3E%3C%2FmxCell%3E%3CmxCell%20id%3D%2225%22%20value%3D%22%22%20style%3D%22endArrow%3Dnone%3Bhtml%3D1%3Brounded%3D0%3BentryX%3D0.992%3BentryY%3D0.615%3BentryDx%3D0%3BentryDy%3D0%3BexitX%3D0%3BexitY%3D0%3BexitDx%3D0%3BexitDy%3D0%3BentryPerimeter%3D0%3B%22%20edge%3D%221%22%20source%3D%2219%22%20target%3D%2221%22%20parent%3D%221%22%3E%3CmxGeometry%20width%3D%2250%22%20height%3D%2250%22%20relative%3D%221%22%20as%3D%22geometry%22%3E%3CmxPoint%20x%3D%22238%22%20y%3D%22-280%22%20as%3D%22sourcePoint%22%2F%3E%3CmxPoint%20x%3D%22245%22%20y%3D%22-380%22%20as%3D%22targetPoint%22%2F%3E%3C%2FmxGeometry%3E%3C%2FmxCell%3E%3C%2Froot%3E%3C%2FmxGraphModel%3E&lt;/span&gt;" style="text;html=1;align=center;verticalAlign=middle;resizable=0;points=[];autosize=1;strokeColor=none;fillColor=none;" parent="1" vertex="1">
          <mxGeometry x="-600" y="409.5" width="20" height="30" as="geometry" />
        </mxCell>
        <mxCell id="wYGtLHFu_H6YtD4rmj5H-10" value="Party Guide" style="ellipse;whiteSpace=wrap;html=1;" parent="1" vertex="1">
          <mxGeometry x="-650" y="423.5" width="120" height="80" as="geometry" />
        </mxCell>
        <mxCell id="wYGtLHFu_H6YtD4rmj5H-11" value="" style="shape=image;verticalLabelPosition=bottom;labelBackgroundColor=default;verticalAlign=top;aspect=fixed;imageAspect=0;image=data:image/svg+xml,PHN2ZyB4bWxucz0iaHR0cDovL3d3dy53My5vcmcvMjAwMC9zdmciIHZpZXdCb3g9IjAgMCA1MTIgNTEyIj48cGF0aCBkPSJNMTUyLjEgMzguMmM5LjkgOC45IDEwLjcgMjQgMS44IDMzLjlsLTcyIDgwYy00LjQgNC45LTEwLjYgNy44LTE3LjIgNy45cy0xMi45LTIuNC0xNy42LTdMNyAxMTNDLTIuMyAxMDMuNi0yLjMgODguNCA3IDc5czI0LjYtOS40IDMzLjkgMGwyMi4xIDIyLjEgNTUuMS02MS4yYzguOS05LjkgMjQtMTAuNyAzMy45LTEuOHptMCAxNjBjOS45IDguOSAxMC43IDI0IDEuOCAzMy45bC03MiA4MGMtNC40IDQuOS0xMC42IDcuOC0xNy4yIDcuOXMtMTIuOS0yLjQtMTcuNi03TDcgMjczYy05LjQtOS40LTkuNC0yNC42IDAtMzMuOXMyNC42LTkuNCAzMy45IDBsMjIuMSAyMi4xIDU1LjEtNjEuMmM4LjktOS45IDI0LTEwLjcgMzMuOS0xLjh6TTIyNCA5NmMwLTE3LjcgMTQuMy0zMiAzMi0zMkg0ODBjMTcuNyAwIDMyIDE0LjMgMzIgMzJzLTE0LjMgMzItMzIgMzJIMjU2Yy0xNy43IDAtMzItMTQuMy0zMi0zMnptMCAxNjBjMC0xNy43IDE0LjMtMzIgMzItMzJINDgwYzE3LjcgMCAzMiAxNC4zIDMyIDMycy0xNC4zIDMyLTMyIDMySDI1NmMtMTcuNyAwLTMyLTE0LjMtMzItMzJ6TTE2MCA0MTZjMC0xNy43IDE0LjMtMzIgMzItMzJINDgwYzE3LjcgMCAzMiAxNC4zIDMyIDMycy0xNC4zIDMyLTMyIDMySDE5MmMtMTcuNyAwLTMyLTE0LjMtMzItMzJ6TTQ4IDM2OGE0OCA0OCAwIDEgMSAwIDk2IDQ4IDQ4IDAgMSAxIDAtOTZ6Ii8+PC9zdmc+;" parent="1" vertex="1">
          <mxGeometry x="-622.5" y="397" width="49" height="49" as="geometry" />
        </mxCell>
        <mxCell id="wYGtLHFu_H6YtD4rmj5H-12" value="" style="endArrow=none;html=1;rounded=0;entryX=1;entryY=0.5;entryDx=0;entryDy=0;exitX=0;exitY=0.5;exitDx=0;exitDy=0;" parent="1" source="_JjsHGZuqhBBGKbj4It--82" target="wYGtLHFu_H6YtD4rmj5H-10" edge="1">
          <mxGeometry width="50" height="50" relative="1" as="geometry">
            <mxPoint x="-402" y="505.78999999999996" as="sourcePoint" />
            <mxPoint x="-530" y="506.78999999999996" as="targetPoint" />
            <Array as="points" />
          </mxGeometry>
        </mxCell>
        <mxCell id="wYGtLHFu_H6YtD4rmj5H-13" value="Voters Guide" style="ellipse;whiteSpace=wrap;html=1;" parent="1" vertex="1">
          <mxGeometry x="-390" y="-325.5" width="120" height="80" as="geometry" />
        </mxCell>
        <mxCell id="wYGtLHFu_H6YtD4rmj5H-14" value="" style="shape=image;verticalLabelPosition=bottom;labelBackgroundColor=default;verticalAlign=top;aspect=fixed;imageAspect=0;image=data:image/svg+xml,PHN2ZyB4bWxucz0iaHR0cDovL3d3dy53My5vcmcvMjAwMC9zdmciIHZpZXdCb3g9IjAgMCA1MTIgNTEyIj48cGF0aCBkPSJNMTUyLjEgMzguMmM5LjkgOC45IDEwLjcgMjQgMS44IDMzLjlsLTcyIDgwYy00LjQgNC45LTEwLjYgNy44LTE3LjIgNy45cy0xMi45LTIuNC0xNy42LTdMNyAxMTNDLTIuMyAxMDMuNi0yLjMgODguNCA3IDc5czI0LjYtOS40IDMzLjkgMGwyMi4xIDIyLjEgNTUuMS02MS4yYzguOS05LjkgMjQtMTAuNyAzMy45LTEuOHptMCAxNjBjOS45IDguOSAxMC43IDI0IDEuOCAzMy45bC03MiA4MGMtNC40IDQuOS0xMC42IDcuOC0xNy4yIDcuOXMtMTIuOS0yLjQtMTcuNi03TDcgMjczYy05LjQtOS40LTkuNC0yNC42IDAtMzMuOXMyNC42LTkuNCAzMy45IDBsMjIuMSAyMi4xIDU1LjEtNjEuMmM4LjktOS45IDI0LTEwLjcgMzMuOS0xLjh6TTIyNCA5NmMwLTE3LjcgMTQuMy0zMiAzMi0zMkg0ODBjMTcuNyAwIDMyIDE0LjMgMzIgMzJzLTE0LjMgMzItMzIgMzJIMjU2Yy0xNy43IDAtMzItMTQuMy0zMi0zMnptMCAxNjBjMC0xNy43IDE0LjMtMzIgMzItMzJINDgwYzE3LjcgMCAzMiAxNC4zIDMyIDMycy0xNC4zIDMyLTMyIDMySDI1NmMtMTcuNyAwLTMyLTE0LjMtMzItMzJ6TTE2MCA0MTZjMC0xNy43IDE0LjMtMzIgMzItMzJINDgwYzE3LjcgMCAzMiAxNC4zIDMyIDMycy0xNC4zIDMyLTMyIDMySDE5MmMtMTcuNyAwLTMyLTE0LjMtMzItMzJ6TTQ4IDM2OGE0OCA0OCAwIDEgMSAwIDk2IDQ4IDQ4IDAgMSAxIDAtOTZ6Ii8+PC9zdmc+;" parent="1" vertex="1">
          <mxGeometry x="-354.5" y="-350" width="49" height="49" as="geometry" />
        </mxCell>
        <mxCell id="wYGtLHFu_H6YtD4rmj5H-15" style="rounded=0;orthogonalLoop=1;jettySize=auto;html=1;endArrow=none;endFill=0;sourcePerimeterSpacing=5;targetPerimeterSpacing=5;entryX=0;entryY=0.5;entryDx=0;entryDy=0;exitX=0.954;exitY=0.69;exitDx=0;exitDy=0;exitPerimeter=0;" parent="1" source="wYGtLHFu_H6YtD4rmj5H-13" target="_JjsHGZuqhBBGKbj4It--1" edge="1">
          <mxGeometry relative="1" as="geometry">
            <mxPoint x="-266.5" y="-226" as="sourcePoint" />
            <mxPoint x="-36.5" y="-250" as="targetPoint" />
          </mxGeometry>
        </mxCell>
        <mxCell id="wYGtLHFu_H6YtD4rmj5H-16" value="Candidate Guide" style="ellipse;whiteSpace=wrap;html=1;direction=east;" parent="1" vertex="1">
          <mxGeometry x="914" y="-471.5" width="120" height="80" as="geometry" />
        </mxCell>
        <mxCell id="wYGtLHFu_H6YtD4rmj5H-17" value="" style="shape=image;verticalLabelPosition=bottom;labelBackgroundColor=default;verticalAlign=top;aspect=fixed;imageAspect=0;image=data:image/svg+xml,PHN2ZyB4bWxucz0iaHR0cDovL3d3dy53My5vcmcvMjAwMC9zdmciIHZpZXdCb3g9IjAgMCA1MTIgNTEyIj48cGF0aCBkPSJNMTUyLjEgMzguMmM5LjkgOC45IDEwLjcgMjQgMS44IDMzLjlsLTcyIDgwYy00LjQgNC45LTEwLjYgNy44LTE3LjIgNy45cy0xMi45LTIuNC0xNy42LTdMNyAxMTNDLTIuMyAxMDMuNi0yLjMgODguNCA3IDc5czI0LjYtOS40IDMzLjkgMGwyMi4xIDIyLjEgNTUuMS02MS4yYzguOS05LjkgMjQtMTAuNyAzMy45LTEuOHptMCAxNjBjOS45IDguOSAxMC43IDI0IDEuOCAzMy45bC03MiA4MGMtNC40IDQuOS0xMC42IDcuOC0xNy4yIDcuOXMtMTIuOS0yLjQtMTcuNi03TDcgMjczYy05LjQtOS40LTkuNC0yNC42IDAtMzMuOXMyNC42LTkuNCAzMy45IDBsMjIuMSAyMi4xIDU1LjEtNjEuMmM4LjktOS45IDI0LTEwLjcgMzMuOS0xLjh6TTIyNCA5NmMwLTE3LjcgMTQuMy0zMiAzMi0zMkg0ODBjMTcuNyAwIDMyIDE0LjMgMzIgMzJzLTE0LjMgMzItMzIgMzJIMjU2Yy0xNy43IDAtMzItMTQuMy0zMi0zMnptMCAxNjBjMC0xNy43IDE0LjMtMzIgMzItMzJINDgwYzE3LjcgMCAzMiAxNC4zIDMyIDMycy0xNC4zIDMyLTMyIDMySDI1NmMtMTcuNyAwLTMyLTE0LjMtMzItMzJ6TTE2MCA0MTZjMC0xNy43IDE0LjMtMzIgMzItMzJINDgwYzE3LjcgMCAzMiAxNC4zIDMyIDMycy0xNC4zIDMyLTMyIDMySDE5MmMtMTcuNyAwLTMyLTE0LjMtMzItMzJ6TTQ4IDM2OGE0OCA0OCAwIDEgMSAwIDk2IDQ4IDQ4IDAgMSAxIDAtOTZ6Ii8+PC9zdmc+;" parent="1" vertex="1">
          <mxGeometry x="953.1199999999999" y="-492.5" width="49" height="49" as="geometry" />
        </mxCell>
        <mxCell id="wYGtLHFu_H6YtD4rmj5H-18" style="rounded=0;orthogonalLoop=1;jettySize=auto;html=1;endArrow=none;endFill=0;sourcePerimeterSpacing=5;targetPerimeterSpacing=5;entryX=0.5;entryY=1;entryDx=0;entryDy=0;exitX=0.25;exitY=0;exitDx=0;exitDy=0;" parent="1" source="_JjsHGZuqhBBGKbj4It--27" target="wYGtLHFu_H6YtD4rmj5H-16" edge="1">
          <mxGeometry relative="1" as="geometry">
            <mxPoint x="1174" y="-275.5" as="sourcePoint" />
            <mxPoint x="1000" y="-369.5" as="targetPoint" />
          </mxGeometry>
        </mxCell>
        <mxCell id="wYGtLHFu_H6YtD4rmj5H-19" value="" style="shape=image;verticalLabelPosition=bottom;labelBackgroundColor=default;verticalAlign=top;aspect=fixed;imageAspect=0;image=data:image/svg+xml,PHN2ZyB4bWxucz0iaHR0cDovL3d3dy53My5vcmcvMjAwMC9zdmciIHZpZXdCb3g9IjAgMCA0NDggNTEyIj48cGF0aCBkPSJNNjQgODBjLTguOCAwLTE2IDcuMi0xNiAxNlY0MTZjMCA4LjggNy4yIDE2IDE2IDE2SDM4NGM4LjggMCAxNi03LjIgMTYtMTZWOTZjMC04LjgtNy4yLTE2LTE2LTE2SDY0ek0wIDk2QzAgNjAuNyAyOC43IDMyIDY0IDMySDM4NGMzNS4zIDAgNjQgMjguNyA2NCA2NFY0MTZjMCAzNS4zLTI4LjcgNjQtNjQgNjRINjRjLTM1LjMgMC02NC0yOC43LTY0LTY0Vjk2ek0yMDAgMzQ0VjI4MEgxMzZjLTEzLjMgMC0yNC0xMC43LTI0LTI0czEwLjctMjQgMjQtMjRoNjRWMTY4YzAtMTMuMyAxMC43LTI0IDI0LTI0czI0IDEwLjcgMjQgMjR2NjRoNjRjMTMuMyAwIDI0IDEwLjcgMjQgMjRzLTEwLjcgMjQtMjQgMjRIMjQ4djY0YzAgMTMuMy0xMC43IDI0LTI0IDI0cy0yNC0xMC43LTI0LTI0eiIvPjwvc3ZnPg==;" parent="1" vertex="1">
          <mxGeometry x="323" y="-407" width="49.87" height="57" as="geometry" />
        </mxCell>
        <mxCell id="wYGtLHFu_H6YtD4rmj5H-20" value="" style="shape=image;verticalLabelPosition=bottom;labelBackgroundColor=default;verticalAlign=top;aspect=fixed;imageAspect=0;image=data:image/svg+xml,PHN2ZyB4bWxucz0iaHR0cDovL3d3dy53My5vcmcvMjAwMC9zdmciIHZpZXdCb3g9IjAgMCA0NDggNTEyIj48cGF0aCBkPSJNNjQgODBjLTguOCAwLTE2IDcuMi0xNiAxNlY0MTZjMCA4LjggNy4yIDE2IDE2IDE2SDM4NGM4LjggMCAxNi03LjIgMTYtMTZWOTZjMC04LjgtNy4yLTE2LTE2LTE2SDY0ek0wIDk2QzAgNjAuNyAyOC43IDMyIDY0IDMySDM4NGMzNS4zIDAgNjQgMjguNyA2NCA2NFY0MTZjMCAzNS4zLTI4LjcgNjQtNjQgNjRINjRjLTM1LjMgMC02NC0yOC43LTY0LTY0Vjk2ek0yMDAgMzQ0VjI4MEgxMzZjLTEzLjMgMC0yNC0xMC43LTI0LTI0czEwLjctMjQgMjQtMjRoNjRWMTY4YzAtMTMuMyAxMC43LTI0IDI0LTI0czI0IDEwLjcgMjQgMjR2NjRoNjRjMTMuMyAwIDI0IDEwLjcgMjQgMjRzLTEwLjcgMjQtMjQgMjRIMjQ4djY0YzAgMTMuMy0xMC43IDI0LTI0IDI0cy0yNC0xMC43LTI0LTI0eiIvPjwvc3ZnPg==;" parent="1" vertex="1">
          <mxGeometry x="-91" y="315.5" width="49.87" height="57" as="geometry" />
        </mxCell>
        <mxCell id="wYGtLHFu_H6YtD4rmj5H-21" value="" style="shape=image;verticalLabelPosition=bottom;labelBackgroundColor=default;verticalAlign=top;aspect=fixed;imageAspect=0;image=data:image/svg+xml,PHN2ZyB4bWxucz0iaHR0cDovL3d3dy53My5vcmcvMjAwMC9zdmciIHZpZXdCb3g9IjAgMCA0NDggNTEyIj48cGF0aCBkPSJNNjQgODBjLTguOCAwLTE2IDcuMi0xNiAxNlY0MTZjMCA4LjggNy4yIDE2IDE2IDE2SDM4NGM4LjggMCAxNi03LjIgMTYtMTZWOTZjMC04LjgtNy4yLTE2LTE2LTE2SDY0ek0wIDk2QzAgNjAuNyAyOC43IDMyIDY0IDMySDM4NGMzNS4zIDAgNjQgMjguNyA2NCA2NFY0MTZjMCAzNS4zLTI4LjcgNjQtNjQgNjRINjRjLTM1LjMgMC02NC0yOC43LTY0LTY0Vjk2ek0yMDAgMzQ0VjI4MEgxMzZjLTEzLjMgMC0yNC0xMC43LTI0LTI0czEwLjctMjQgMjQtMjRoNjRWMTY4YzAtMTMuMyAxMC43LTI0IDI0LTI0czI0IDEwLjcgMjQgMjR2NjRoNjRjMTMuMyAwIDI0IDEwLjcgMjQgMjRzLTEwLjcgMjQtMjQgMjRIMjQ4djY0YzAgMTMuMy0xMC43IDI0LTI0IDI0cy0yNC0xMC43LTI0LTI0eiIvPjwvc3ZnPg==;" parent="1" vertex="1">
          <mxGeometry x="1411.13" y="-436.5" width="49.87" height="57" as="geometry" />
        </mxCell>
        <mxCell id="wYGtLHFu_H6YtD4rmj5H-22" value="" style="shape=image;verticalLabelPosition=bottom;labelBackgroundColor=default;verticalAlign=top;aspect=fixed;imageAspect=0;image=data:image/svg+xml,PHN2ZyB4bWxucz0iaHR0cDovL3d3dy53My5vcmcvMjAwMC9zdmciIHZpZXdCb3g9IjAgMCA1MTIgNTEyIj48cGF0aCBkPSJNMjg4IDMyYzAtMTcuNy0xNC4zLTMyLTMyLTMycy0zMiAxNC4zLTMyIDMyVjI3NC43bC03My40LTczLjRjLTEyLjUtMTIuNS0zMi44LTEyLjUtNDUuMyAwcy0xMi41IDMyLjggMCA0NS4zbDEyOCAxMjhjMTIuNSAxMi41IDMyLjggMTIuNSA0NS4zIDBsMTI4LTEyOGMxMi41LTEyLjUgMTIuNS0zMi44IDAtNDUuM3MtMzIuOC0xMi41LTQ1LjMgMEwyODggMjc0LjdWMzJ6TTY0IDM1MmMtMzUuMyAwLTY0IDI4LjctNjQgNjR2MzJjMCAzNS4zIDI4LjcgNjQgNjQgNjRINDQ4YzM1LjMgMCA2NC0yOC43IDY0LTY0VjQxNmMwLTM1LjMtMjguNy02NC02NC02NEgzNDYuNWwtNDUuMyA0NS4zYy0yNSAyNS02NS41IDI1LTkwLjUgMEwxNjUuNSAzNTJINjR6bTM2OCA1NmEyNCAyNCAwIDEgMSAwIDQ4IDI0IDI0IDAgMSAxIDAtNDh6Ii8+PC9zdmc+;" parent="1" vertex="1">
          <mxGeometry x="87" y="-20" width="46" height="46" as="geometry" />
        </mxCell>
        <mxCell id="wYGtLHFu_H6YtD4rmj5H-23" value="" style="shape=image;verticalLabelPosition=bottom;labelBackgroundColor=default;verticalAlign=top;aspect=fixed;imageAspect=0;image=data:image/svg+xml,PHN2ZyB4bWxucz0iaHR0cDovL3d3dy53My5vcmcvMjAwMC9zdmciIHZpZXdCb3g9IjAgMCA1NzYgNTEyIj48cGF0aCBkPSJNNTI4IDE2MFY0MTZjMCA4LjgtNy4yIDE2LTE2IDE2SDMyMGMwLTQ0LjItMzUuOC04MC04MC04MEgxNzZjLTQ0LjIgMC04MCAzNS44LTgwIDgwSDY0Yy04LjggMC0xNi03LjItMTYtMTZWMTYwSDUyOHpNNjQgMzJDMjguNyAzMiAwIDYwLjcgMCA5NlY0MTZjMCAzNS4zIDI4LjcgNjQgNjQgNjRINTEyYzM1LjMgMCA2NC0yOC43IDY0LTY0Vjk2YzAtMzUuMy0yOC43LTY0LTY0LTY0SDY0ek0yNzIgMjU2YTY0IDY0IDAgMSAwIC0xMjggMCA2NCA2NCAwIDEgMCAxMjggMHptMTA0LTQ4Yy0xMy4zIDAtMjQgMTAuNy0yNCAyNHMxMC43IDI0IDI0IDI0aDgwYzEzLjMgMCAyNC0xMC43IDI0LTI0cy0xMC43LTI0LTI0LTI0SDM3NnptMCA5NmMtMTMuMyAwLTI0IDEwLjctMjQgMjRzMTAuNyAyNCAyNCAyNGg4MGMxMy4zIDAgMjQtMTAuNyAyNC0yNHMtMTAuNy0yNC0yNC0yNEgzNzZ6Ii8+PC9zdmc+;" parent="1" vertex="1">
          <mxGeometry x="-509.25" y="311" width="58.5" height="52" as="geometry" />
        </mxCell>
        <mxCell id="wYGtLHFu_H6YtD4rmj5H-25" value="" style="rounded=0;orthogonalLoop=1;jettySize=auto;html=1;endArrow=none;endFill=0;sourcePerimeterSpacing=5;targetPerimeterSpacing=5;entryX=0.25;entryY=1;entryDx=0;entryDy=0;exitX=0.5;exitY=0;exitDx=0;exitDy=0;" parent="1" source="_JjsHGZuqhBBGKbj4It--44" target="wYGtLHFu_H6YtD4rmj5H-24" edge="1">
          <mxGeometry relative="1" as="geometry">
            <mxPoint x="1190" y="-9.5" as="sourcePoint" />
            <mxPoint x="1214" y="-190.5" as="targetPoint" />
          </mxGeometry>
        </mxCell>
        <mxCell id="wYGtLHFu_H6YtD4rmj5H-24" value="" style="shape=image;verticalLabelPosition=bottom;labelBackgroundColor=default;verticalAlign=top;aspect=fixed;imageAspect=0;image=data:image/svg+xml,PHN2ZyB4bWxucz0iaHR0cDovL3d3dy53My5vcmcvMjAwMC9zdmciIHZpZXdCb3g9IjAgMCA1NzYgNTEyIj48cGF0aCBkPSJNNTI4IDE2MFY0MTZjMCA4LjgtNy4yIDE2LTE2IDE2SDMyMGMwLTQ0LjItMzUuOC04MC04MC04MEgxNzZjLTQ0LjIgMC04MCAzNS44LTgwIDgwSDY0Yy04LjggMC0xNi03LjItMTYtMTZWMTYwSDUyOHpNNjQgMzJDMjguNyAzMiAwIDYwLjcgMCA5NlY0MTZjMCAzNS4zIDI4LjcgNjQgNjQgNjRINTEyYzM1LjMgMCA2NC0yOC43IDY0LTY0Vjk2YzAtMzUuMy0yOC43LTY0LTY0LTY0SDY0ek0yNzIgMjU2YTY0IDY0IDAgMSAwIC0xMjggMCA2NCA2NCAwIDEgMCAxMjggMHptMTA0LTQ4Yy0xMy4zIDAtMjQgMTAuNy0yNCAyNHMxMC43IDI0IDI0IDI0aDgwYzEzLjMgMCAyNC0xMC43IDI0LTI0cy0xMC43LTI0LTI0LTI0SDM3NnptMCA5NmMtMTMuMyAwLTI0IDEwLjctMjQgMjRzMTAuNyAyNCAyNCAyNGg4MGMxMy4zIDAgMjQtMTAuNyAyNC0yNHMtMTAuNy0yNC0yNC0yNEgzNzZ6Ii8+PC9zdmc+;" parent="1" vertex="1">
          <mxGeometry x="1160.75" y="-35.5" width="58.5" height="52" as="geometry" />
        </mxCell>
        <mxCell id="wYGtLHFu_H6YtD4rmj5H-27" value="view all parties&lt;span style=&quot;color: rgba(0, 0, 0, 0); font-family: monospace; font-size: 0px; text-align: start; text-wrap: nowrap;&quot;&gt;%3CmxGraphModel%3E%3Croot%3E%3CmxCell%20id%3D%220%22%2F%3E%3CmxCell%20id%3D%221%22%20parent%3D%220%22%2F%3E%3CmxCell%20id%3D%222%22%20style%3D%22rounded%3D0%3BorthogonalLoop%3D1%3BjettySize%3Dauto%3Bhtml%3D1%3BendArrow%3Dnone%3BendFill%3D0%3BsourcePerimeterSpacing%3D5%3BtargetPerimeterSpacing%3D5%3BexitX%3D0%3BexitY%3D0.5%3BexitDx%3D0%3BexitDy%3D0%3BentryX%3D0.75%3BentryY%3D0%3BentryDx%3D0%3BentryDy%3D0%3B%22%20edge%3D%221%22%20source%3D%223%22%20parent%3D%221%22%3E%3CmxGeometry%20relative%3D%221%22%20as%3D%22geometry%22%3E%3CmxPoint%20x%3D%22190%22%20y%3D%22-300%22%20as%3D%22sourcePoint%22%2F%3E%3CmxPoint%20x%3D%2286%22%20y%3D%22-210%22%20as%3D%22targetPoint%22%2F%3E%3C%2FmxGeometry%3E%3C%2FmxCell%3E%3CmxCell%20id%3D%223%22%20value%3D%22Login%22%20style%3D%22ellipse%3BwhiteSpace%3Dwrap%3Bhtml%3D1%3B%22%20vertex%3D%221%22%20parent%3D%221%22%3E%3CmxGeometry%20x%3D%22263%22%20y%3D%22-453%22%20width%3D%22120%22%20height%3D%2280%22%20as%3D%22geometry%22%2F%3E%3C%2FmxCell%3E%3C%2Froot%3E%3C%2FmxGraphModel%3E&lt;/span&gt;" style="ellipse;whiteSpace=wrap;html=1;" parent="1" vertex="1">
          <mxGeometry x="266" y="606.5" width="160" height="80" as="geometry" />
        </mxCell>
        <mxCell id="wYGtLHFu_H6YtD4rmj5H-28" value="" style="shape=image;verticalLabelPosition=bottom;labelBackgroundColor=default;verticalAlign=top;aspect=fixed;imageAspect=0;image=data:image/svg+xml,PHN2ZyB4bWxucz0iaHR0cDovL3d3dy53My5vcmcvMjAwMC9zdmciIHZpZXdCb3g9IjAgMCA1NzYgNTEyIj48cGF0aCBkPSJNMjA4IDgwYzAtMjYuNSAyMS41LTQ4IDQ4LTQ4aDY0YzI2LjUgMCA0OCAyMS41IDQ4IDQ4djY0YzAgMjYuNS0yMS41IDQ4LTQ4IDQ4aC04djQwSDQ2NGMzMC45IDAgNTYgMjUuMSA1NiA1NnYzMmg4YzI2LjUgMCA0OCAyMS41IDQ4IDQ4djY0YzAgMjYuNS0yMS41IDQ4LTQ4IDQ4SDQ2NGMtMjYuNSAwLTQ4LTIxLjUtNDgtNDhWMzY4YzAtMjYuNSAyMS41LTQ4IDQ4LTQ4aDhWMjg4YzAtNC40LTMuNi04LTgtOEgzMTJ2NDBoOGMyNi41IDAgNDggMjEuNSA0OCA0OHY2NGMwIDI2LjUtMjEuNSA0OC00OCA0OEgyNTZjLTI2LjUgMC00OC0yMS41LTQ4LTQ4VjM2OGMwLTI2LjUgMjEuNS00OCA0OC00OGg4VjI4MEgxMTJjLTQuNCAwLTggMy42LTggOHYzMmg4YzI2LjUgMCA0OCAyMS41IDQ4IDQ4djY0YzAgMjYuNS0yMS41IDQ4LTQ4IDQ4SDQ4Yy0yNi41IDAtNDgtMjEuNS00OC00OFYzNjhjMC0yNi41IDIxLjUtNDggNDgtNDhoOFYyODhjMC0zMC45IDI1LjEtNTYgNTYtNTZIMjY0VjE5MmgtOGMtMjYuNSAwLTQ4LTIxLjUtNDgtNDhWODB6Ii8+PC9zdmc+;" parent="1" vertex="1">
          <mxGeometry x="315.06" y="573.5" width="61.88" height="55" as="geometry" />
        </mxCell>
        <mxCell id="wYGtLHFu_H6YtD4rmj5H-29" value="" style="endArrow=none;html=1;rounded=0;entryX=0;entryY=0.75;entryDx=0;entryDy=0;exitX=0.938;exitY=0.24;exitDx=0;exitDy=0;exitPerimeter=0;" parent="1" source="wYGtLHFu_H6YtD4rmj5H-27" target="_JjsHGZuqhBBGKbj4It--99" edge="1">
          <mxGeometry width="50" height="50" relative="1" as="geometry">
            <mxPoint x="427.25" y="661" as="sourcePoint" />
            <mxPoint x="488.25" y="564" as="targetPoint" />
          </mxGeometry>
        </mxCell>
        <mxCell id="hF8eWSVSDLsbeJowuzhl-1" value="Feedback" style="ellipse;whiteSpace=wrap;html=1;" parent="1" vertex="1">
          <mxGeometry x="-466" y="-229" width="130" height="80" as="geometry" />
        </mxCell>
        <mxCell id="hF8eWSVSDLsbeJowuzhl-5" style="rounded=0;orthogonalLoop=1;jettySize=auto;html=1;endArrow=none;endFill=0;sourcePerimeterSpacing=5;targetPerimeterSpacing=5;entryX=0;entryY=0.75;entryDx=0;entryDy=0;exitX=1;exitY=0.5;exitDx=0;exitDy=0;" parent="1" source="hF8eWSVSDLsbeJowuzhl-1" target="_JjsHGZuqhBBGKbj4It--1" edge="1">
          <mxGeometry relative="1" as="geometry">
            <mxPoint x="-329" y="-165" as="sourcePoint" />
            <mxPoint x="-76" y="-239" as="targetPoint" />
          </mxGeometry>
        </mxCell>
        <mxCell id="hF8eWSVSDLsbeJowuzhl-6" value="Feedback" style="ellipse;whiteSpace=wrap;html=1;" parent="1" vertex="1">
          <mxGeometry x="-460" y="242.5" width="130" height="80" as="geometry" />
        </mxCell>
        <mxCell id="hF8eWSVSDLsbeJowuzhl-8" style="rounded=0;orthogonalLoop=1;jettySize=auto;html=1;endArrow=none;endFill=0;sourcePerimeterSpacing=5;targetPerimeterSpacing=5;exitX=0.25;exitY=0;exitDx=0;exitDy=0;entryX=0.635;entryY=1.071;entryDx=0;entryDy=0;entryPerimeter=0;" parent="1" source="_JjsHGZuqhBBGKbj4It--82" target="hF8eWSVSDLsbeJowuzhl-6" edge="1">
          <mxGeometry relative="1" as="geometry">
            <mxPoint x="-336" y="478" as="sourcePoint" />
            <mxPoint x="-341" y="352" as="targetPoint" />
          </mxGeometry>
        </mxCell>
        <mxCell id="hF8eWSVSDLsbeJowuzhl-10" value="Feedback" style="ellipse;whiteSpace=wrap;html=1;" parent="1" vertex="1">
          <mxGeometry x="954" width="130" height="80" as="geometry" />
        </mxCell>
        <mxCell id="hF8eWSVSDLsbeJowuzhl-12" style="rounded=0;orthogonalLoop=1;jettySize=auto;html=1;endArrow=none;endFill=0;sourcePerimeterSpacing=5;targetPerimeterSpacing=5;entryX=0.25;entryY=1;entryDx=0;entryDy=0;exitX=0.728;exitY=0.059;exitDx=0;exitDy=0;exitPerimeter=0;" parent="1" source="hF8eWSVSDLsbeJowuzhl-10" target="_JjsHGZuqhBBGKbj4It--27" edge="1">
          <mxGeometry relative="1" as="geometry">
            <mxPoint x="987.75" y="-19" as="sourcePoint" />
            <mxPoint x="1140" y="-181.5" as="targetPoint" />
          </mxGeometry>
        </mxCell>
        <mxCell id="hF8eWSVSDLsbeJowuzhl-13" value="" style="shape=image;verticalLabelPosition=bottom;labelBackgroundColor=default;verticalAlign=top;aspect=fixed;imageAspect=0;image=data:image/svg+xml,PHN2ZyB4bWxucz0iaHR0cDovL3d3dy53My5vcmcvMjAwMC9zdmciIHZpZXdCb3g9IjAgMCA1MTIgNTEyIj48cGF0aCBkPSJNMjU2IDQ0OGMxNDEuNCAwIDI1Ni05My4xIDI1Ni0yMDhTMzk3LjQgMzIgMjU2IDMyUzAgMTI1LjEgMCAyNDBjMCA0NS4xIDE3LjcgODYuOCA0Ny43IDEyMC45Yy0xLjkgMjQuNS0xMS40IDQ2LjMtMjEuNCA2Mi45Yy01LjUgOS4yLTExLjEgMTYuNi0xNS4yIDIxLjZjLTIuMSAyLjUtMy43IDQuNC00LjkgNS43Yy0uNiAuNi0xIDEuMS0xLjMgMS40bC0uMyAuMyAwIDAgMCAwIDAgMCAwIDBjLTQuNiA0LjYtNS45IDExLjQtMy40IDE3LjRjMi41IDYgOC4zIDkuOSAxNC44IDkuOWMyOC43IDAgNTcuNi04LjkgODEuNi0xOS4zYzIyLjktMTAgNDIuNC0yMS45IDU0LjMtMzAuNmMzMS44IDExLjUgNjcgMTcuOSAxMDQuMSAxNy45ek0xMjggMjA4YTMyIDMyIDAgMSAxIDAgNjQgMzIgMzIgMCAxIDEgMC02NHptMTI4IDBhMzIgMzIgMCAxIDEgMCA2NCAzMiAzMiAwIDEgMSAwLTY0em05NiAzMmEzMiAzMiAwIDEgMSA2NCAwIDMyIDMyIDAgMSAxIC02NCAweiIvPjwvc3ZnPg==;" parent="1" vertex="1">
          <mxGeometry x="-425.5" y="-259" width="49" height="49" as="geometry" />
        </mxCell>
        <mxCell id="hF8eWSVSDLsbeJowuzhl-14" value="" style="shape=image;verticalLabelPosition=bottom;labelBackgroundColor=default;verticalAlign=top;aspect=fixed;imageAspect=0;image=data:image/svg+xml,PHN2ZyB4bWxucz0iaHR0cDovL3d3dy53My5vcmcvMjAwMC9zdmciIHZpZXdCb3g9IjAgMCA1MTIgNTEyIj48cGF0aCBkPSJNMjU2IDQ0OGMxNDEuNCAwIDI1Ni05My4xIDI1Ni0yMDhTMzk3LjQgMzIgMjU2IDMyUzAgMTI1LjEgMCAyNDBjMCA0NS4xIDE3LjcgODYuOCA0Ny43IDEyMC45Yy0xLjkgMjQuNS0xMS40IDQ2LjMtMjEuNCA2Mi45Yy01LjUgOS4yLTExLjEgMTYuNi0xNS4yIDIxLjZjLTIuMSAyLjUtMy43IDQuNC00LjkgNS43Yy0uNiAuNi0xIDEuMS0xLjMgMS40bC0uMyAuMyAwIDAgMCAwIDAgMCAwIDBjLTQuNiA0LjYtNS45IDExLjQtMy40IDE3LjRjMi41IDYgOC4zIDkuOSAxNC44IDkuOWMyOC43IDAgNTcuNi04LjkgODEuNi0xOS4zYzIyLjktMTAgNDIuNC0yMS45IDU0LjMtMzAuNmMzMS44IDExLjUgNjcgMTcuOSAxMDQuMSAxNy45ek0xMjggMjA4YTMyIDMyIDAgMSAxIDAgNjQgMzIgMzIgMCAxIDEgMC02NHptMTI4IDBhMzIgMzIgMCAxIDEgMCA2NCAzMiAzMiAwIDEgMSAwLTY0em05NiAzMmEzMiAzMiAwIDEgMSA2NCAwIDMyIDMyIDAgMSAxIC02NCAweiIvPjwvc3ZnPg==;" parent="1" vertex="1">
          <mxGeometry x="-419.5" y="218.5" width="49" height="49" as="geometry" />
        </mxCell>
        <mxCell id="hF8eWSVSDLsbeJowuzhl-15" value="" style="shape=image;verticalLabelPosition=bottom;labelBackgroundColor=default;verticalAlign=top;aspect=fixed;imageAspect=0;image=data:image/svg+xml,PHN2ZyB4bWxucz0iaHR0cDovL3d3dy53My5vcmcvMjAwMC9zdmciIHZpZXdCb3g9IjAgMCA1MTIgNTEyIj48cGF0aCBkPSJNMjU2IDQ0OGMxNDEuNCAwIDI1Ni05My4xIDI1Ni0yMDhTMzk3LjQgMzIgMjU2IDMyUzAgMTI1LjEgMCAyNDBjMCA0NS4xIDE3LjcgODYuOCA0Ny43IDEyMC45Yy0xLjkgMjQuNS0xMS40IDQ2LjMtMjEuNCA2Mi45Yy01LjUgOS4yLTExLjEgMTYuNi0xNS4yIDIxLjZjLTIuMSAyLjUtMy43IDQuNC00LjkgNS43Yy0uNiAuNi0xIDEuMS0xLjMgMS40bC0uMyAuMyAwIDAgMCAwIDAgMCAwIDBjLTQuNiA0LjYtNS45IDExLjQtMy40IDE3LjRjMi41IDYgOC4zIDkuOSAxNC44IDkuOWMyOC43IDAgNTcuNi04LjkgODEuNi0xOS4zYzIyLjktMTAgNDIuNC0yMS45IDU0LjMtMzAuNmMzMS44IDExLjUgNjcgMTcuOSAxMDQuMSAxNy45ek0xMjggMjA4YTMyIDMyIDAgMSAxIDAgNjQgMzIgMzIgMCAxIDEgMC02NHptMTI4IDBhMzIgMzIgMCAxIDEgMCA2NCAzMiAzMiAwIDEgMSAwLTY0em05NiAzMmEzMiAzMiAwIDEgMSA2NCAwIDMyIDMyIDAgMSAxIC02NCAweiIvPjwvc3ZnPg==;" parent="1" vertex="1">
          <mxGeometry x="994.5" y="-19.5" width="49" height="49" as="geometry" />
        </mxCell>
        <mxCell id="Ir2QqpFcUhrKchrizFBG-1" value="serach in electrol roll" style="ellipse;whiteSpace=wrap;html=1;" parent="1" vertex="1">
          <mxGeometry x="20" y="-459" width="108" height="79" as="geometry" />
        </mxCell>
        <mxCell id="Ir2QqpFcUhrKchrizFBG-3" style="rounded=0;orthogonalLoop=1;jettySize=auto;html=1;endArrow=none;endFill=0;sourcePerimeterSpacing=5;targetPerimeterSpacing=5;exitX=0.5;exitY=1;exitDx=0;exitDy=0;entryX=0.5;entryY=0;entryDx=0;entryDy=0;" parent="1" source="Ir2QqpFcUhrKchrizFBG-1" target="_JjsHGZuqhBBGKbj4It--1" edge="1">
          <mxGeometry relative="1" as="geometry">
            <mxPoint x="116.5" y="-369" as="sourcePoint" />
            <mxPoint x="12.5" y="-229" as="targetPoint" />
          </mxGeometry>
        </mxCell>
        <mxCell id="Ir2QqpFcUhrKchrizFBG-4" value="serach in electrol roll" style="ellipse;whiteSpace=wrap;html=1;" parent="1" vertex="1">
          <mxGeometry x="1022" y="-537.5" width="108" height="79" as="geometry" />
        </mxCell>
        <mxCell id="Ir2QqpFcUhrKchrizFBG-5" style="rounded=0;orthogonalLoop=1;jettySize=auto;html=1;endArrow=none;endFill=0;sourcePerimeterSpacing=5;targetPerimeterSpacing=5;exitX=0.5;exitY=1;exitDx=0;exitDy=0;" parent="1" source="Ir2QqpFcUhrKchrizFBG-4" target="_JjsHGZuqhBBGKbj4It--27" edge="1">
          <mxGeometry relative="1" as="geometry">
            <mxPoint x="1140" y="-442.5" as="sourcePoint" />
            <mxPoint x="1097.5" y="-283.5" as="targetPoint" />
          </mxGeometry>
        </mxCell>
        <mxCell id="Ir2QqpFcUhrKchrizFBG-7" value="serach in electrol roll" style="ellipse;whiteSpace=wrap;html=1;" parent="1" vertex="1">
          <mxGeometry x="486.5" y="280" width="108" height="79" as="geometry" />
        </mxCell>
        <mxCell id="Ir2QqpFcUhrKchrizFBG-8" style="rounded=0;orthogonalLoop=1;jettySize=auto;html=1;endArrow=none;endFill=0;sourcePerimeterSpacing=5;targetPerimeterSpacing=5;exitX=0.5;exitY=1;exitDx=0;exitDy=0;" parent="1" source="Ir2QqpFcUhrKchrizFBG-7" edge="1">
          <mxGeometry relative="1" as="geometry">
            <mxPoint x="572.75" y="331" as="sourcePoint" />
            <mxPoint x="598" y="473" as="targetPoint" />
          </mxGeometry>
        </mxCell>
        <mxCell id="Ir2QqpFcUhrKchrizFBG-10" value="" style="shape=image;verticalLabelPosition=bottom;verticalAlign=top;imageAspect=0;aspect=fixed;image=data:image/svg+xml,PHN2ZyB4bWxucz0iaHR0cDovL3d3dy53My5vcmcvMjAwMC9zdmciIHZpZXdCb3g9IjAgMCA0NDggNTEyIj48cGF0aCBkPSJNMjI0IDI1NkExMjggMTI4IDAgMSAwIDIyNCAwYTEyOCAxMjggMCAxIDAgMCAyNTZ6bS00NS43IDQ4Qzc5LjggMzA0IDAgMzgzLjggMCA0ODIuM0MwIDQ5OC43IDEzLjMgNTEyIDI5LjcgNTEySDQxOC4zYzE2LjQgMCAyOS43LTEzLjMgMjkuNy0yOS43QzQ0OCAzODMuOCAzNjguMiAzMDQgMjY5LjcgMzA0SDE3OC4zeiIvPjwvc3ZnPg==;" parent="1" vertex="1">
          <mxGeometry x="58.03" y="-474.75" width="31.94" height="36.5" as="geometry" />
        </mxCell>
        <mxCell id="Ir2QqpFcUhrKchrizFBG-11" value="" style="shape=image;verticalLabelPosition=bottom;verticalAlign=top;imageAspect=0;aspect=fixed;image=data:image/svg+xml,PHN2ZyB4bWxucz0iaHR0cDovL3d3dy53My5vcmcvMjAwMC9zdmciIHZpZXdCb3g9IjAgMCA0NDggNTEyIj48cGF0aCBkPSJNMjI0IDI1NkExMjggMTI4IDAgMSAwIDIyNCAwYTEyOCAxMjggMCAxIDAgMCAyNTZ6bS00NS43IDQ4Qzc5LjggMzA0IDAgMzgzLjggMCA0ODIuM0MwIDQ5OC43IDEzLjMgNTEyIDI5LjcgNTEySDQxOC4zYzE2LjQgMCAyOS43LTEzLjMgMjkuNy0yOS43QzQ0OCAzODMuOCAzNjguMiAzMDQgMjY5LjcgMzA0SDE3OC4zeiIvPjwvc3ZnPg==;" parent="1" vertex="1">
          <mxGeometry x="1052.06" y="-551.5" width="31.94" height="36.5" as="geometry" />
        </mxCell>
        <mxCell id="Ir2QqpFcUhrKchrizFBG-12" value="" style="shape=image;verticalLabelPosition=bottom;verticalAlign=top;imageAspect=0;aspect=fixed;image=data:image/svg+xml,PHN2ZyB4bWxucz0iaHR0cDovL3d3dy53My5vcmcvMjAwMC9zdmciIHZpZXdCb3g9IjAgMCA0NDggNTEyIj48cGF0aCBkPSJNMjI0IDI1NkExMjggMTI4IDAgMSAwIDIyNCAwYTEyOCAxMjggMCAxIDAgMCAyNTZ6bS00NS43IDQ4Qzc5LjggMzA0IDAgMzgzLjggMCA0ODIuM0MwIDQ5OC43IDEzLjMgNTEyIDI5LjcgNTEySDQxOC4zYzE2LjQgMCAyOS43LTEzLjMgMjkuNy0yOS43QzQ0OCAzODMuOCAzNjguMiAzMDQgMjY5LjcgMzA0SDE3OC4zeiIvPjwvc3ZnPg==;" parent="1" vertex="1">
          <mxGeometry x="524.53" y="258" width="31.94" height="36.5" as="geometry" />
        </mxCell>
        <mxCell id="kapay8_YsLIXyyZsie_a-1" style="rounded=0;orthogonalLoop=1;jettySize=auto;html=1;endArrow=none;endFill=0;sourcePerimeterSpacing=5;targetPerimeterSpacing=5;exitX=0.5;exitY=1;exitDx=0;exitDy=0;entryX=0.75;entryY=0;entryDx=0;entryDy=0;" edge="1" parent="1" source="kapay8_YsLIXyyZsie_a-3" target="kapay8_YsLIXyyZsie_a-2">
          <mxGeometry relative="1" as="geometry">
            <mxPoint x="1856" y="304.25" as="sourcePoint" />
            <mxPoint x="1764.001403508772" y="380.25" as="targetPoint" />
          </mxGeometry>
        </mxCell>
        <mxCell id="kapay8_YsLIXyyZsie_a-2" value="Admin" style="shape=image;verticalLabelPosition=bottom;verticalAlign=top;imageAspect=0;aspect=fixed;image=data:image/svg+xml,PHN2ZyB4bWxucz0iaHR0cDovL3d3dy53My5vcmcvMjAwMC9zdmciIHZlcnNpb249IjEiIHZpZXdCb3g9IjAgMCA0OCA0OCIgZW5hYmxlLWJhY2tncm91bmQ9Im5ldyAwIDAgNDggNDgiPiYjeGE7ICAgIDxwb2x5Z29uIGZpbGw9IiNGRjk4MDAiIHBvaW50cz0iMjQsMzcgMTksMzEgMTksMjUgMjksMjUgMjksMzEiLz4mI3hhOyAgICA8ZyBmaWxsPSIjRkZBNzI2Ij4mI3hhOyAgICAgICAgPGNpcmNsZSBjeD0iMzMiIGN5PSIxOSIgcj0iMiIvPiYjeGE7ICAgICAgICA8Y2lyY2xlIGN4PSIxNSIgY3k9IjE5IiByPSIyIi8+JiN4YTsgICAgPC9nPiYjeGE7ICAgIDxwYXRoIGZpbGw9IiNGRkI3NEQiIGQ9Ik0zMywxM2MwLTcuNi0xOC01LTE4LDBjMCwxLjEsMCw1LjksMCw3YzAsNSw0LDksOSw5czktNCw5LTlDMzMsMTguOSwzMywxNC4xLDMzLDEzeiIvPiYjeGE7ICAgIDxwYXRoIGZpbGw9IiM0MjQyNDIiIGQ9Ik0yNCw0Yy02LjEsMC0xMCw0LjktMTAsMTFjMCwwLjgsMCwyLjMsMCwyLjNsMiwxLjd2LTVsMTItNGw0LDR2NWwyLTEuN2MwLDAsMC0xLjUsMC0yLjNjMC00LTEtOC02LTlsLTEtMiBIMjR6Ii8+JiN4YTsgICAgPGcgZmlsbD0iIzc4NDcxOSI+JiN4YTsgICAgICAgIDxjaXJjbGUgY3g9IjI4IiBjeT0iMTkiIHI9IjEiLz4mI3hhOyAgICAgICAgPGNpcmNsZSBjeD0iMjAiIGN5PSIxOSIgcj0iMSIvPiYjeGE7ICAgIDwvZz4mI3hhOyAgICA8cG9seWdvbiBmaWxsPSIjZmZmIiBwb2ludHM9IjI0LDQzIDE5LDMxIDI0LDMyIDI5LDMxIi8+JiN4YTsgICAgPHBvbHlnb24gZmlsbD0iI0QzMkYyRiIgcG9pbnRzPSIyMywzNSAyMi4zLDM5LjUgMjQsNDMuNSAyNS43LDM5LjUgMjUsMzUgMjYsMzQgMjQsMzIgMjIsMzQiLz4mI3hhOyAgICA8cGF0aCBmaWxsPSIjNTQ2RTdBIiBkPSJNMjksMzFMMjksMzFsLTUsMTJsLTUtMTJjMCwwLTExLDItMTEsMTNoMzJDNDAsMzMsMjksMzEsMjksMzF6Ii8+JiN4YTs8L3N2Zz4=;labelBackgroundColor=#ffffff;" vertex="1" parent="1">
          <mxGeometry x="1716" y="394.25" width="48" height="48" as="geometry" />
        </mxCell>
        <mxCell id="kapay8_YsLIXyyZsie_a-3" value="Login" style="ellipse;whiteSpace=wrap;html=1;" vertex="1" parent="1">
          <mxGeometry x="1680" y="173.25" width="120" height="80" as="geometry" />
        </mxCell>
        <mxCell id="kapay8_YsLIXyyZsie_a-4" style="rounded=0;orthogonalLoop=1;jettySize=auto;html=1;endArrow=none;endFill=0;sourcePerimeterSpacing=5;targetPerimeterSpacing=5;exitX=0;exitY=1;exitDx=0;exitDy=0;entryX=1;entryY=0.25;entryDx=0;entryDy=0;" edge="1" parent="1" source="kapay8_YsLIXyyZsie_a-5" target="kapay8_YsLIXyyZsie_a-2">
          <mxGeometry relative="1" as="geometry">
            <mxPoint x="1910" y="407.25" as="sourcePoint" />
            <mxPoint x="1806" y="497.25" as="targetPoint" />
          </mxGeometry>
        </mxCell>
        <mxCell id="kapay8_YsLIXyyZsie_a-5" value="Manage candidate" style="ellipse;whiteSpace=wrap;html=1;" vertex="1" parent="1">
          <mxGeometry x="1996" y="315.25" width="120" height="85.75" as="geometry" />
        </mxCell>
        <mxCell id="kapay8_YsLIXyyZsie_a-8" style="rounded=0;orthogonalLoop=1;jettySize=auto;html=1;endArrow=none;endFill=0;sourcePerimeterSpacing=5;targetPerimeterSpacing=5;exitX=0;exitY=0.5;exitDx=0;exitDy=0;entryX=1;entryY=1;entryDx=0;entryDy=0;" edge="1" parent="1" source="kapay8_YsLIXyyZsie_a-9" target="kapay8_YsLIXyyZsie_a-2">
          <mxGeometry relative="1" as="geometry">
            <mxPoint x="1915" y="608.25" as="sourcePoint" />
            <mxPoint x="1811" y="698.25" as="targetPoint" />
          </mxGeometry>
        </mxCell>
        <mxCell id="kapay8_YsLIXyyZsie_a-9" value="Update Profile" style="ellipse;whiteSpace=wrap;html=1;" vertex="1" parent="1">
          <mxGeometry x="1988" y="483.75" width="120" height="80" as="geometry" />
        </mxCell>
        <mxCell id="kapay8_YsLIXyyZsie_a-10" style="rounded=0;orthogonalLoop=1;jettySize=auto;html=1;endArrow=none;endFill=0;sourcePerimeterSpacing=5;targetPerimeterSpacing=5;exitX=0;exitY=0;exitDx=0;exitDy=0;entryX=0.75;entryY=1;entryDx=0;entryDy=0;" edge="1" parent="1" source="kapay8_YsLIXyyZsie_a-11" target="kapay8_YsLIXyyZsie_a-2">
          <mxGeometry relative="1" as="geometry">
            <mxPoint x="1796" y="707.25" as="sourcePoint" />
            <mxPoint x="1692" y="797.25" as="targetPoint" />
          </mxGeometry>
        </mxCell>
        <mxCell id="kapay8_YsLIXyyZsie_a-11" value="Declared election" style="ellipse;whiteSpace=wrap;html=1;" vertex="1" parent="1">
          <mxGeometry x="1846" y="567" width="120" height="80" as="geometry" />
        </mxCell>
        <mxCell id="kapay8_YsLIXyyZsie_a-12" style="rounded=0;orthogonalLoop=1;jettySize=auto;html=1;endArrow=none;endFill=0;sourcePerimeterSpacing=5;targetPerimeterSpacing=5;entryX=0.5;entryY=1;entryDx=0;entryDy=0;exitX=0.592;exitY=-0.009;exitDx=0;exitDy=0;exitPerimeter=0;" edge="1" parent="1" source="kapay8_YsLIXyyZsie_a-19" target="kapay8_YsLIXyyZsie_a-2">
          <mxGeometry relative="1" as="geometry">
            <mxPoint x="1776" y="599.25" as="sourcePoint" />
            <mxPoint x="1626" y="488.25" as="targetPoint" />
          </mxGeometry>
        </mxCell>
        <mxCell id="kapay8_YsLIXyyZsie_a-15" value="Resolve complaints" style="ellipse;whiteSpace=wrap;html=1;" vertex="1" parent="1">
          <mxGeometry x="1366" y="384.25" width="177" height="80" as="geometry" />
        </mxCell>
        <mxCell id="kapay8_YsLIXyyZsie_a-16" style="rounded=0;orthogonalLoop=1;jettySize=auto;html=1;endArrow=none;endFill=0;sourcePerimeterSpacing=5;targetPerimeterSpacing=5;entryX=0;entryY=0.75;entryDx=0;entryDy=0;exitX=1;exitY=0.5;exitDx=0;exitDy=0;" edge="1" parent="1" source="kapay8_YsLIXyyZsie_a-15" target="kapay8_YsLIXyyZsie_a-2">
          <mxGeometry relative="1" as="geometry">
            <mxPoint x="1556" y="454.25" as="sourcePoint" />
            <mxPoint x="1629" y="482.25" as="targetPoint" />
          </mxGeometry>
        </mxCell>
        <mxCell id="kapay8_YsLIXyyZsie_a-19" value="Declared result" style="ellipse;whiteSpace=wrap;html=1;" vertex="1" parent="1">
          <mxGeometry x="1656" y="618" width="120" height="80" as="geometry" />
        </mxCell>
        <mxCell id="kapay8_YsLIXyyZsie_a-20" value="" style="shape=image;verticalLabelPosition=bottom;verticalAlign=top;imageAspect=0;aspect=fixed;image=data:image/svg+xml,PHN2ZyB4bWxucz0iaHR0cDovL3d3dy53My5vcmcvMjAwMC9zdmciIHZlcnNpb249IjEiIHZpZXdCb3g9IjAgMCA0OCA0OCIgZW5hYmxlLWJhY2tncm91bmQ9Im5ldyAwIDAgNDggNDgiPiYjeGE7ICAgIDxwYXRoIGZpbGw9IiM0MjQyNDIiIGQ9Ik0yNCw0Yy01LjUsMC0xMCw0LjUtMTAsMTB2NGg0di00YzAtMy4zLDIuNy02LDYtNnM2LDIuNyw2LDZ2NGg0di00QzM0LDguNSwyOS41LDQsMjQsNHoiLz4mI3hhOyAgICA8cGF0aCBmaWxsPSIjRkI4QzAwIiBkPSJNMzYsNDRIMTJjLTIuMiwwLTQtMS44LTQtNFYyMmMwLTIuMiwxLjgtNCw0LTRoMjRjMi4yLDAsNCwxLjgsNCw0djE4QzQwLDQyLjIsMzguMiw0NCwzNiw0NHoiLz4mI3hhOyAgICA8Y2lyY2xlIGZpbGw9IiNDNzZFMDAiIGN4PSIyNCIgY3k9IjMxIiByPSIzIi8+JiN4YTs8L3N2Zz4=;labelBackgroundColor=#ffffff;" vertex="1" parent="1">
          <mxGeometry x="2024" y="458.5" width="48" height="48" as="geometry" />
        </mxCell>
        <mxCell id="kapay8_YsLIXyyZsie_a-21" value="" style="shape=image;verticalLabelPosition=bottom;verticalAlign=top;imageAspect=0;aspect=fixed;image=data:image/svg+xml,PHN2ZyB4bWxucz0iaHR0cDovL3d3dy53My5vcmcvMjAwMC9zdmciIHZlcnNpb249IjEiIHZpZXdCb3g9IjAgMCA0OCA0OCIgZW5hYmxlLWJhY2tncm91bmQ9Im5ldyAwIDAgNDggNDgiPiYjeGE7ICAgIDxwYXRoIGZpbGw9IiNDRkQ4REMiIGQ9Ik01LDM4VjE0aDM4djI0YzAsMi4yLTEuOCw0LTQsNEg5QzYuOCw0Miw1LDQwLjIsNSwzOHoiLz4mI3hhOyAgICA8cGF0aCBmaWxsPSIjRjQ0MzM2IiBkPSJNNDMsMTB2Nkg1di02YzAtMi4yLDEuOC00LDQtNGgzMEM0MS4yLDYsNDMsNy44LDQzLDEweiIvPiYjeGE7ICAgIDxnIGZpbGw9IiNCNzFDMUMiPiYjeGE7ICAgICAgICA8Y2lyY2xlIGN4PSIzMyIgY3k9IjEwIiByPSIzIi8+JiN4YTsgICAgICAgIDxjaXJjbGUgY3g9IjE1IiBjeT0iMTAiIHI9IjMiLz4mI3hhOyAgICA8L2c+JiN4YTsgICAgPGcgZmlsbD0iI0IwQkVDNSI+JiN4YTsgICAgICAgIDxwYXRoIGQ9Ik0zMywzYy0xLjEsMC0yLDAuOS0yLDJ2NWMwLDEuMSwwLjksMiwyLDJzMi0wLjksMi0yVjVDMzUsMy45LDM0LjEsMywzMywzeiIvPiYjeGE7ICAgICAgICA8cGF0aCBkPSJNMTUsM2MtMS4xLDAtMiwwLjktMiwydjVjMCwxLjEsMC45LDIsMiwyczItMC45LDItMlY1QzE3LDMuOSwxNi4xLDMsMTUsM3oiLz4mI3hhOyAgICA8L2c+JiN4YTsgICAgPGcgZmlsbD0iI0IwQkVDNSI+JiN4YTsgICAgICAgIDxyZWN0IHg9IjEzIiB5PSIyMSIgd2lkdGg9IjYiIGhlaWdodD0iNiIvPiYjeGE7ICAgICAgICA8cmVjdCB4PSIyMSIgeT0iMjEiIHdpZHRoPSI2IiBoZWlnaHQ9IjYiLz4mI3hhOyAgICAgICAgPHJlY3QgeD0iMjkiIHk9IjIxIiB3aWR0aD0iNiIgaGVpZ2h0PSI2Ii8+JiN4YTsgICAgICAgIDxyZWN0IHg9IjEzIiB5PSIyOSIgd2lkdGg9IjYiIGhlaWdodD0iNiIvPiYjeGE7ICAgICAgICA8cmVjdCB4PSIyMSIgeT0iMjkiIHdpZHRoPSI2IiBoZWlnaHQ9IjYiLz4mI3hhOyAgICA8L2c+JiN4YTsgICAgPHJlY3QgeD0iMjkiIHk9IjI5IiBmaWxsPSIjRjQ0MzM2IiB3aWR0aD0iNiIgaGVpZ2h0PSI2Ii8+JiN4YTs8L3N2Zz4=;labelBackgroundColor=#ffffff;" vertex="1" parent="1">
          <mxGeometry x="1882" y="548" width="48" height="48" as="geometry" />
        </mxCell>
        <mxCell id="kapay8_YsLIXyyZsie_a-22" value="" style="shape=image;verticalLabelPosition=bottom;verticalAlign=top;imageAspect=0;aspect=fixed;image=data:image/svg+xml,PHN2ZyB4bWxucz0iaHR0cDovL3d3dy53My5vcmcvMjAwMC9zdmciIHZlcnNpb249IjEiIHZpZXdCb3g9IjAgMCA0OCA0OCIgZW5hYmxlLWJhY2tncm91bmQ9Im5ldyAwIDAgNDggNDgiPiYjeGE7ICAgIDxwYXRoIGZpbGw9IiM3ODkwOUMiIGQ9Ik00MCw0MUg4Yy0yLjIsMC00LTEuOC00LTRsMC0yMC45YzAtMS4zLDAuNi0yLjUsMS43LTMuM0wyNCwwbDE4LjMsMTIuOGMxLjEsMC43LDEuNywyLDEuNywzLjNWMzcgQzQ0LDM5LjIsNDIuMiw0MSw0MCw0MXoiLz4mI3hhOyAgICA8cmVjdCB4PSIxMiIgeT0iMTEiIGZpbGw9IiNmZmYiIHdpZHRoPSIyNCIgaGVpZ2h0PSIyMiIvPiYjeGE7ICAgIDxwb2x5Z29uIGZpbGw9IiM5QzI3QjAiIHBvaW50cz0iMjQsMTMuNiAxOCwyMS40IDMwLDIxLjQiLz4mI3hhOyAgICA8cGF0aCBmaWxsPSIjQ0ZEOERDIiBkPSJNNDAsNDFIOGMtMi4yLDAtNC0xLjgtNC00bDAtMjBsMjAsMTNsMjAtMTN2MjBDNDQsMzkuMiw0Mi4yLDQxLDQwLDQxeiIvPiYjeGE7ICAgIDxwb2x5Z29uIGZpbGw9IiM5QzI3QjAiIHBvaW50cz0iMjQsMjggMjYsMjYuNyAyNiwyMCAyMiwyMCAyMiwyNi43Ii8+JiN4YTs8L3N2Zz4=;labelBackgroundColor=#ffffff;" vertex="1" parent="1">
          <mxGeometry x="1436" y="371.25" width="48" height="48" as="geometry" />
        </mxCell>
        <mxCell id="kapay8_YsLIXyyZsie_a-23" value="" style="shape=image;verticalLabelPosition=bottom;labelBackgroundColor=default;verticalAlign=top;aspect=fixed;imageAspect=0;image=data:image/svg+xml,PHN2ZyB4bWxucz0iaHR0cDovL3d3dy53My5vcmcvMjAwMC9zdmciIHZpZXdCb3g9IjAgMCA2NDAgNTEyIj48cGF0aCBkPSJNMTQ0IDBhODAgODAgMCAxIDEgMCAxNjBBODAgODAgMCAxIDEgMTQ0IDB6TTUxMiAwYTgwIDgwIDAgMSAxIDAgMTYwQTgwIDgwIDAgMSAxIDUxMiAwek0wIDI5OC43QzAgMjM5LjggNDcuOCAxOTIgMTA2LjcgMTkyaDQyLjdjMTUuOSAwIDMxIDMuNSA0NC42IDkuN2MtMS4zIDcuMi0xLjkgMTQuNy0xLjkgMjIuM2MwIDM4LjIgMTYuOCA3Mi41IDQzLjMgOTZjLS4yIDAtLjQgMC0uNyAwSDIxLjNDOS42IDMyMCAwIDMxMC40IDAgMjk4Ljd6TTQwNS4zIDMyMGMtLjIgMC0uNCAwLS43IDBjMjYuNi0yMy41IDQzLjMtNTcuOCA0My4zLTk2YzAtNy42LS43LTE1LTEuOS0yMi4zYzEzLjYtNi4zIDI4LjctOS43IDQ0LjYtOS43aDQyLjdDNTkyLjIgMTkyIDY0MCAyMzkuOCA2NDAgMjk4LjdjMCAxMS44LTkuNiAyMS4zLTIxLjMgMjEuM0g0MDUuM3pNMjI0IDIyNGE5NiA5NiAwIDEgMSAxOTIgMCA5NiA5NiAwIDEgMSAtMTkyIDB6TTEyOCA0ODUuM0MxMjggNDExLjcgMTg3LjcgMzUyIDI2MS4zIDM1MkgzNzguN0M0NTIuMyAzNTIgNTEyIDQxMS43IDUxMiA0ODUuM2MwIDE0LjctMTEuOSAyNi43LTI2LjcgMjYuN0gxNTQuN2MtMTQuNyAwLTI2LjctMTEuOS0yNi43LTI2Ljd6Ii8+PC9zdmc+;" vertex="1" parent="1">
          <mxGeometry x="2032" y="293.75" width="62.5" height="50" as="geometry" />
        </mxCell>
        <mxCell id="kapay8_YsLIXyyZsie_a-25" value="" style="shape=image;verticalLabelPosition=bottom;labelBackgroundColor=default;verticalAlign=top;aspect=fixed;imageAspect=0;image=data:image/svg+xml,PHN2ZyB4bWxucz0iaHR0cDovL3d3dy53My5vcmcvMjAwMC9zdmciIHZpZXdCb3g9IjAgMCA1MTIgNTEyIj48cGF0aCBkPSJNMjE3LjkgMTA1LjlMMzQwLjcgMjI4LjdjNy4yIDcuMiAxMS4zIDE3LjEgMTEuMyAyNy4zcy00LjEgMjAuMS0xMS4zIDI3LjNMMjE3LjkgNDA2LjFjLTYuNCA2LjQtMTUgOS45LTI0IDkuOWMtMTguNyAwLTMzLjktMTUuMi0zMy45LTMzLjlsMC02Mi4xTDMyIDMyMGMtMTcuNyAwLTMyLTE0LjMtMzItMzJsMC02NGMwLTE3LjcgMTQuMy0zMiAzMi0zMmwxMjggMCAwLTYyLjFjMC0xOC43IDE1LjItMzMuOSAzMy45LTMzLjljOSAwIDE3LjYgMy42IDI0IDkuOXpNMzUyIDQxNmw2NCAwYzE3LjcgMCAzMi0xNC4zIDMyLTMybDAtMjU2YzAtMTcuNy0xNC4zLTMyLTMyLTMybC02NCAwYy0xNy43IDAtMzItMTQuMy0zMi0zMnMxNC4zLTMyIDMyLTMybDY0IDBjNTMgMCA5NiA0MyA5NiA5NmwwIDI1NmMwIDUzLTQzIDk2LTk2IDk2bC02NCAwYy0xNy43IDAtMzItMTQuMy0zMi0zMnMxNC4zLTMyIDMyLTMyeiIvPjwvc3ZnPg==;" vertex="1" parent="1">
          <mxGeometry x="1720" y="152.25" width="49" height="49" as="geometry" />
        </mxCell>
        <mxCell id="kapay8_YsLIXyyZsie_a-27" value="Manage party" style="ellipse;whiteSpace=wrap;html=1;" vertex="1" parent="1">
          <mxGeometry x="1869" y="151.5" width="177" height="80" as="geometry" />
        </mxCell>
        <mxCell id="kapay8_YsLIXyyZsie_a-28" style="rounded=0;orthogonalLoop=1;jettySize=auto;html=1;endArrow=none;endFill=0;sourcePerimeterSpacing=5;targetPerimeterSpacing=5;exitX=1;exitY=0.25;exitDx=0;exitDy=0;" edge="1" parent="1" source="kapay8_YsLIXyyZsie_a-2" target="kapay8_YsLIXyyZsie_a-27">
          <mxGeometry relative="1" as="geometry">
            <mxPoint x="1935" y="344.25" as="sourcePoint" />
            <mxPoint x="1796" y="218.25" as="targetPoint" />
          </mxGeometry>
        </mxCell>
        <mxCell id="kapay8_YsLIXyyZsie_a-35" value="View&amp;nbsp; Feedback" style="ellipse;whiteSpace=wrap;html=1;" vertex="1" parent="1">
          <mxGeometry x="1446" y="551.5" width="130" height="80" as="geometry" />
        </mxCell>
        <mxCell id="kapay8_YsLIXyyZsie_a-36" style="rounded=0;orthogonalLoop=1;jettySize=auto;html=1;endArrow=none;endFill=0;sourcePerimeterSpacing=5;targetPerimeterSpacing=5;entryX=0.25;entryY=1;entryDx=0;entryDy=0;exitX=0.728;exitY=0.059;exitDx=0;exitDy=0;exitPerimeter=0;" edge="1" parent="1" source="kapay8_YsLIXyyZsie_a-35" target="kapay8_YsLIXyyZsie_a-2">
          <mxGeometry relative="1" as="geometry">
            <mxPoint x="1573.75" y="615.75" as="sourcePoint" />
            <mxPoint x="1726" y="453.25" as="targetPoint" />
          </mxGeometry>
        </mxCell>
        <mxCell id="kapay8_YsLIXyyZsie_a-37" value="" style="shape=image;verticalLabelPosition=bottom;labelBackgroundColor=default;verticalAlign=top;aspect=fixed;imageAspect=0;image=data:image/svg+xml,PHN2ZyB4bWxucz0iaHR0cDovL3d3dy53My5vcmcvMjAwMC9zdmciIHZpZXdCb3g9IjAgMCA1MTIgNTEyIj48cGF0aCBkPSJNMjU2IDQ0OGMxNDEuNCAwIDI1Ni05My4xIDI1Ni0yMDhTMzk3LjQgMzIgMjU2IDMyUzAgMTI1LjEgMCAyNDBjMCA0NS4xIDE3LjcgODYuOCA0Ny43IDEyMC45Yy0xLjkgMjQuNS0xMS40IDQ2LjMtMjEuNCA2Mi45Yy01LjUgOS4yLTExLjEgMTYuNi0xNS4yIDIxLjZjLTIuMSAyLjUtMy43IDQuNC00LjkgNS43Yy0uNiAuNi0xIDEuMS0xLjMgMS40bC0uMyAuMyAwIDAgMCAwIDAgMCAwIDBjLTQuNiA0LjYtNS45IDExLjQtMy40IDE3LjRjMi41IDYgOC4zIDkuOSAxNC44IDkuOWMyOC43IDAgNTcuNi04LjkgODEuNi0xOS4zYzIyLjktMTAgNDIuNC0yMS45IDU0LjMtMzAuNmMzMS44IDExLjUgNjcgMTcuOSAxMDQuMSAxNy45ek0xMjggMjA4YTMyIDMyIDAgMSAxIDAgNjQgMzIgMzIgMCAxIDEgMC02NHptMTI4IDBhMzIgMzIgMCAxIDEgMCA2NCAzMiAzMiAwIDEgMSAwLTY0em05NiAzMmEzMiAzMiAwIDEgMSA2NCAwIDMyIDMyIDAgMSAxIC02NCAweiIvPjwvc3ZnPg==;" vertex="1" parent="1">
          <mxGeometry x="1486.5" y="532" width="49" height="49" as="geometry" />
        </mxCell>
        <mxCell id="kapay8_YsLIXyyZsie_a-38" value="serach in electrol roll" style="ellipse;whiteSpace=wrap;html=1;" vertex="1" parent="1">
          <mxGeometry x="1476" y="195" width="108" height="79" as="geometry" />
        </mxCell>
        <mxCell id="kapay8_YsLIXyyZsie_a-39" style="rounded=0;orthogonalLoop=1;jettySize=auto;html=1;endArrow=none;endFill=0;sourcePerimeterSpacing=5;targetPerimeterSpacing=5;exitX=0.5;exitY=1;exitDx=0;exitDy=0;" edge="1" parent="1" source="kapay8_YsLIXyyZsie_a-38" target="kapay8_YsLIXyyZsie_a-2">
          <mxGeometry relative="1" as="geometry">
            <mxPoint x="1726" y="192.25" as="sourcePoint" />
            <mxPoint x="1683.5" y="351.25" as="targetPoint" />
          </mxGeometry>
        </mxCell>
        <mxCell id="kapay8_YsLIXyyZsie_a-41" value="" style="shape=image;verticalLabelPosition=bottom;labelBackgroundColor=default;verticalAlign=top;aspect=fixed;imageAspect=0;image=data:image/svg+xml,PHN2ZyB4bWxucz0iaHR0cDovL3d3dy53My5vcmcvMjAwMC9zdmciIHZpZXdCb3g9IjAgMCA1NzYgNTEyIj48cGF0aCBkPSJNMjA4IDgwYzAtMjYuNSAyMS41LTQ4IDQ4LTQ4aDY0YzI2LjUgMCA0OCAyMS41IDQ4IDQ4djY0YzAgMjYuNS0yMS41IDQ4LTQ4IDQ4aC04djQwSDQ2NGMzMC45IDAgNTYgMjUuMSA1NiA1NnYzMmg4YzI2LjUgMCA0OCAyMS41IDQ4IDQ4djY0YzAgMjYuNS0yMS41IDQ4LTQ4IDQ4SDQ2NGMtMjYuNSAwLTQ4LTIxLjUtNDgtNDhWMzY4YzAtMjYuNSAyMS41LTQ4IDQ4LTQ4aDhWMjg4YzAtNC40LTMuNi04LTgtOEgzMTJ2NDBoOGMyNi41IDAgNDggMjEuNSA0OCA0OHY2NGMwIDI2LjUtMjEuNSA0OC00OCA0OEgyNTZjLTI2LjUgMC00OC0yMS41LTQ4LTQ4VjM2OGMwLTI2LjUgMjEuNS00OCA0OC00OGg4VjI4MEgxMTJjLTQuNCAwLTggMy42LTggOHYzMmg4YzI2LjUgMCA0OCAyMS41IDQ4IDQ4djY0YzAgMjYuNS0yMS41IDQ4LTQ4IDQ4SDQ4Yy0yNi41IDAtNDgtMjEuNS00OC00OFYzNjhjMC0yNi41IDIxLjUtNDggNDgtNDhoOFYyODhjMC0zMC45IDI1LjEtNTYgNTYtNTZIMjY0VjE5MmgtOGMtMjYuNSAwLTQ4LTIxLjUtNDgtNDhWODB6Ii8+PC9zdmc+;" vertex="1" parent="1">
          <mxGeometry x="1931.12" y="122" width="61.88" height="55" as="geometry" />
        </mxCell>
        <mxCell id="kapay8_YsLIXyyZsie_a-42" value="" style="shape=image;verticalLabelPosition=bottom;labelBackgroundColor=default;verticalAlign=top;aspect=fixed;imageAspect=0;image=data:image/svg+xml,PHN2ZyB4bWxucz0iaHR0cDovL3d3dy53My5vcmcvMjAwMC9zdmciIHZpZXdCb3g9IjAgMCA0NDggNTEyIj48cGF0aCBkPSJNNjQgMzJDMjguNyAzMiAwIDYwLjcgMCA5NlY0MTZjMCAzNS4zIDI4LjcgNjQgNjQgNjRIMzg0YzM1LjMgMCA2NC0yOC43IDY0LTY0Vjk2YzAtMzUuMy0yOC43LTY0LTY0LTY0SDY0em02NCAxOTJjMTcuNyAwIDMyIDE0LjMgMzIgMzJ2OTZjMCAxNy43LTE0LjMgMzItMzIgMzJzLTMyLTE0LjMtMzItMzJWMjU2YzAtMTcuNyAxNC4zLTMyIDMyLTMyem02NC02NGMwLTE3LjcgMTQuMy0zMiAzMi0zMnMzMiAxNC4zIDMyIDMyVjM1MmMwIDE3LjctMTQuMyAzMi0zMiAzMnMtMzItMTQuMy0zMi0zMlYxNjB6TTMyMCAyODhjMTcuNyAwIDMyIDE0LjMgMzIgMzJ2MzJjMCAxNy43LTE0LjMgMzItMzIgMzJzLTMyLTE0LjMtMzItMzJWMzIwYzAtMTcuNyAxNC4zLTMyIDMyLTMyeiIvPjwvc3ZnPg==;" vertex="1" parent="1">
          <mxGeometry x="1706" y="598.5" width="43.75" height="50" as="geometry" />
        </mxCell>
        <mxCell id="kapay8_YsLIXyyZsie_a-43" value="" style="shape=image;verticalLabelPosition=bottom;labelBackgroundColor=default;verticalAlign=top;aspect=fixed;imageAspect=0;image=data:image/svg+xml,PHN2ZyB4bWxucz0iaHR0cDovL3d3dy53My5vcmcvMjAwMC9zdmciIHZpZXdCb3g9IjAgMCA1MTIgNTEyIj48cGF0aCBkPSJNNDE2IDIwOGMwIDQ1LjktMTQuOSA4OC4zLTQwIDEyMi43TDUwMi42IDQ1Ny40YzEyLjUgMTIuNSAxMi41IDMyLjggMCA0NS4zcy0zMi44IDEyLjUtNDUuMyAwTDMzMC43IDM3NmMtMzQuNCAyNS4yLTc2LjggNDAtMTIyLjcgNDBDOTMuMSA0MTYgMCAzMjIuOSAwIDIwOFM5My4xIDAgMjA4IDBTNDE2IDkzLjEgNDE2IDIwOHpNMjA4IDM1MmExNDQgMTQ0IDAgMSAwIDAtMjg4IDE0NCAxNDQgMCAxIDAgMCAyODh6Ii8+PC9zdmc+;" vertex="1" parent="1">
          <mxGeometry x="1508" y="173.25" width="44" height="44" as="geometry" />
        </mxCell>
      </root>
    </mxGraphModel>
  </diagram>
</mxfile>
